<?xml version="1.0" encoding="UTF-8" standalone="no"?><svg xmlns="http://www.w3.org/2000/svg" xmlns:xlink="http://www.w3.org/1999/xlink" contentScriptType="application/ecmascript" contentStyleType="text/css" height="753px" preserveAspectRatio="none" style="width:2045px;height:753px;background:#FFFFFF;" version="1.1" viewBox="0 0 2045 753" width="2045px" zoomAndPan="magnify"><defs><filter height="300%" id="ffer6krfxwkzi" width="300%" x="-1" y="-1"><feGaussianBlur result="blurOut" stdDeviation="2.0"/><feColorMatrix in="blurOut" result="blurOut2" type="matrix" values="0 0 0 0 0 0 0 0 0 0 0 0 0 0 0 0 0 0 .4 0"/><feOffset dx="4.0" dy="4.0" in="blurOut2" result="blurOut3"/><feBlend in="SourceGraphic" in2="blurOut3" mode="normal"/></filter></defs><g><!--MD5=[bd0bd4c41e0e5269e37474fd45a6abb7]
cluster repository--><polygon fill="#FFFFFF" filter="url(#ffer6krfxwkzi)" points="186.5959,417,276.5959,417,283.5959,439.2969,520.5959,439.2969,520.5959,746.5,186.5959,746.5,186.5959,417" style="stroke:#000000;stroke-width:1.5;"/><line style="stroke:#000000;stroke-width:1.5;" x1="186.5959" x2="283.5959" y1="439.2969" y2="439.2969"/><text fill="#000000" font-family="sans-serif" font-size="14" font-weight="bold" lengthAdjust="spacing" textLength="84" x="190.5959" y="431.9951">repository</text><!--MD5=[5d4cd377749310b66bf14896f5cd8d9b]
cluster model--><polygon fill="#FFFFFF" filter="url(#ffer6krfxwkzi)" points="581.5959,609.5,636.5959,609.5,643.5959,631.7969,713.5959,631.7969,713.5959,746.5,581.5959,746.5,581.5959,609.5" style="stroke:#000000;stroke-width:1.5;"/><line style="stroke:#000000;stroke-width:1.5;" x1="581.5959" x2="643.5959" y1="631.7969" y2="631.7969"/><text fill="#000000" font-family="sans-serif" font-size="14" font-weight="bold" lengthAdjust="spacing" textLength="49" x="585.5959" y="624.4951">model</text><!--MD5=[e87e603ccfa50601551ee5182e1669af]
cluster usecase--><polygon fill="#FFFFFF" filter="url(#ffer6krfxwkzi)" points="189.5959,19,260.5959,19,267.5959,41.2969,517.5959,41.2969,517.5959,368,189.5959,368,189.5959,19" style="stroke:#000000;stroke-width:1.5;"/><line style="stroke:#000000;stroke-width:1.5;" x1="189.5959" x2="267.5959" y1="41.2969" y2="41.2969"/><text fill="#000000" font-family="sans-serif" font-size="14" font-weight="bold" lengthAdjust="spacing" textLength="65" x="193.5959" y="33.9951">usecase</text><!--MD5=[db65ce44d5e360fb4ec835f941dc7573]
cluster database--><polygon fill="#FFFFFF" filter="url(#ffer6krfxwkzi)" points="757.5959,218,839.5959,218,846.5959,240.2969,1444.6009,240.2969,1444.6009,560.5,757.5959,560.5,757.5959,218" style="stroke:#000000;stroke-width:1.5;"/><line style="stroke:#000000;stroke-width:1.5;" x1="757.5959" x2="846.5959" y1="240.2969" y2="240.2969"/><text fill="#000000" font-family="sans-serif" font-size="14" font-weight="bold" lengthAdjust="spacing" textLength="76" x="761.5959" y="232.9951">database</text><!--MD5=[5336d0432c5753478f8bb0248199b33b]
cluster handler--><polygon fill="#FFFFFF" filter="url(#ffer6krfxwkzi)" points="1468.6009,25,1535.6009,25,1542.6009,47.2969,2028.6009,47.2969,2028.6009,368,1468.6009,368,1468.6009,25" style="stroke:#000000;stroke-width:1.5;"/><line style="stroke:#000000;stroke-width:1.5;" x1="1468.6009" x2="1542.6009" y1="47.2969" y2="47.2969"/><text fill="#000000" font-family="sans-serif" font-size="14" font-weight="bold" lengthAdjust="spacing" textLength="61" x="1472.6009" y="39.9951">handler</text><!--MD5=[77349be1bd27b81b697a0f9b3aded3c8]
cluster infrastructure--><polygon fill="#FFFFFF" filter="url(#ffer6krfxwkzi)" points="632.5959,6,754.5959,6,761.5959,28.2969,1189.6009,28.2969,1189.6009,169,632.5959,169,632.5959,6" style="stroke:#000000;stroke-width:1.5;"/><line style="stroke:#000000;stroke-width:1.5;" x1="632.5959" x2="761.5959" y1="28.2969" y2="28.2969"/><text fill="#000000" font-family="sans-serif" font-size="14" font-weight="bold" lengthAdjust="spacing" textLength="116" x="636.5959" y="20.9951">infrastructure</text><!--MD5=[f245b1f699e023235faedeb612af804d]
class repository.RegisteredUser--><rect codeLine="2" fill="#FEFECE" filter="url(#ffer6krfxwkzi)" height="86.4141" id="repository.RegisteredUser" style="stroke:#A80036;stroke-width:1.5;" width="127" x="206.0959" y="644.5"/><ellipse cx="221.0959" cy="660.5" fill="#DA70D6" rx="11" ry="11" style="stroke:#A80036;stroke-width:1.0;"/><path d="M221.2522,664.0469 L218.799,658.2813 L219.1272,658.2813 C219.5334,658.2813 219.6897,658.25 219.8303,658.1719 C220.0959,658.0156 220.2365,657.7344 220.2365,657.4375 C220.2365,657.1719 220.1115,656.9063 219.9084,656.7344 C219.7365,656.625 219.5647,656.5938 219.1272,656.5938 L216.8615,656.5938 C216.424,656.5938 216.299,656.6094 216.1428,656.7031 C215.8928,656.8594 215.7365,657.1563 215.7365,657.4375 C215.7365,657.7813 215.9709,658.125 216.2678,658.2188 C216.424,658.2656 216.549,658.2813 216.8928,658.2813 L220.3303,666.5 L222.0178,666.5 L225.5022,658.2813 C225.8615,658.2813 225.9709,658.2656 226.1272,658.2188 C226.4084,658.125 226.6584,657.7813 226.6584,657.4375 C226.6584,657.1719 226.5178,656.9063 226.299,656.7344 C226.1428,656.625 225.9709,656.5938 225.5334,656.5938 L223.2834,656.5938 C222.8459,656.5938 222.7209,656.6094 222.5803,656.7031 C222.3147,656.8594 222.1584,657.1563 222.1584,657.4375 C222.1584,657.7188 222.299,657.9688 222.5022,658.1406 C222.6897,658.25 222.8303,658.2813 223.2834,658.2813 L223.6897,658.2813 L221.2522,664.0469 Z " fill="#000000"/><text fill="#000000" font-family="sans-serif" font-size="12" lengthAdjust="spacing" textLength="95" x="235.0959" y="664.6543">RegisteredUser</text><line style="stroke:#A80036;stroke-width:1.5;" x1="207.0959" x2="332.0959" y1="676.5" y2="676.5"/><ellipse cx="217.0959" cy="687.5" rx="3" ry="3" style="stroke:#038048;stroke-width:1.0;fill:none;"/><text fill="#000000" font-family="sans-serif" font-size="11" lengthAdjust="spacing" textLength="74" x="226.0959" y="690.7104">ID: uuid.UUID</text><ellipse cx="217.0959" cy="700.3047" rx="3" ry="3" style="stroke:#038048;stroke-width:1.0;fill:none;"/><text fill="#000000" font-family="sans-serif" font-size="11" lengthAdjust="spacing" textLength="72" x="226.0959" y="703.5151">Name: string</text><ellipse cx="217.0959" cy="713.1094" rx="3" ry="3" style="stroke:#038048;stroke-width:1.0;fill:none;"/><text fill="#000000" font-family="sans-serif" font-size="11" lengthAdjust="spacing" textLength="69" x="226.0959" y="716.3198">Email: string</text><line style="stroke:#A80036;stroke-width:1.5;" x1="207.0959" x2="332.0959" y1="722.9141" y2="722.9141"/><!--MD5=[39e2d153c90946d3169456c2f2c5a808]
class repository.UserRepository--><rect codeLine="12" fill="#FEFECE" filter="url(#ffer6krfxwkzi)" height="86.4141" id="repository.UserRepository" style="stroke:#A80036;stroke-width:1.5;" width="301" x="203.0959" y="452"/><ellipse cx="304.3459" cy="468" fill="#B4A7E5" rx="11" ry="11" style="stroke:#A80036;stroke-width:1.0;"/><path d="M305.299,464.7813 L307.0178,464.7813 C307.4084,464.7813 307.5959,464.75 307.7209,464.6719 C307.9865,464.5156 308.1272,464.2344 308.1272,463.9375 C308.1272,463.6719 308.0178,463.4063 307.7834,463.2344 C307.6115,463.125 307.4709,463.0938 307.0178,463.0938 L301.8772,463.0938 C301.4397,463.0938 301.3147,463.1094 301.1584,463.2031 C300.9084,463.3594 300.7522,463.6563 300.7522,463.9375 C300.7522,464.2188 300.8928,464.4688 301.1115,464.6406 C301.2678,464.75 301.4553,464.7813 301.8772,464.7813 L303.5959,464.7813 L303.5959,471.2969 L301.8772,471.2969 C301.4397,471.2969 301.3147,471.3125 301.1584,471.4219 C300.9084,471.5781 300.7522,471.8594 300.7522,472.1563 C300.7522,472.4063 300.8928,472.6719 301.1115,472.8281 C301.2678,472.9531 301.4709,473 301.8772,473 L307.0178,473 C307.7678,473 308.1272,472.7188 308.1272,472.1563 C308.1272,471.875 308.0178,471.625 307.7834,471.4531 C307.6115,471.3281 307.4709,471.2969 307.0178,471.2969 L305.299,471.2969 L305.299,464.7813 Z " fill="#000000"/><text fill="#000000" font-family="sans-serif" font-size="12" font-style="italic" lengthAdjust="spacing" textLength="90" x="324.8459" y="472.1543">UserRepository</text><line style="stroke:#A80036;stroke-width:1.5;" x1="204.0959" x2="503.0959" y1="484" y2="484"/><line style="stroke:#A80036;stroke-width:1.5;" x1="204.0959" x2="503.0959" y1="492" y2="492"/><ellipse cx="214.0959" cy="503" fill="#84BE84" rx="3" ry="3" style="stroke:#038048;stroke-width:1.0;"/><text fill="#000000" font-family="sans-serif" font-size="11" lengthAdjust="spacing" textLength="159" x="223.0959" y="506.2104">FindAll(): (model.User, error)</text><ellipse cx="214.0959" cy="515.8047" fill="#84BE84" rx="3" ry="3" style="stroke:#038048;stroke-width:1.0;"/><text fill="#000000" font-family="sans-serif" font-size="11" lengthAdjust="spacing" textLength="244" x="223.0959" y="519.0151">FindByID(id: uuid.UUID): (model.User, error)</text><ellipse cx="214.0959" cy="528.6094" fill="#84BE84" rx="3" ry="3" style="stroke:#038048;stroke-width:1.0;"/><text fill="#000000" font-family="sans-serif" font-size="11" lengthAdjust="spacing" textLength="275" x="223.0959" y="531.8198">Register(user: *repository.RegisteredUser): error</text><!--MD5=[fc55364a84fecadf47c4ce9e34d5af7c]
class model.User--><rect codeLine="163" fill="#FEFECE" filter="url(#ffer6krfxwkzi)" height="86.4141" id="model.User" style="stroke:#A80036;stroke-width:1.5;" width="100" x="597.5959" y="644.5"/><ellipse cx="630.1459" cy="660.5" fill="#DA70D6" rx="11" ry="11" style="stroke:#A80036;stroke-width:1.0;"/><path d="M630.3021,664.0469 L627.849,658.2813 L628.1771,658.2813 C628.5834,658.2813 628.7396,658.25 628.8803,658.1719 C629.1459,658.0156 629.2865,657.7344 629.2865,657.4375 C629.2865,657.1719 629.1615,656.9063 628.9584,656.7344 C628.7865,656.625 628.6146,656.5938 628.1771,656.5938 L625.9115,656.5938 C625.474,656.5938 625.349,656.6094 625.1928,656.7031 C624.9428,656.8594 624.7865,657.1563 624.7865,657.4375 C624.7865,657.7813 625.0209,658.125 625.3178,658.2188 C625.474,658.2656 625.599,658.2813 625.9428,658.2813 L629.3803,666.5 L631.0678,666.5 L634.5521,658.2813 C634.9115,658.2813 635.0209,658.2656 635.1771,658.2188 C635.4584,658.125 635.7084,657.7813 635.7084,657.4375 C635.7084,657.1719 635.5678,656.9063 635.349,656.7344 C635.1928,656.625 635.0209,656.5938 634.5834,656.5938 L632.3334,656.5938 C631.8959,656.5938 631.7709,656.6094 631.6303,656.7031 C631.3646,656.8594 631.2084,657.1563 631.2084,657.4375 C631.2084,657.7188 631.349,657.9688 631.5521,658.1406 C631.7396,658.25 631.8803,658.2813 632.3334,658.2813 L632.7396,658.2813 L630.3021,664.0469 Z " fill="#000000"/><text fill="#000000" font-family="sans-serif" font-size="12" lengthAdjust="spacing" textLength="29" x="648.0459" y="664.6543">User</text><line style="stroke:#A80036;stroke-width:1.5;" x1="598.5959" x2="696.5959" y1="676.5" y2="676.5"/><ellipse cx="608.5959" cy="687.5" rx="3" ry="3" style="stroke:#038048;stroke-width:1.0;fill:none;"/><text fill="#000000" font-family="sans-serif" font-size="11" lengthAdjust="spacing" textLength="74" x="617.5959" y="690.7104">ID: uuid.UUID</text><ellipse cx="608.5959" cy="700.3047" rx="3" ry="3" style="stroke:#038048;stroke-width:1.0;fill:none;"/><text fill="#000000" font-family="sans-serif" font-size="11" lengthAdjust="spacing" textLength="72" x="617.5959" y="703.5151">Name: string</text><ellipse cx="608.5959" cy="713.1094" rx="3" ry="3" style="stroke:#038048;stroke-width:1.0;fill:none;"/><text fill="#000000" font-family="sans-serif" font-size="11" lengthAdjust="spacing" textLength="69" x="617.5959" y="716.3198">Email: string</text><line style="stroke:#A80036;stroke-width:1.5;" x1="598.5959" x2="696.5959" y1="722.9141" y2="722.9141"/><!--MD5=[a299c3fe77932bc438427f0a8c0adcc2]
class usecase.UserService--><rect codeLine="24" fill="#FEFECE" filter="url(#ffer6krfxwkzi)" height="86.4141" id="usecase.UserService" style="stroke:#A80036;stroke-width:1.5;" width="295" x="206.0959" y="54"/><ellipse cx="313.8459" cy="70" fill="#B4A7E5" rx="11" ry="11" style="stroke:#A80036;stroke-width:1.0;"/><path d="M314.799,66.7813 L316.5178,66.7813 C316.9084,66.7813 317.0959,66.75 317.2209,66.6719 C317.4865,66.5156 317.6272,66.2344 317.6272,65.9375 C317.6272,65.6719 317.5178,65.4063 317.2834,65.2344 C317.1115,65.125 316.9709,65.0938 316.5178,65.0938 L311.3772,65.0938 C310.9397,65.0938 310.8147,65.1094 310.6584,65.2031 C310.4084,65.3594 310.2522,65.6563 310.2522,65.9375 C310.2522,66.2188 310.3928,66.4688 310.6115,66.6406 C310.7678,66.75 310.9553,66.7813 311.3772,66.7813 L313.0959,66.7813 L313.0959,73.2969 L311.3772,73.2969 C310.9397,73.2969 310.8147,73.3125 310.6584,73.4219 C310.4084,73.5781 310.2522,73.8594 310.2522,74.1563 C310.2522,74.4063 310.3928,74.6719 310.6115,74.8281 C310.7678,74.9531 310.9709,75 311.3772,75 L316.5178,75 C317.2678,75 317.6272,74.7188 317.6272,74.1563 C317.6272,73.875 317.5178,73.625 317.2834,73.4531 C317.1115,73.3281 316.9709,73.2969 316.5178,73.2969 L314.799,73.2969 L314.799,66.7813 Z " fill="#000000"/><text fill="#000000" font-family="sans-serif" font-size="12" font-style="italic" lengthAdjust="spacing" textLength="71" x="334.3459" y="74.1543">UserService</text><line style="stroke:#A80036;stroke-width:1.5;" x1="207.0959" x2="500.0959" y1="86" y2="86"/><line style="stroke:#A80036;stroke-width:1.5;" x1="207.0959" x2="500.0959" y1="94" y2="94"/><ellipse cx="217.0959" cy="105" fill="#84BE84" rx="3" ry="3" style="stroke:#038048;stroke-width:1.0;"/><text fill="#000000" font-family="sans-serif" font-size="11" lengthAdjust="spacing" textLength="157" x="226.0959" y="108.2104">GetAll(): (model.User, error)</text><ellipse cx="217.0959" cy="117.8047" fill="#84BE84" rx="3" ry="3" style="stroke:#038048;stroke-width:1.0;"/><text fill="#000000" font-family="sans-serif" font-size="11" lengthAdjust="spacing" textLength="242" x="226.0959" y="121.0151">GetByID(id: uuid.UUID): (model.User, error)</text><ellipse cx="217.0959" cy="130.6094" fill="#84BE84" rx="3" ry="3" style="stroke:#038048;stroke-width:1.0;"/><text fill="#000000" font-family="sans-serif" font-size="11" lengthAdjust="spacing" textLength="269" x="226.0959" y="133.8198">Register(user: repository.RegisteredUser): error</text><!--MD5=[bb0d30d0621dd66138dbba896dccc537]
class usecase.userService--><rect codeLine="36" fill="#FEFECE" filter="url(#ffer6krfxwkzi)" height="99.2188" id="usecase.userService" style="stroke:#A80036;stroke-width:1.5;" width="295" x="206.0959" y="253"/><ellipse cx="312.8459" cy="269" fill="#FFCC00" rx="11" ry="11" style="stroke:#A80036;stroke-width:1.0;"/><path d="M311.6428,269.875 L313.0959,269.875 L313.0959,269.9844 C313.0959,270.3906 313.1272,270.5469 313.2053,270.7031 C313.3615,270.9531 313.6428,271.1094 313.9397,271.1094 C314.1897,271.1094 314.4553,270.9688 314.6115,270.75 C314.7365,270.5938 314.7678,270.4375 314.7678,269.9844 L314.7678,268.0625 C314.7678,267.9063 314.7678,267.8594 314.7522,267.7031 C314.6897,267.2344 314.3772,266.9219 313.924,266.9219 C313.674,266.9219 313.4084,267.0625 313.2365,267.2813 C313.1272,267.4531 313.0959,267.6094 313.0959,268.0625 L313.0959,268.1875 L311.6428,268.1875 L311.6428,265.7813 L315.6272,265.7813 L315.6272,266.6406 C315.6272,267.0469 315.6584,267.2188 315.7365,267.375 C315.9084,267.625 316.1897,267.7813 316.4709,267.7813 C316.7365,267.7813 317.0022,267.6406 317.174,267.4219 C317.2834,267.25 317.3147,267.1094 317.3147,266.6406 L317.3147,264.0938 L309.6897,264.0938 C309.2522,264.0938 309.1272,264.1094 308.9709,264.2031 C308.7209,264.3594 308.5647,264.6563 308.5647,264.9375 C308.5647,265.2188 308.7053,265.4688 308.924,265.6406 C309.0803,265.75 309.2678,265.7813 309.6897,265.7813 L309.9397,265.7813 L309.9397,272.2969 L309.6897,272.2969 C309.2834,272.2969 309.1272,272.3125 308.9709,272.4219 C308.7209,272.5938 308.5647,272.8594 308.5647,273.1563 C308.5647,273.4219 308.7053,273.6719 308.924,273.8281 C309.0647,273.9531 309.299,274 309.6897,274 L317.6897,274 L317.6897,271.4219 C317.6897,270.9844 317.6584,270.8438 317.5803,270.6875 C317.4084,270.4375 317.1272,270.2813 316.8459,270.2813 C316.5803,270.2813 316.3147,270.3906 316.1428,270.6406 C316.0334,270.7969 316.0022,270.9375 316.0022,271.4219 L316.0022,272.2969 L311.6428,272.2969 L311.6428,269.875 Z " fill="#000000"/><text fill="#000000" font-family="sans-serif" font-size="12" lengthAdjust="spacing" textLength="73" x="333.3459" y="273.1543">userService</text><line style="stroke:#A80036;stroke-width:1.5;" x1="207.0959" x2="500.0959" y1="285" y2="285"/><rect fill="none" height="6" style="stroke:#C82930;stroke-width:1.0;" width="6" x="214.0959" y="293"/><text fill="#000000" font-family="sans-serif" font-size="11" lengthAdjust="spacing" textLength="179" x="226.0959" y="299.2104">repo: repository.UserRepository</text><line style="stroke:#A80036;stroke-width:1.5;" x1="207.0959" x2="500.0959" y1="305.8047" y2="305.8047"/><ellipse cx="217.0959" cy="316.8047" fill="#84BE84" rx="3" ry="3" style="stroke:#038048;stroke-width:1.0;"/><text fill="#000000" font-family="sans-serif" font-size="11" lengthAdjust="spacing" textLength="157" x="226.0959" y="320.0151">GetAll(): (model.User, error)</text><ellipse cx="217.0959" cy="329.6094" fill="#84BE84" rx="3" ry="3" style="stroke:#038048;stroke-width:1.0;"/><text fill="#000000" font-family="sans-serif" font-size="11" lengthAdjust="spacing" textLength="242" x="226.0959" y="332.8198">GetByID(id: uuid.UUID): (model.User, error)</text><ellipse cx="217.0959" cy="342.4141" fill="#84BE84" rx="3" ry="3" style="stroke:#038048;stroke-width:1.0;"/><text fill="#000000" font-family="sans-serif" font-size="11" lengthAdjust="spacing" textLength="269" x="226.0959" y="345.6245">Register(user: repository.RegisteredUser): error</text><!--MD5=[e783793d60f9c18cc4d7a214f220ca53]
class database.SQLHandler--><rect codeLine="50" fill="#FEFECE" filter="url(#ffer6krfxwkzi)" height="99.2188" id="database.SQLHandler" style="stroke:#A80036;stroke-width:1.5;" width="400" x="773.5959" y="253"/><ellipse cx="933.8459" cy="269" fill="#B4A7E5" rx="11" ry="11" style="stroke:#A80036;stroke-width:1.0;"/><path d="M934.799,265.7813 L936.5178,265.7813 C936.9084,265.7813 937.0959,265.75 937.2209,265.6719 C937.4865,265.5156 937.6271,265.2344 937.6271,264.9375 C937.6271,264.6719 937.5178,264.4063 937.2834,264.2344 C937.1115,264.125 936.9709,264.0938 936.5178,264.0938 L931.3771,264.0938 C930.9396,264.0938 930.8146,264.1094 930.6584,264.2031 C930.4084,264.3594 930.2521,264.6563 930.2521,264.9375 C930.2521,265.2188 930.3928,265.4688 930.6115,265.6406 C930.7678,265.75 930.9553,265.7813 931.3771,265.7813 L933.0959,265.7813 L933.0959,272.2969 L931.3771,272.2969 C930.9396,272.2969 930.8146,272.3125 930.6584,272.4219 C930.4084,272.5781 930.2521,272.8594 930.2521,273.1563 C930.2521,273.4063 930.3928,273.6719 930.6115,273.8281 C930.7678,273.9531 930.9709,274 931.3771,274 L936.5178,274 C937.2678,274 937.6271,273.7188 937.6271,273.1563 C937.6271,272.875 937.5178,272.625 937.2834,272.4531 C937.1115,272.3281 936.9709,272.2969 936.5178,272.2969 L934.799,272.2969 L934.799,265.7813 Z " fill="#000000"/><text fill="#000000" font-family="sans-serif" font-size="12" font-style="italic" lengthAdjust="spacing" textLength="71" x="954.3459" y="273.1543">SQLHandler</text><line style="stroke:#A80036;stroke-width:1.5;" x1="774.5959" x2="1172.5959" y1="285" y2="285"/><line style="stroke:#A80036;stroke-width:1.5;" x1="774.5959" x2="1172.5959" y1="293" y2="293"/><ellipse cx="784.5959" cy="304" fill="#84BE84" rx="3" ry="3" style="stroke:#038048;stroke-width:1.0;"/><text fill="#000000" font-family="sans-serif" font-size="11" lengthAdjust="spacing" textLength="281" x="793.5959" y="307.2104">Create(value: interface{}): database.SQLHandler</text><ellipse cx="784.5959" cy="316.8047" fill="#84BE84" rx="3" ry="3" style="stroke:#038048;stroke-width:1.0;"/><text fill="#000000" font-family="sans-serif" font-size="11" lengthAdjust="spacing" textLength="68" x="793.5959" y="320.0151">Error(): error</text><ellipse cx="784.5959" cy="329.6094" fill="#84BE84" rx="3" ry="3" style="stroke:#038048;stroke-width:1.0;"/><text fill="#000000" font-family="sans-serif" font-size="11" lengthAdjust="spacing" textLength="374" x="793.5959" y="332.8198">Find(out: interface{}, where: []interface{}): database.SQLHandler</text><ellipse cx="784.5959" cy="342.4141" fill="#84BE84" rx="3" ry="3" style="stroke:#038048;stroke-width:1.0;"/><text fill="#000000" font-family="sans-serif" font-size="11" lengthAdjust="spacing" textLength="374" x="793.5959" y="345.6245">First(out: interface{}, where: []interface{}): database.SQLHandler</text><!--MD5=[2220773153961bb25a4b026a6cf1f7fa]
class database.UserRepository--><rect codeLine="64" fill="#FEFECE" filter="url(#ffer6krfxwkzi)" height="99.2188" id="database.UserRepository" style="stroke:#A80036;stroke-width:1.5;" width="295" x="787.0959" y="445.5"/><ellipse cx="883.3459" cy="461.5" fill="#FFCC00" rx="11" ry="11" style="stroke:#A80036;stroke-width:1.0;"/><path d="M882.1428,462.375 L883.5959,462.375 L883.5959,462.4844 C883.5959,462.8906 883.6271,463.0469 883.7053,463.2031 C883.8615,463.4531 884.1428,463.6094 884.4396,463.6094 C884.6896,463.6094 884.9553,463.4688 885.1115,463.25 C885.2365,463.0938 885.2678,462.9375 885.2678,462.4844 L885.2678,460.5625 C885.2678,460.4063 885.2678,460.3594 885.2521,460.2031 C885.1896,459.7344 884.8771,459.4219 884.424,459.4219 C884.174,459.4219 883.9084,459.5625 883.7365,459.7813 C883.6271,459.9531 883.5959,460.1094 883.5959,460.5625 L883.5959,460.6875 L882.1428,460.6875 L882.1428,458.2813 L886.1271,458.2813 L886.1271,459.1406 C886.1271,459.5469 886.1584,459.7188 886.2365,459.875 C886.4084,460.125 886.6896,460.2813 886.9709,460.2813 C887.2365,460.2813 887.5021,460.1406 887.674,459.9219 C887.7834,459.75 887.8146,459.6094 887.8146,459.1406 L887.8146,456.5938 L880.1896,456.5938 C879.7521,456.5938 879.6271,456.6094 879.4709,456.7031 C879.2209,456.8594 879.0646,457.1563 879.0646,457.4375 C879.0646,457.7188 879.2053,457.9688 879.424,458.1406 C879.5803,458.25 879.7678,458.2813 880.1896,458.2813 L880.4396,458.2813 L880.4396,464.7969 L880.1896,464.7969 C879.7834,464.7969 879.6271,464.8125 879.4709,464.9219 C879.2209,465.0938 879.0646,465.3594 879.0646,465.6563 C879.0646,465.9219 879.2053,466.1719 879.424,466.3281 C879.5646,466.4531 879.799,466.5 880.1896,466.5 L888.1896,466.5 L888.1896,463.9219 C888.1896,463.4844 888.1584,463.3438 888.0803,463.1875 C887.9084,462.9375 887.6271,462.7813 887.3459,462.7813 C887.0803,462.7813 886.8146,462.8906 886.6428,463.1406 C886.5334,463.2969 886.5021,463.4375 886.5021,463.9219 L886.5021,464.7969 L882.1428,464.7969 L882.1428,462.375 Z " fill="#000000"/><text fill="#000000" font-family="sans-serif" font-size="12" lengthAdjust="spacing" textLength="94" x="903.8459" y="465.6543">UserRepository</text><line style="stroke:#A80036;stroke-width:1.5;" x1="788.0959" x2="1081.0959" y1="477.5" y2="477.5"/><ellipse cx="798.0959" cy="488.5" rx="3" ry="3" style="stroke:#038048;stroke-width:1.0;fill:none;"/><text fill="#000000" font-family="sans-serif" font-size="11" lengthAdjust="spacing" textLength="197" x="807.0959" y="491.7104">SQLHandler: database.SQLHandler</text><line style="stroke:#A80036;stroke-width:1.5;" x1="788.0959" x2="1081.0959" y1="498.3047" y2="498.3047"/><ellipse cx="798.0959" cy="509.3047" fill="#84BE84" rx="3" ry="3" style="stroke:#038048;stroke-width:1.0;"/><text fill="#000000" font-family="sans-serif" font-size="11" lengthAdjust="spacing" textLength="159" x="807.0959" y="512.5151">FindAll(): (model.User, error)</text><ellipse cx="798.0959" cy="522.1094" fill="#84BE84" rx="3" ry="3" style="stroke:#038048;stroke-width:1.0;"/><text fill="#000000" font-family="sans-serif" font-size="11" lengthAdjust="spacing" textLength="244" x="807.0959" y="525.3198">FindByID(id: uuid.UUID): (model.User, error)</text><ellipse cx="798.0959" cy="534.9141" fill="#84BE84" rx="3" ry="3" style="stroke:#038048;stroke-width:1.0;"/><text fill="#000000" font-family="sans-serif" font-size="11" lengthAdjust="spacing" textLength="269" x="807.0959" y="538.1245">Register(user: repository.RegisteredUser): error</text><!--MD5=[bcf52e06ae4da7928ae16e06f32df4d8]
class handler.API--><rect codeLine="78" fill="#FEFECE" filter="url(#ffer6krfxwkzi)" height="73.6094" id="handler.API" style="stroke:#A80036;stroke-width:1.5;" width="181" x="1817.1009" y="60"/><ellipse cx="1894.8509" cy="76" fill="#DA70D6" rx="11" ry="11" style="stroke:#A80036;stroke-width:1.0;"/><path d="M1895.0072,79.5469 L1892.554,73.7813 L1892.8822,73.7813 C1893.2884,73.7813 1893.4447,73.75 1893.5853,73.6719 C1893.8509,73.5156 1893.9915,73.2344 1893.9915,72.9375 C1893.9915,72.6719 1893.8665,72.4063 1893.6634,72.2344 C1893.4915,72.125 1893.3197,72.0938 1892.8822,72.0938 L1890.6165,72.0938 C1890.179,72.0938 1890.054,72.1094 1889.8978,72.2031 C1889.6478,72.3594 1889.4915,72.6563 1889.4915,72.9375 C1889.4915,73.2813 1889.7259,73.625 1890.0228,73.7188 C1890.179,73.7656 1890.304,73.7813 1890.6478,73.7813 L1894.0853,82 L1895.7728,82 L1899.2572,73.7813 C1899.6165,73.7813 1899.7259,73.7656 1899.8822,73.7188 C1900.1634,73.625 1900.4134,73.2813 1900.4134,72.9375 C1900.4134,72.6719 1900.2728,72.4063 1900.054,72.2344 C1899.8978,72.125 1899.7259,72.0938 1899.2884,72.0938 L1897.0384,72.0938 C1896.6009,72.0938 1896.4759,72.1094 1896.3353,72.2031 C1896.0697,72.3594 1895.9134,72.6563 1895.9134,72.9375 C1895.9134,73.2188 1896.054,73.4688 1896.2572,73.6406 C1896.4447,73.75 1896.5853,73.7813 1897.0384,73.7813 L1897.4447,73.7813 L1895.0072,79.5469 Z " fill="#000000"/><text fill="#000000" font-family="sans-serif" font-size="12" lengthAdjust="spacing" textLength="17" x="1915.3509" y="80.1543">API</text><line style="stroke:#A80036;stroke-width:1.5;" x1="1818.1009" x2="1997.1009" y1="92" y2="92"/><ellipse cx="1828.1009" cy="103" rx="3" ry="3" style="stroke:#038048;stroke-width:1.0;fill:none;"/><text fill="#000000" font-family="sans-serif" font-size="11" lengthAdjust="spacing" textLength="149" x="1837.1009" y="106.2104">Ping: *handler.PingHandler</text><ellipse cx="1828.1009" cy="115.8047" rx="3" ry="3" style="stroke:#038048;stroke-width:1.0;fill:none;"/><text fill="#000000" font-family="sans-serif" font-size="11" lengthAdjust="spacing" textLength="155" x="1837.1009" y="119.0151">User: *handler.UserHandler</text><line style="stroke:#A80036;stroke-width:1.5;" x1="1818.1009" x2="1997.1009" y1="125.6094" y2="125.6094"/><!--MD5=[ec71536b7e37de4b5a6393cb3d214453]
class handler.PingHandler--><rect codeLine="89" fill="#FEFECE" filter="url(#ffer6krfxwkzi)" height="60.8047" id="handler.PingHandler" style="stroke:#A80036;stroke-width:1.5;" width="166" x="1619.6009" y="272"/><ellipse cx="1662.9509" cy="288" fill="#FFCC00" rx="11" ry="11" style="stroke:#A80036;stroke-width:1.0;"/><path d="M1661.7478,288.875 L1663.2009,288.875 L1663.2009,288.9844 C1663.2009,289.3906 1663.2322,289.5469 1663.3103,289.7031 C1663.4665,289.9531 1663.7478,290.1094 1664.0447,290.1094 C1664.2947,290.1094 1664.5603,289.9688 1664.7165,289.75 C1664.8415,289.5938 1664.8728,289.4375 1664.8728,288.9844 L1664.8728,287.0625 C1664.8728,286.9063 1664.8728,286.8594 1664.8572,286.7031 C1664.7947,286.2344 1664.4822,285.9219 1664.029,285.9219 C1663.779,285.9219 1663.5134,286.0625 1663.3415,286.2813 C1663.2322,286.4531 1663.2009,286.6094 1663.2009,287.0625 L1663.2009,287.1875 L1661.7478,287.1875 L1661.7478,284.7813 L1665.7322,284.7813 L1665.7322,285.6406 C1665.7322,286.0469 1665.7634,286.2188 1665.8415,286.375 C1666.0134,286.625 1666.2947,286.7813 1666.5759,286.7813 C1666.8415,286.7813 1667.1072,286.6406 1667.279,286.4219 C1667.3884,286.25 1667.4197,286.1094 1667.4197,285.6406 L1667.4197,283.0938 L1659.7947,283.0938 C1659.3572,283.0938 1659.2322,283.1094 1659.0759,283.2031 C1658.8259,283.3594 1658.6697,283.6563 1658.6697,283.9375 C1658.6697,284.2188 1658.8103,284.4688 1659.029,284.6406 C1659.1853,284.75 1659.3728,284.7813 1659.7947,284.7813 L1660.0447,284.7813 L1660.0447,291.2969 L1659.7947,291.2969 C1659.3884,291.2969 1659.2322,291.3125 1659.0759,291.4219 C1658.8259,291.5938 1658.6697,291.8594 1658.6697,292.1563 C1658.6697,292.4219 1658.8103,292.6719 1659.029,292.8281 C1659.1697,292.9531 1659.404,293 1659.7947,293 L1667.7947,293 L1667.7947,290.4219 C1667.7947,289.9844 1667.7634,289.8438 1667.6853,289.6875 C1667.5134,289.4375 1667.2322,289.2813 1666.9509,289.2813 C1666.6853,289.2813 1666.4197,289.3906 1666.2478,289.6406 C1666.1384,289.7969 1666.1072,289.9375 1666.1072,290.4219 L1666.1072,291.2969 L1661.7478,291.2969 L1661.7478,288.875 Z " fill="#000000"/><text fill="#000000" font-family="sans-serif" font-size="12" lengthAdjust="spacing" textLength="71" x="1683.2509" y="292.1543">PingHandler</text><line style="stroke:#A80036;stroke-width:1.5;" x1="1620.6009" x2="1784.6009" y1="304" y2="304"/><line style="stroke:#A80036;stroke-width:1.5;" x1="1620.6009" x2="1784.6009" y1="312" y2="312"/><ellipse cx="1630.6009" cy="323" fill="#84BE84" rx="3" ry="3" style="stroke:#038048;stroke-width:1.0;"/><text fill="#000000" font-family="sans-serif" font-size="11" lengthAdjust="spacing" textLength="140" x="1639.6009" y="326.2104">Ping(c: v4.Context): error</text><!--MD5=[fe1cea9b5321ddcb3945da9c63130e75]
class handler.UserHandler--><rect codeLine="125" fill="#FEFECE" filter="url(#ffer6krfxwkzi)" height="99.2188" id="handler.UserHandler" style="stroke:#A80036;stroke-width:1.5;" width="191" x="1821.1009" y="253"/><ellipse cx="1874.3509" cy="269" fill="#FFCC00" rx="11" ry="11" style="stroke:#A80036;stroke-width:1.0;"/><path d="M1873.1478,269.875 L1874.6009,269.875 L1874.6009,269.9844 C1874.6009,270.3906 1874.6322,270.5469 1874.7103,270.7031 C1874.8665,270.9531 1875.1478,271.1094 1875.4447,271.1094 C1875.6947,271.1094 1875.9603,270.9688 1876.1165,270.75 C1876.2415,270.5938 1876.2728,270.4375 1876.2728,269.9844 L1876.2728,268.0625 C1876.2728,267.9063 1876.2728,267.8594 1876.2572,267.7031 C1876.1947,267.2344 1875.8822,266.9219 1875.429,266.9219 C1875.179,266.9219 1874.9134,267.0625 1874.7415,267.2813 C1874.6322,267.4531 1874.6009,267.6094 1874.6009,268.0625 L1874.6009,268.1875 L1873.1478,268.1875 L1873.1478,265.7813 L1877.1322,265.7813 L1877.1322,266.6406 C1877.1322,267.0469 1877.1634,267.2188 1877.2415,267.375 C1877.4134,267.625 1877.6947,267.7813 1877.9759,267.7813 C1878.2415,267.7813 1878.5072,267.6406 1878.679,267.4219 C1878.7884,267.25 1878.8197,267.1094 1878.8197,266.6406 L1878.8197,264.0938 L1871.1947,264.0938 C1870.7572,264.0938 1870.6322,264.1094 1870.4759,264.2031 C1870.2259,264.3594 1870.0697,264.6563 1870.0697,264.9375 C1870.0697,265.2188 1870.2103,265.4688 1870.429,265.6406 C1870.5853,265.75 1870.7728,265.7813 1871.1947,265.7813 L1871.4447,265.7813 L1871.4447,272.2969 L1871.1947,272.2969 C1870.7884,272.2969 1870.6322,272.3125 1870.4759,272.4219 C1870.2259,272.5938 1870.0697,272.8594 1870.0697,273.1563 C1870.0697,273.4219 1870.2103,273.6719 1870.429,273.8281 C1870.5697,273.9531 1870.804,274 1871.1947,274 L1879.1947,274 L1879.1947,271.4219 C1879.1947,270.9844 1879.1634,270.8438 1879.0853,270.6875 C1878.9134,270.4375 1878.6322,270.2813 1878.3509,270.2813 C1878.0853,270.2813 1877.8197,270.3906 1877.6478,270.6406 C1877.5384,270.7969 1877.5072,270.9375 1877.5072,271.4219 L1877.5072,272.2969 L1873.1478,272.2969 L1873.1478,269.875 Z " fill="#000000"/><text fill="#000000" font-family="sans-serif" font-size="12" lengthAdjust="spacing" textLength="76" x="1894.8509" y="273.1543">UserHandler</text><line style="stroke:#A80036;stroke-width:1.5;" x1="1822.1009" x2="2011.1009" y1="285" y2="285"/><rect fill="none" height="6" style="stroke:#C82930;stroke-width:1.0;" width="6" x="1829.1009" y="293"/><text fill="#000000" font-family="sans-serif" font-size="11" lengthAdjust="spacing" textLength="154" x="1841.1009" y="299.2104">uc: 1_usecase.UserService</text><line style="stroke:#A80036;stroke-width:1.5;" x1="1822.1009" x2="2011.1009" y1="305.8047" y2="305.8047"/><ellipse cx="1832.1009" cy="316.8047" fill="#84BE84" rx="3" ry="3" style="stroke:#038048;stroke-width:1.0;"/><text fill="#000000" font-family="sans-serif" font-size="11" lengthAdjust="spacing" textLength="152" x="1841.1009" y="320.0151">GetAll(c: v4.Context): error</text><ellipse cx="1832.1009" cy="329.6094" fill="#84BE84" rx="3" ry="3" style="stroke:#038048;stroke-width:1.0;"/><text fill="#000000" font-family="sans-serif" font-size="11" lengthAdjust="spacing" textLength="165" x="1841.1009" y="332.8198">GetByID(c: v4.Context): error</text><ellipse cx="1832.1009" cy="342.4141" fill="#84BE84" rx="3" ry="3" style="stroke:#038048;stroke-width:1.0;"/><text fill="#000000" font-family="sans-serif" font-size="11" lengthAdjust="spacing" textLength="164" x="1841.1009" y="345.6245">Register(c: v4.Context): error</text><!--MD5=[69748041814cf6dc7942c9ca3d91ce99]
class handler.RegisterReq--><rect codeLine="97" fill="#FEFECE" filter="url(#ffer6krfxwkzi)" height="73.6094" id="handler.RegisterReq" style="stroke:#A80036;stroke-width:1.5;" width="105" x="1668.1009" y="60"/><ellipse cx="1683.1009" cy="76" fill="#DA70D6" rx="11" ry="11" style="stroke:#A80036;stroke-width:1.0;"/><path d="M1683.2572,79.5469 L1680.804,73.7813 L1681.1322,73.7813 C1681.5384,73.7813 1681.6947,73.75 1681.8353,73.6719 C1682.1009,73.5156 1682.2415,73.2344 1682.2415,72.9375 C1682.2415,72.6719 1682.1165,72.4063 1681.9134,72.2344 C1681.7415,72.125 1681.5697,72.0938 1681.1322,72.0938 L1678.8665,72.0938 C1678.429,72.0938 1678.304,72.1094 1678.1478,72.2031 C1677.8978,72.3594 1677.7415,72.6563 1677.7415,72.9375 C1677.7415,73.2813 1677.9759,73.625 1678.2728,73.7188 C1678.429,73.7656 1678.554,73.7813 1678.8978,73.7813 L1682.3353,82 L1684.0228,82 L1687.5072,73.7813 C1687.8665,73.7813 1687.9759,73.7656 1688.1322,73.7188 C1688.4134,73.625 1688.6634,73.2813 1688.6634,72.9375 C1688.6634,72.6719 1688.5228,72.4063 1688.304,72.2344 C1688.1478,72.125 1687.9759,72.0938 1687.5384,72.0938 L1685.2884,72.0938 C1684.8509,72.0938 1684.7259,72.1094 1684.5853,72.2031 C1684.3197,72.3594 1684.1634,72.6563 1684.1634,72.9375 C1684.1634,73.2188 1684.304,73.4688 1684.5072,73.6406 C1684.6947,73.75 1684.8353,73.7813 1685.2884,73.7813 L1685.6947,73.7813 L1683.2572,79.5469 Z " fill="#000000"/><text fill="#000000" font-family="sans-serif" font-size="12" lengthAdjust="spacing" textLength="73" x="1697.1009" y="80.1543">RegisterReq</text><line style="stroke:#A80036;stroke-width:1.5;" x1="1669.1009" x2="1772.1009" y1="92" y2="92"/><ellipse cx="1679.1009" cy="103" rx="3" ry="3" style="stroke:#038048;stroke-width:1.0;fill:none;"/><text fill="#000000" font-family="sans-serif" font-size="11" lengthAdjust="spacing" textLength="72" x="1688.1009" y="106.2104">Name: string</text><ellipse cx="1679.1009" cy="115.8047" rx="3" ry="3" style="stroke:#038048;stroke-width:1.0;fill:none;"/><text fill="#000000" font-family="sans-serif" font-size="11" lengthAdjust="spacing" textLength="69" x="1688.1009" y="119.0151">Email: string</text><line style="stroke:#A80036;stroke-width:1.5;" x1="1669.1009" x2="1772.1009" y1="125.6094" y2="125.6094"/><!--MD5=[46e8d83dcf6d043a13ba28150ebc956e]
class handler.User--><rect codeLine="106" fill="#FEFECE" filter="url(#ffer6krfxwkzi)" height="73.6094" id="handler.User" style="stroke:#A80036;stroke-width:1.5;" width="100" x="1484.6009" y="265.5"/><ellipse cx="1517.1509" cy="281.5" fill="#DA70D6" rx="11" ry="11" style="stroke:#A80036;stroke-width:1.0;"/><path d="M1517.3072,285.0469 L1514.854,279.2813 L1515.1822,279.2813 C1515.5884,279.2813 1515.7447,279.25 1515.8853,279.1719 C1516.1509,279.0156 1516.2915,278.7344 1516.2915,278.4375 C1516.2915,278.1719 1516.1665,277.9063 1515.9634,277.7344 C1515.7915,277.625 1515.6197,277.5938 1515.1822,277.5938 L1512.9165,277.5938 C1512.479,277.5938 1512.354,277.6094 1512.1978,277.7031 C1511.9478,277.8594 1511.7915,278.1563 1511.7915,278.4375 C1511.7915,278.7813 1512.0259,279.125 1512.3228,279.2188 C1512.479,279.2656 1512.604,279.2813 1512.9478,279.2813 L1516.3853,287.5 L1518.0728,287.5 L1521.5572,279.2813 C1521.9165,279.2813 1522.0259,279.2656 1522.1822,279.2188 C1522.4634,279.125 1522.7134,278.7813 1522.7134,278.4375 C1522.7134,278.1719 1522.5728,277.9063 1522.354,277.7344 C1522.1978,277.625 1522.0259,277.5938 1521.5884,277.5938 L1519.3384,277.5938 C1518.9009,277.5938 1518.7759,277.6094 1518.6353,277.7031 C1518.3697,277.8594 1518.2134,278.1563 1518.2134,278.4375 C1518.2134,278.7188 1518.354,278.9688 1518.5572,279.1406 C1518.7447,279.25 1518.8853,279.2813 1519.3384,279.2813 L1519.7447,279.2813 L1517.3072,285.0469 Z " fill="#000000"/><text fill="#000000" font-family="sans-serif" font-size="12" lengthAdjust="spacing" textLength="29" x="1535.0509" y="285.6543">User</text><line style="stroke:#A80036;stroke-width:1.5;" x1="1485.6009" x2="1583.6009" y1="297.5" y2="297.5"/><ellipse cx="1495.6009" cy="308.5" rx="3" ry="3" style="stroke:#038048;stroke-width:1.0;fill:none;"/><text fill="#000000" font-family="sans-serif" font-size="11" lengthAdjust="spacing" textLength="74" x="1504.6009" y="311.7104">ID: uuid.UUID</text><ellipse cx="1495.6009" cy="321.3047" rx="3" ry="3" style="stroke:#038048;stroke-width:1.0;fill:none;"/><text fill="#000000" font-family="sans-serif" font-size="11" lengthAdjust="spacing" textLength="72" x="1504.6009" y="324.5151">Name: string</text><line style="stroke:#A80036;stroke-width:1.5;" x1="1485.6009" x2="1583.6009" y1="331.1094" y2="331.1094"/><!--MD5=[56c5a7d3320a76ff05592e37dbc7ae89]
class handler.UserDetail--><rect codeLine="115" fill="#FEFECE" filter="url(#ffer6krfxwkzi)" height="73.6094" id="handler.UserDetail" style="stroke:#A80036;stroke-width:1.5;" width="131" x="1485.1009" y="60"/><ellipse cx="1516.3009" cy="76" fill="#DA70D6" rx="11" ry="11" style="stroke:#A80036;stroke-width:1.0;"/><path d="M1516.4572,79.5469 L1514.004,73.7813 L1514.3322,73.7813 C1514.7384,73.7813 1514.8947,73.75 1515.0353,73.6719 C1515.3009,73.5156 1515.4415,73.2344 1515.4415,72.9375 C1515.4415,72.6719 1515.3165,72.4063 1515.1134,72.2344 C1514.9415,72.125 1514.7697,72.0938 1514.3322,72.0938 L1512.0665,72.0938 C1511.629,72.0938 1511.504,72.1094 1511.3478,72.2031 C1511.0978,72.3594 1510.9415,72.6563 1510.9415,72.9375 C1510.9415,73.2813 1511.1759,73.625 1511.4728,73.7188 C1511.629,73.7656 1511.754,73.7813 1512.0978,73.7813 L1515.5353,82 L1517.2228,82 L1520.7072,73.7813 C1521.0665,73.7813 1521.1759,73.7656 1521.3322,73.7188 C1521.6134,73.625 1521.8634,73.2813 1521.8634,72.9375 C1521.8634,72.6719 1521.7228,72.4063 1521.504,72.2344 C1521.3478,72.125 1521.1759,72.0938 1520.7384,72.0938 L1518.4884,72.0938 C1518.0509,72.0938 1517.9259,72.1094 1517.7853,72.2031 C1517.5197,72.3594 1517.3634,72.6563 1517.3634,72.9375 C1517.3634,73.2188 1517.504,73.4688 1517.7072,73.6406 C1517.8947,73.75 1518.0353,73.7813 1518.4884,73.7813 L1518.8947,73.7813 L1516.4572,79.5469 Z " fill="#000000"/><text fill="#000000" font-family="sans-serif" font-size="12" lengthAdjust="spacing" textLength="63" x="1533.9009" y="80.1543">UserDetail</text><line style="stroke:#A80036;stroke-width:1.5;" x1="1486.1009" x2="1615.1009" y1="92" y2="92"/><ellipse cx="1496.1009" cy="103" rx="3" ry="3" style="stroke:#038048;stroke-width:1.0;fill:none;"/><text fill="#000000" font-family="sans-serif" font-size="11" lengthAdjust="spacing" textLength="105" x="1505.1009" y="106.2104">User: handler.User</text><ellipse cx="1496.1009" cy="115.8047" rx="3" ry="3" style="stroke:#038048;stroke-width:1.0;fill:none;"/><text fill="#000000" font-family="sans-serif" font-size="11" lengthAdjust="spacing" textLength="69" x="1505.1009" y="119.0151">Email: string</text><line style="stroke:#A80036;stroke-width:1.5;" x1="1486.1009" x2="1615.1009" y1="125.6094" y2="125.6094"/><!--MD5=[fc453b763f9afe366c9b2873af50dbfd]
class infrastructure.SQLHandler--><rect codeLine="136" fill="#FEFECE" filter="url(#ffer6krfxwkzi)" height="112.0234" id="infrastructure.SQLHandler" style="stroke:#A80036;stroke-width:1.5;" width="400" x="773.5959" y="41"/><ellipse cx="933.8459" cy="57" fill="#FFCC00" rx="11" ry="11" style="stroke:#A80036;stroke-width:1.0;"/><path d="M932.6428,57.875 L934.0959,57.875 L934.0959,57.9844 C934.0959,58.3906 934.1271,58.5469 934.2053,58.7031 C934.3615,58.9531 934.6428,59.1094 934.9396,59.1094 C935.1896,59.1094 935.4553,58.9688 935.6115,58.75 C935.7365,58.5938 935.7678,58.4375 935.7678,57.9844 L935.7678,56.0625 C935.7678,55.9063 935.7678,55.8594 935.7521,55.7031 C935.6896,55.2344 935.3771,54.9219 934.924,54.9219 C934.674,54.9219 934.4084,55.0625 934.2365,55.2813 C934.1271,55.4531 934.0959,55.6094 934.0959,56.0625 L934.0959,56.1875 L932.6428,56.1875 L932.6428,53.7813 L936.6271,53.7813 L936.6271,54.6406 C936.6271,55.0469 936.6584,55.2188 936.7365,55.375 C936.9084,55.625 937.1896,55.7813 937.4709,55.7813 C937.7365,55.7813 938.0021,55.6406 938.174,55.4219 C938.2834,55.25 938.3146,55.1094 938.3146,54.6406 L938.3146,52.0938 L930.6896,52.0938 C930.2521,52.0938 930.1271,52.1094 929.9709,52.2031 C929.7209,52.3594 929.5646,52.6563 929.5646,52.9375 C929.5646,53.2188 929.7053,53.4688 929.924,53.6406 C930.0803,53.75 930.2678,53.7813 930.6896,53.7813 L930.9396,53.7813 L930.9396,60.2969 L930.6896,60.2969 C930.2834,60.2969 930.1271,60.3125 929.9709,60.4219 C929.7209,60.5938 929.5646,60.8594 929.5646,61.1563 C929.5646,61.4219 929.7053,61.6719 929.924,61.8281 C930.0646,61.9531 930.299,62 930.6896,62 L938.6896,62 L938.6896,59.4219 C938.6896,58.9844 938.6584,58.8438 938.5803,58.6875 C938.4084,58.4375 938.1271,58.2813 937.8459,58.2813 C937.5803,58.2813 937.3146,58.3906 937.1428,58.6406 C937.0334,58.7969 937.0021,58.9375 937.0021,59.4219 L937.0021,60.2969 L932.6428,60.2969 L932.6428,57.875 Z " fill="#000000"/><text fill="#000000" font-family="sans-serif" font-size="12" lengthAdjust="spacing" textLength="71" x="954.3459" y="61.1543">SQLHandler</text><line style="stroke:#A80036;stroke-width:1.5;" x1="774.5959" x2="1172.5959" y1="73" y2="73"/><rect fill="none" height="6" style="stroke:#C82930;stroke-width:1.0;" width="6" x="781.5959" y="81"/><text fill="#000000" font-family="sans-serif" font-size="11" lengthAdjust="spacing" textLength="83" x="793.5959" y="87.2104">conn: gorm.DB</text><line style="stroke:#A80036;stroke-width:1.5;" x1="774.5959" x2="1172.5959" y1="93.8047" y2="93.8047"/><ellipse cx="784.5959" cy="104.8047" fill="#84BE84" rx="3" ry="3" style="stroke:#038048;stroke-width:1.0;"/><text fill="#000000" font-family="sans-serif" font-size="11" lengthAdjust="spacing" textLength="374" x="793.5959" y="108.0151">Find(out: interface{}, where: []interface{}): database.SQLHandler</text><ellipse cx="784.5959" cy="117.6094" fill="#84BE84" rx="3" ry="3" style="stroke:#038048;stroke-width:1.0;"/><text fill="#000000" font-family="sans-serif" font-size="11" lengthAdjust="spacing" textLength="374" x="793.5959" y="120.8198">First(out: interface{}, where: []interface{}): database.SQLHandler</text><ellipse cx="784.5959" cy="130.4141" fill="#84BE84" rx="3" ry="3" style="stroke:#038048;stroke-width:1.0;"/><text fill="#000000" font-family="sans-serif" font-size="11" lengthAdjust="spacing" textLength="281" x="793.5959" y="133.6245">Create(value: interface{}): database.SQLHandler</text><ellipse cx="784.5959" cy="143.2188" fill="#84BE84" rx="3" ry="3" style="stroke:#038048;stroke-width:1.0;"/><text fill="#000000" font-family="sans-serif" font-size="11" lengthAdjust="spacing" textLength="68" x="793.5959" y="146.4292">Error(): error</text><!--MD5=[17b9ce48601acaa48748402a31418eab]
class infrastructure.sqlConfig--><rect codeLine="151" fill="#FEFECE" filter="url(#ffer6krfxwkzi)" height="112.0234" id="infrastructure.sqlConfig" style="stroke:#A80036;stroke-width:1.5;" width="90" x="648.5959" y="41"/><ellipse cx="664.4959" cy="57" fill="#DA70D6" rx="11" ry="11" style="stroke:#A80036;stroke-width:1.0;"/><path d="M664.6521,60.5469 L662.199,54.7813 L662.5271,54.7813 C662.9334,54.7813 663.0896,54.75 663.2303,54.6719 C663.4959,54.5156 663.6365,54.2344 663.6365,53.9375 C663.6365,53.6719 663.5115,53.4063 663.3084,53.2344 C663.1365,53.125 662.9646,53.0938 662.5271,53.0938 L660.2615,53.0938 C659.824,53.0938 659.699,53.1094 659.5428,53.2031 C659.2928,53.3594 659.1365,53.6563 659.1365,53.9375 C659.1365,54.2813 659.3709,54.625 659.6678,54.7188 C659.824,54.7656 659.949,54.7813 660.2928,54.7813 L663.7303,63 L665.4178,63 L668.9021,54.7813 C669.2615,54.7813 669.3709,54.7656 669.5271,54.7188 C669.8084,54.625 670.0584,54.2813 670.0584,53.9375 C670.0584,53.6719 669.9178,53.4063 669.699,53.2344 C669.5428,53.125 669.3709,53.0938 668.9334,53.0938 L666.6834,53.0938 C666.2459,53.0938 666.1209,53.1094 665.9803,53.2031 C665.7146,53.3594 665.5584,53.6563 665.5584,53.9375 C665.5584,54.2188 665.699,54.4688 665.9021,54.6406 C666.0896,54.75 666.2303,54.7813 666.6834,54.7813 L667.0896,54.7813 L664.6521,60.5469 Z " fill="#000000"/><text fill="#000000" font-family="sans-serif" font-size="12" lengthAdjust="spacing" textLength="56" x="678.6959" y="61.1543">sqlConfig</text><line style="stroke:#A80036;stroke-width:1.5;" x1="649.5959" x2="737.5959" y1="73" y2="73"/><rect fill="none" height="6" style="stroke:#C82930;stroke-width:1.0;" width="6" x="656.5959" y="81"/><text fill="#000000" font-family="sans-serif" font-size="11" lengthAdjust="spacing" textLength="63" x="668.5959" y="87.2104">user: string</text><rect fill="none" height="6" style="stroke:#C82930;stroke-width:1.0;" width="6" x="656.5959" y="93.8047"/><text fill="#000000" font-family="sans-serif" font-size="11" lengthAdjust="spacing" textLength="64" x="668.5959" y="100.0151">pass: string</text><rect fill="none" height="6" style="stroke:#C82930;stroke-width:1.0;" width="6" x="656.5959" y="106.6094"/><text fill="#000000" font-family="sans-serif" font-size="11" lengthAdjust="spacing" textLength="62" x="668.5959" y="112.8198">host: string</text><rect fill="none" height="6" style="stroke:#C82930;stroke-width:1.0;" width="6" x="656.5959" y="119.4141"/><text fill="#000000" font-family="sans-serif" font-size="11" lengthAdjust="spacing" textLength="60" x="668.5959" y="125.6245">port: string</text><rect fill="none" height="6" style="stroke:#C82930;stroke-width:1.0;" width="6" x="656.5959" y="132.2188"/><text fill="#000000" font-family="sans-serif" font-size="11" lengthAdjust="spacing" textLength="52" x="668.5959" y="138.4292">db: string</text><line style="stroke:#A80036;stroke-width:1.5;" x1="649.5959" x2="737.5959" y1="145.0234" y2="145.0234"/><!--MD5=[0b74687a7ff082dcb030b6545c563bec]
link repository.UserRepository to model.User--><path codeLine="20" d="M404.0319,538.031 C429.0839,557.187 460.5749,578.815 491.5959,593.5 C503.6809,599.221 508.4399,595.932 520.5959,601.5 C545.8109,613.048 571.6079,629.338 593.3089,644.571 " fill="none" id="repository.UserRepository-to-model.User" style="stroke:#A80036;stroke-width:1.0;stroke-dasharray:7.0,7.0;"/><polygon fill="#A80036" points="597.5929,647.602,592.5554,639.1389,593.511,644.7145,587.9354,645.67,597.5929,647.602" style="stroke:#A80036;stroke-width:1.0;"/><text fill="#000000" font-family="sans-serif" font-size="13" lengthAdjust="spacing" textLength="55" x="492.5959" y="589.5669">«return»</text><!--MD5=[cccd9b13c27979a5a19c6d5fd5897786]
link repository.UserRepository to repository.RegisteredUser--><path codeLine="21" d="M329.7519,538.081 C323.2009,550.305 316.3279,563.79 310.5959,576.5 C301.4429,596.796 292.6349,619.8 285.5449,639.507 " fill="none" id="repository.UserRepository-to-repository.RegisteredUser" style="stroke:#A80036;stroke-width:1.0;stroke-dasharray:7.0,7.0;"/><polygon fill="#A80036" points="283.7809,644.442,290.5785,637.3151,285.4649,639.7341,283.0459,634.6206,283.7809,644.442" style="stroke:#A80036;stroke-width:1.0;"/><text fill="#000000" font-family="sans-serif" font-size="13" lengthAdjust="spacing" textLength="39" x="311.5959" y="589.5669">«use»</text><!--MD5=[52f02d346c6b09d4c5c6c21da57432cb]
link usecase.UserService to model.User--><path codeLine="32" d="M427.1269,140.118 C457.2689,159.292 491.3889,183.599 518.5959,210 C596.9429,286.027 628.9599,305.139 662.5959,409 C687.7759,486.749 673.0669,583.102 660.2319,639.399 " fill="none" id="usecase.UserService-to-model.User" style="stroke:#A80036;stroke-width:1.0;stroke-dasharray:7.0,7.0;"/><polygon fill="#A80036" points="659.0759,644.386,665.0044,636.5214,660.2047,639.5151,657.211,634.7153,659.0759,644.386" style="stroke:#A80036;stroke-width:1.0;"/><text fill="#000000" font-family="sans-serif" font-size="13" lengthAdjust="spacing" textLength="55" x="660.5959" y="397.0669">«return»</text><!--MD5=[bc8e95455000533ef697b31ec9738a6a]
link usecase.UserService to repository.RegisteredUser--><path codeLine="33" d="M274.5119,140.118 C244.9059,158.664 212.6549,182.517 188.5959,210 C131.6466,275.056 121.4607,299.852 101.5959,384 C89.265,436.235 6,354.672 112.5959,568.5 C131.2312,605.882 167.9809,634.507 201.2429,654.197 " fill="none" id="usecase.UserService-to-repository.RegisteredUser" style="stroke:#A80036;stroke-width:1.0;stroke-dasharray:7.0,7.0;"/><polygon fill="#A80036" points="205.6999,656.795,199.9394,648.8065,201.3804,654.2767,195.9101,655.7177,205.6999,656.795" style="stroke:#A80036;stroke-width:1.0;"/><text fill="#000000" font-family="sans-serif" font-size="13" lengthAdjust="spacing" textLength="39" x="102.5959" y="397.0669">«use»</text><!--MD5=[28651a37f7271240892e7cc859b883a0]
link usecase.userService to repository.UserRepository--><path codeLine="44" d="M353.5959,352.064 C353.5959,381.121 353.5959,417.88 353.5959,446.708 " fill="none" id="usecase.userService-to-repository.UserRepository" style="stroke:#A80036;stroke-width:1.0;"/><polygon fill="#A80036" points="353.5959,451.995,357.5959,442.995,353.5959,446.995,349.5959,442.995,353.5959,451.995" style="stroke:#A80036;stroke-width:1.0;"/><!--MD5=[27c7ffea6672060aab43c565de4e03af]
link usecase.userService to model.User--><path codeLine="46" d="M451.4769,352.178 C476.2649,367.825 501.2999,386.923 520.5959,409 C552.3479,445.328 603.2019,570.422 629.9059,639.591 " fill="none" id="usecase.userService-to-model.User" style="stroke:#A80036;stroke-width:1.0;stroke-dasharray:7.0,7.0;"/><polygon fill="#A80036" points="631.7869,644.472,632.2846,634.6357,629.9897,639.8062,624.8193,637.5112,631.7869,644.472" style="stroke:#A80036;stroke-width:1.0;"/><text fill="#000000" font-family="sans-serif" font-size="13" lengthAdjust="spacing" textLength="55" x="602.5959" y="499.5669">«return»</text><!--MD5=[13de35523f73bcab3d66c4bd5900eb3c]
link usecase.userService to repository.RegisteredUser--><path codeLine="47" d="M206.0169,351.589 C181.5719,366.171 159.4009,384.942 144.5959,409 C107.4427,469.373 116.5277,503.405 144.5959,568.5 C156.8273,596.867 179.6039,621.586 202.3979,640.97 " fill="none" id="usecase.userService-to-repository.RegisteredUser" style="stroke:#A80036;stroke-width:1.0;stroke-dasharray:7.0,7.0;"/><polygon fill="#A80036" points="206.3529,644.28,202.0197,635.4356,202.5191,641.0704,196.8843,641.5697,206.3529,644.28" style="stroke:#A80036;stroke-width:1.0;"/><text fill="#000000" font-family="sans-serif" font-size="13" lengthAdjust="spacing" textLength="39" x="145.5959" y="499.5669">«use»</text><!--MD5=[bd7b98cca169a938dc80f901419524e9]
link database.SQLHandler to database.SQLHandler--><path codeLine="59" d="M1173.7409,297.821 C1194.9709,298.729 1208.6009,300.288 1208.6009,302.5 C1208.6009,304.522 1197.2109,305.999 1179.0409,306.93 " fill="none" id="database.SQLHandler-to-database.SQLHandler" style="stroke:#A80036;stroke-width:1.0;stroke-dasharray:7.0,7.0;"/><polygon fill="#A80036" points="1173.7409,307.179,1182.9144,310.7633,1178.7357,306.9504,1182.5486,302.7717,1173.7409,307.179" style="stroke:#A80036;stroke-width:1.0;"/><text fill="#000000" font-family="sans-serif" font-size="13" lengthAdjust="spacing" textLength="55" x="1214.6009" y="307.0669">«return»</text><!--MD5=[bd7b98cca169a938dc80f901419524e9]
link database.SQLHandler to database.SQLHandler--><path codeLine="60" d="M1173.9109,291.326 C1230.9309,291.89 1275.6009,295.615 1275.6009,302.5 C1275.6009,309.17 1233.6809,312.874 1179.2209,313.612 " fill="none" id="database.SQLHandler-to-database.SQLHandler-1" style="stroke:#A80036;stroke-width:1.0;stroke-dasharray:7.0,7.0;"/><polygon fill="#A80036" points="1173.9109,313.674,1182.956,317.5709,1178.9106,313.6169,1182.8646,309.5714,1173.9109,313.674" style="stroke:#A80036;stroke-width:1.0;"/><text fill="#000000" font-family="sans-serif" font-size="13" lengthAdjust="spacing" textLength="55" x="1281.6009" y="307.0669">«return»</text><!--MD5=[bd7b98cca169a938dc80f901419524e9]
link database.SQLHandler to database.SQLHandler--><path codeLine="61" d="M1174.0409,285.767 C1262.9309,284.64 1342.6009,290.217 1342.6009,302.5 C1342.6009,314.543 1266.0109,320.14 1179.2309,319.291 " fill="none" id="database.SQLHandler-to-database.SQLHandler-2" style="stroke:#A80036;stroke-width:1.0;stroke-dasharray:7.0,7.0;"/><polygon fill="#A80036" points="1174.0409,319.233,1183.0063,323.31,1179.0407,319.2759,1183.0749,315.3103,1174.0409,319.233" style="stroke:#A80036;stroke-width:1.0;"/><text fill="#000000" font-family="sans-serif" font-size="13" lengthAdjust="spacing" textLength="55" x="1348.6009" y="307.0669">«return»</text><!--MD5=[d0a2bae0efd9e4ac6ec17d201d259190]
link database.UserRepository to database.SQLHandler--><path codeLine="72" d="M956.5459,445.194 C963.9969,418.276 970.9579,384.807 974.8949,357.156 " fill="none" id="database.UserRepository-to-database.SQLHandler" style="stroke:#A80036;stroke-width:1.0;"/><polygon fill="#A80036" points="975.5949,352.064,970.4059,360.435,974.9136,357.0174,978.3312,361.5251,975.5949,352.064" style="stroke:#A80036;stroke-width:1.0;"/><!--MD5=[3cfb9aee143f42e83822ee5cf3345d59]
reverse link database.SQLHandler to database.UserRepository--><path codeLine="173" d="M947.3489,371.713 C941.5139,396.005 936.3459,422.856 933.2939,445.194 " fill="none" id="database.SQLHandler-backto-database.UserRepository" style="stroke:#A80036;stroke-width:1.0;"/><polygon fill="none" points="940.6369,369.705,952.3759,352.064,954.1999,373.175,940.6369,369.705" style="stroke:#A80036;stroke-width:1.0;"/><!--MD5=[a661640fa027c50e3ef86680dec076f1]
link database.UserRepository to model.User--><path codeLine="74" d="M897.4589,544.634 C882.8889,561.56 865.2029,579.737 846.5959,593.5 C802.1659,626.364 744.2699,651.822 702.3899,667.728 " fill="none" id="database.UserRepository-to-model.User" style="stroke:#A80036;stroke-width:1.0;stroke-dasharray:7.0,7.0;"/><polygon fill="#A80036" points="697.6209,669.5243,707.4531,670.0971,702.3003,667.7628,704.6346,662.61,697.6209,669.5243" style="stroke:#A80036;stroke-width:1.0;"/><text fill="#000000" font-family="sans-serif" font-size="13" lengthAdjust="spacing" textLength="55" x="867.5959" y="589.5669">«return»</text><!--MD5=[bd7fb877f8bbc5adac4a485fb124a8b1]
link database.UserRepository to repository.RegisteredUser--><path codeLine="75" d="M787.0109,538.278 C647.2679,578.31 443.6289,636.645 338.3449,666.8058 " fill="none" id="database.UserRepository-to-repository.RegisteredUser" style="stroke:#A80036;stroke-width:1.0;stroke-dasharray:7.0,7.0;"/><polygon fill="#A80036" points="333.4059,668.2206,343.1595,669.5871,338.2125,666.8435,340.9561,661.8965,333.4059,668.2206" style="stroke:#A80036;stroke-width:1.0;"/><text fill="#000000" font-family="sans-serif" font-size="13" lengthAdjust="spacing" textLength="39" x="643.5959" y="589.5669">«use»</text><!--MD5=[2de5fb1df29feec12da7bc14b3950b89]
link handler.API to handler.PingHandler--><path codeLine="84" d="M1870.9509,134.382 C1832.8309,172.216 1773.6509,230.962 1736.5709,267.778 " fill="none" id="handler.API-to-handler.PingHandler" style="stroke:#A80036;stroke-width:1.0;"/><polygon fill="#A80036" points="1732.6009,271.714,1741.8103,268.2231,1736.1536,268.1957,1736.181,262.5389,1732.6009,271.714" style="stroke:#A80036;stroke-width:1.0;"/><!--MD5=[17265d0630d89584ed9ef6005af90399]
link handler.API to handler.UserHandler--><path codeLine="85" d="M1909.2009,134.382 C1910.6009,165.873 1912.6309,211.85 1914.2109,247.612 " fill="none" id="handler.API-to-handler.UserHandler" style="stroke:#A80036;stroke-width:1.0;"/><polygon fill="#A80036" points="1914.4409,252.811,1918.0414,243.6439,1914.2211,247.8158,1910.0491,243.9955,1914.4409,252.811" style="stroke:#A80036;stroke-width:1.0;"/><!--MD5=[1774cb7fd2d825d075b855e4eb2dc6f7]
link handler.UserDetail to handler.User--><path codeLine="121" d="M1547.7309,134.382 C1544.9609,169.686 1540.7509,223.199 1537.8509,260.112 " fill="none" id="handler.UserDetail-to-handler.User" style="stroke:#A80036;stroke-width:1.0;"/><polygon fill="#A80036" points="1537.4309,265.433,1542.1255,256.775,1537.8237,260.4485,1534.1502,256.1466,1537.4309,265.433" style="stroke:#A80036;stroke-width:1.0;"/><!--MD5=[6ef36fddf894346a5b1be8ef24c2cda4]
link infrastructure.SQLHandler to database.SQLHandler--><path codeLine="146" d="M971.4049,153.221 C971.0679,163.77 970.7729,174.725 970.5959,185 C970.2439,205.427 970.6359,227.865 971.2409,247.549 " fill="none" id="infrastructure.SQLHandler-to-database.SQLHandler" style="stroke:#A80036;stroke-width:1.0;stroke-dasharray:7.0,7.0;"/><polygon fill="#A80036" points="971.4069,252.757,975.1168,243.6336,971.2469,247.7596,967.1209,243.8896,971.4069,252.757" style="stroke:#A80036;stroke-width:1.0;"/><text fill="#000000" font-family="sans-serif" font-size="13" lengthAdjust="spacing" textLength="55" x="971.5959" y="198.0669">«return»</text><!--MD5=[6ef36fddf894346a5b1be8ef24c2cda4]
link infrastructure.SQLHandler to database.SQLHandler--><path codeLine="147" d="M1017.1359,153.123 C1023.0859,163.227 1028.2819,174.054 1031.5959,185 C1038.1389,206.612 1030.7339,229.105 1019.2739,248.497 " fill="none" id="infrastructure.SQLHandler-to-database.SQLHandler-1" style="stroke:#A80036;stroke-width:1.0;stroke-dasharray:7.0,7.0;"/><polygon fill="#A80036" points="1016.6079,252.842,1024.7229,247.261,1019.2218,248.5797,1017.9032,243.0787,1016.6079,252.842" style="stroke:#A80036;stroke-width:1.0;"/><text fill="#000000" font-family="sans-serif" font-size="13" lengthAdjust="spacing" textLength="55" x="1035.5959" y="198.0669">«return»</text><!--MD5=[6ef36fddf894346a5b1be8ef24c2cda4]
link infrastructure.SQLHandler to database.SQLHandler--><path codeLine="148" d="M914.9889,153.128 C905.5349,168.151 900.3409,184.996 905.5959,202 C910.6349,218.304 919.3659,234.32 928.9239,248.575 " fill="none" id="infrastructure.SQLHandler-to-database.SQLHandler-2" style="stroke:#A80036;stroke-width:1.0;stroke-dasharray:7.0,7.0;"/><polygon fill="#A80036" points="931.9139,252.941,930.1284,243.2553,929.0885,248.8158,923.5281,247.7759,931.9139,252.941" style="stroke:#A80036;stroke-width:1.0;"/><text fill="#000000" font-family="sans-serif" font-size="13" lengthAdjust="spacing" textLength="55" x="906.5959" y="198.0669">«return»</text><!--MD5=[74a081f0e6547e4a733c83b84e2d7399]
reverse link usecase.UserService to usecase.userService--><path codeLine="172" d="M353.5959,160.253 C353.5959,190.042 353.5959,225.179 353.5959,252.955 " fill="none" id="usecase.UserService-backto-usecase.userService" style="stroke:#A80036;stroke-width:1.0;"/><polygon fill="none" points="346.5959,160.165,353.5959,140.165,360.5959,160.165,346.5959,160.165" style="stroke:#A80036;stroke-width:1.0;"/><!--MD5=[7eb806f22bf1afeb09cb878d1ab82bd8]
@startuml
package "repository" {
	class "RegisteredUser" as repository.RegisteredUser <<V,Orchid>> {
		+ID: uuid.UUID
		+Name: string
		+Email: string
	}
}



package "repository" {
	interface "UserRepository" as repository.UserRepository {
		+FindAll(): (model.User, error)
		+FindByID(id: uuid.UUID): (model.User, error)
		+Register(user: *repository.RegisteredUser): error
	}
}


	repository.UserRepository ..> model.User : <<return>> 
	repository.UserRepository ..> repository.RegisteredUser : <<use>> 

package "usecase" {
	interface "UserService" as usecase.UserService {
		+GetAll(): (model.User, error)
		+GetByID(id: uuid.UUID): (model.User, error)
		+Register(user: repository.RegisteredUser): error
	}
}


	usecase.UserService ..> model.User : <<return>> 
	usecase.UserService ..> repository.RegisteredUser : <<use>> 

package "usecase" {
	class "userService" as usecase.userService <<E,#FFCC00>> {
		-repo: repository.UserRepository
		+GetAll(): (model.User, error)
		+GetByID(id: uuid.UUID): (model.User, error)
		+Register(user: repository.RegisteredUser): error
	}
}

	usecase.userService - -> repository.UserRepository

	usecase.userService ..> model.User : <<return>> 
	usecase.userService ..> repository.RegisteredUser : <<use>> 

package "database" {
	interface "SQLHandler" as database.SQLHandler {
		+Create(value: interface{}): database.SQLHandler
		+Error(): error
		+Find(out: interface{}, where: []interface{}): database.SQLHandler
		+First(out: interface{}, where: []interface{}): database.SQLHandler
	}
}


	database.SQLHandler ..> database.SQLHandler : <<return>> 
	database.SQLHandler ..> database.SQLHandler : <<return>> 
	database.SQLHandler ..> database.SQLHandler : <<return>> 

package "database" {
	class "UserRepository" as database.UserRepository <<E,#FFCC00>> {
		+SQLHandler: database.SQLHandler
		+FindAll(): (model.User, error)
		+FindByID(id: uuid.UUID): (model.User, error)
		+Register(user: repository.RegisteredUser): error
	}
}

	database.UserRepository - -> database.SQLHandler

	database.UserRepository ..> model.User : <<return>> 
	database.UserRepository ..> repository.RegisteredUser : <<use>> 

package "handler" {
	class "API" as handler.API <<V,Orchid>> {
		+Ping: *handler.PingHandler
		+User: *handler.UserHandler
	}
}

	handler.API - -> handler.PingHandler
	handler.API - -> handler.UserHandler


package "handler" {
	class "PingHandler" as handler.PingHandler <<E,#FFCC00>> {
		+Ping(c: v4.Context): error
	}
}



package "handler" {
	class "RegisterReq" as handler.RegisterReq <<V,Orchid>> {
		+Name: string
		+Email: string
	}
}



package "handler" {
	class "User" as handler.User <<V,Orchid>> {
		+ID: uuid.UUID
		+Name: string
	}
}



package "handler" {
	class "UserDetail" as handler.UserDetail <<V,Orchid>> {
		+User: handler.User
		+Email: string
	}
}

	handler.UserDetail - -> handler.User


package "handler" {
	class "UserHandler" as handler.UserHandler <<E,#FFCC00>> {
		-uc: 1_usecase.UserService
		+GetAll(c: v4.Context): error
		+GetByID(c: v4.Context): error
		+Register(c: v4.Context): error
	}
}



package "infrastructure" {
	class "SQLHandler" as infrastructure.SQLHandler <<E,#FFCC00>> {
		-conn: gorm.DB
		+Find(out: interface{}, where: []interface{}): database.SQLHandler
		+First(out: interface{}, where: []interface{}): database.SQLHandler
		+Create(value: interface{}): database.SQLHandler
		+Error(): error
	}
}


	infrastructure.SQLHandler ..> database.SQLHandler : <<return>> 
	infrastructure.SQLHandler ..> database.SQLHandler : <<return>> 
	infrastructure.SQLHandler ..> database.SQLHandler : <<return>> 

package "infrastructure" {
	class "sqlConfig" as infrastructure.sqlConfig <<V,Orchid>> {
		-user: string
		-pass: string
		-host: string
		-port: string
		-db: string
	}
}



package "model" {
	class "User" as model.User <<V,Orchid>> {
		+ID: uuid.UUID
		+Name: string
		+Email: string
	}
}



	usecase.userService -up-|> usecase.UserService
	database.UserRepository -up-|> database.SQLHandler
@enduml

PlantUML version 1.2021.10(Mon Aug 30 13:43:48 UTC 2021)
(GPL source distribution)
Java Runtime: Java(TM) SE Runtime Environment
JVM: Java HotSpot(TM) 64-Bit Server VM
Default Encoding: UTF-8
Language: en
Country: US
--></g></svg>