<?xml version="1.0" encoding="UTF-8" standalone="no"?><svg xmlns="http://www.w3.org/2000/svg" xmlns:xlink="http://www.w3.org/1999/xlink" contentScriptType="application/ecmascript" contentStyleType="text/css" height="1420px" preserveAspectRatio="none" style="width:1415px;height:1420px;background:#FFFFFF;" version="1.1" viewBox="0 0 1415 1420" width="1415px" zoomAndPan="magnify"><defs><filter height="300%" id="f1t41gpvt674rg" width="300%" x="-1" y="-1"><feGaussianBlur result="blurOut" stdDeviation="2.0"/><feColorMatrix in="blurOut" result="blurOut2" type="matrix" values="0 0 0 0 0 0 0 0 0 0 0 0 0 0 0 0 0 0 .4 0"/><feOffset dx="4.0" dy="4.0" in="blurOut2" result="blurOut3"/><feBlend in="SourceGraphic" in2="blurOut3" mode="normal"/></filter></defs><g><!--MD5=[5336d0432c5753478f8bb0248199b33b]
cluster handler--><polygon fill="#FFFFFF" filter="url(#f1t41gpvt674rg)" points="450.1135,6,517.1135,6,524.1135,28.2969,1377.1105,28.2969,1377.1105,640,450.1135,640,450.1135,6" style="stroke:#000000;stroke-width:1.5;"/><line style="stroke:#000000;stroke-width:1.5;" x1="450.1135" x2="524.1135" y1="28.2969" y2="28.2969"/><text fill="#000000" font-family="sans-serif" font-size="14" font-weight="bold" lengthAdjust="spacing" textLength="61" x="454.1135" y="20.9951">handler</text><!--MD5=[e87e603ccfa50601551ee5182e1669af]
cluster usecase--><polygon fill="#FFFFFF" filter="url(#f1t41gpvt674rg)" points="268.1135,686,339.1135,686,346.1135,708.2969,596.1135,708.2969,596.1135,1035,268.1135,1035,268.1135,686" style="stroke:#000000;stroke-width:1.5;"/><line style="stroke:#000000;stroke-width:1.5;" x1="268.1135" x2="346.1135" y1="708.2969" y2="708.2969"/><text fill="#000000" font-family="sans-serif" font-size="14" font-weight="bold" lengthAdjust="spacing" textLength="65" x="272.1135" y="700.9951">usecase</text><!--MD5=[77349be1bd27b81b697a0f9b3aded3c8]
cluster infrastructure--><polygon fill="#FFFFFF" filter="url(#f1t41gpvt674rg)" points="620.1135,673,742.1135,673,749.1135,695.2969,1352.1105,695.2969,1352.1105,836,620.1135,836,620.1135,673" style="stroke:#000000;stroke-width:1.5;"/><line style="stroke:#000000;stroke-width:1.5;" x1="620.1135" x2="749.1135" y1="695.2969" y2="695.2969"/><text fill="#000000" font-family="sans-serif" font-size="14" font-weight="bold" lengthAdjust="spacing" textLength="116" x="624.1135" y="687.9951">infrastructure</text><!--MD5=[db65ce44d5e360fb4ec835f941dc7573]
cluster database--><polygon fill="#FFFFFF" filter="url(#f1t41gpvt674rg)" points="711.1135,885,793.1135,885,800.1135,907.2969,1398.1105,907.2969,1398.1105,1227.5,711.1135,1227.5,711.1135,885" style="stroke:#000000;stroke-width:1.5;"/><line style="stroke:#000000;stroke-width:1.5;" x1="711.1135" x2="800.1135" y1="907.2969" y2="907.2969"/><text fill="#000000" font-family="sans-serif" font-size="14" font-weight="bold" lengthAdjust="spacing" textLength="76" x="715.1135" y="899.9951">database</text><!--MD5=[5d4cd377749310b66bf14896f5cd8d9b]
cluster model--><polygon fill="#FFFFFF" filter="url(#f1t41gpvt674rg)" points="538.1135,1276.5,593.1135,1276.5,600.1135,1298.7969,670.1135,1298.7969,670.1135,1413.5,538.1135,1413.5,538.1135,1276.5" style="stroke:#000000;stroke-width:1.5;"/><line style="stroke:#000000;stroke-width:1.5;" x1="538.1135" x2="600.1135" y1="1298.7969" y2="1298.7969"/><text fill="#000000" font-family="sans-serif" font-size="14" font-weight="bold" lengthAdjust="spacing" textLength="49" x="542.1135" y="1291.4951">model</text><!--MD5=[bd0bd4c41e0e5269e37474fd45a6abb7]
cluster repository--><polygon fill="#FFFFFF" filter="url(#f1t41gpvt674rg)" points="44.1135,1084,134.1135,1084,141.1135,1106.2969,378.1135,1106.2969,378.1135,1413.5,44.1135,1413.5,44.1135,1084" style="stroke:#000000;stroke-width:1.5;"/><line style="stroke:#000000;stroke-width:1.5;" x1="44.1135" x2="141.1135" y1="1106.2969" y2="1106.2969"/><text fill="#000000" font-family="sans-serif" font-size="14" font-weight="bold" lengthAdjust="spacing" textLength="84" x="48.1135" y="1098.9951">repository</text><!--MD5=[bcf52e06ae4da7928ae16e06f32df4d8]
class handler.API--><rect codeLine="2" fill="#FEFECE" filter="url(#f1t41gpvt674rg)" height="73.6094" id="handler.API" style="stroke:#A80036;stroke-width:1.5;" width="175" x="1015.6135" y="41"/><ellipse cx="1090.3635" cy="57" fill="#DA70D6" rx="11" ry="11" style="stroke:#A80036;stroke-width:1.0;"/><path d="M1090.5198,60.5469 L1088.0666,54.7813 L1088.3948,54.7813 C1088.801,54.7813 1088.9573,54.75 1089.0979,54.6719 C1089.3635,54.5156 1089.5041,54.2344 1089.5041,53.9375 C1089.5041,53.6719 1089.3791,53.4063 1089.176,53.2344 C1089.0041,53.125 1088.8323,53.0938 1088.3948,53.0938 L1086.1291,53.0938 C1085.6916,53.0938 1085.5666,53.1094 1085.4104,53.2031 C1085.1604,53.3594 1085.0041,53.6563 1085.0041,53.9375 C1085.0041,54.2813 1085.2385,54.625 1085.5354,54.7188 C1085.6916,54.7656 1085.8166,54.7813 1086.1604,54.7813 L1089.5979,63 L1091.2854,63 L1094.7698,54.7813 C1095.1291,54.7813 1095.2385,54.7656 1095.3948,54.7188 C1095.676,54.625 1095.926,54.2813 1095.926,53.9375 C1095.926,53.6719 1095.7854,53.4063 1095.5666,53.2344 C1095.4104,53.125 1095.2385,53.0938 1094.801,53.0938 L1092.551,53.0938 C1092.1135,53.0938 1091.9885,53.1094 1091.8479,53.2031 C1091.5823,53.3594 1091.426,53.6563 1091.426,53.9375 C1091.426,54.2188 1091.5666,54.4688 1091.7698,54.6406 C1091.9573,54.75 1092.0979,54.7813 1092.551,54.7813 L1092.9573,54.7813 L1090.5198,60.5469 Z " fill="#000000"/><text fill="#000000" font-family="sans-serif" font-size="12" lengthAdjust="spacing" textLength="17" x="1110.8635" y="61.1543">API</text><line style="stroke:#A80036;stroke-width:1.5;" x1="1016.6135" x2="1189.6135" y1="73" y2="73"/><ellipse cx="1026.6135" cy="84" rx="3" ry="3" style="stroke:#038048;stroke-width:1.0;fill:none;"/><text fill="#000000" font-family="sans-serif" font-size="11" lengthAdjust="spacing" textLength="143" x="1035.6135" y="87.2104">Ping: handler.PingHandler</text><ellipse cx="1026.6135" cy="96.8047" rx="3" ry="3" style="stroke:#038048;stroke-width:1.0;fill:none;"/><text fill="#000000" font-family="sans-serif" font-size="11" lengthAdjust="spacing" textLength="149" x="1035.6135" y="100.0151">User: handler.UserHandler</text><line style="stroke:#A80036;stroke-width:1.5;" x1="1016.6135" x2="1189.6135" y1="106.6094" y2="106.6094"/><!--MD5=[ec71536b7e37de4b5a6393cb3d214453]
class handler.PingHandler--><rect codeLine="26" fill="#FEFECE" filter="url(#f1t41gpvt674rg)" height="60.8047" id="handler.PingHandler" style="stroke:#A80036;stroke-width:1.5;" width="195" x="1054.6105" y="188.5"/><ellipse cx="1111.3605" cy="204.5" fill="#B4A7E5" rx="11" ry="11" style="stroke:#A80036;stroke-width:1.0;"/><path d="M1112.3136,201.2813 L1114.0324,201.2813 C1114.423,201.2813 1114.6105,201.25 1114.7355,201.1719 C1115.0011,201.0156 1115.1418,200.7344 1115.1418,200.4375 C1115.1418,200.1719 1115.0324,199.9063 1114.798,199.7344 C1114.6261,199.625 1114.4855,199.5938 1114.0324,199.5938 L1108.8918,199.5938 C1108.4543,199.5938 1108.3293,199.6094 1108.173,199.7031 C1107.923,199.8594 1107.7668,200.1563 1107.7668,200.4375 C1107.7668,200.7188 1107.9074,200.9688 1108.1261,201.1406 C1108.2824,201.25 1108.4699,201.2813 1108.8918,201.2813 L1110.6105,201.2813 L1110.6105,207.7969 L1108.8918,207.7969 C1108.4543,207.7969 1108.3293,207.8125 1108.173,207.9219 C1107.923,208.0781 1107.7668,208.3594 1107.7668,208.6563 C1107.7668,208.9063 1107.9074,209.1719 1108.1261,209.3281 C1108.2824,209.4531 1108.4855,209.5 1108.8918,209.5 L1114.0324,209.5 C1114.7824,209.5 1115.1418,209.2188 1115.1418,208.6563 C1115.1418,208.375 1115.0324,208.125 1114.798,207.9531 C1114.6261,207.8281 1114.4855,207.7969 1114.0324,207.7969 L1112.3136,207.7969 L1112.3136,201.2813 Z " fill="#000000"/><text fill="#000000" font-family="sans-serif" font-size="12" font-style="italic" lengthAdjust="spacing" textLength="73" x="1131.8605" y="208.6543">PingHandler</text><line style="stroke:#A80036;stroke-width:1.5;" x1="1055.6105" x2="1248.6105" y1="220.5" y2="220.5"/><line style="stroke:#A80036;stroke-width:1.5;" x1="1055.6105" x2="1248.6105" y1="228.5" y2="228.5"/><ellipse cx="1065.6105" cy="239.5" fill="#84BE84" rx="3" ry="3" style="stroke:#038048;stroke-width:1.0;"/><text fill="#000000" font-family="sans-serif" font-size="11" lengthAdjust="spacing" textLength="169" x="1074.6105" y="242.7104">Ping(c: handler.Context): error</text><!--MD5=[fe1cea9b5321ddcb3945da9c63130e75]
class handler.UserHandler--><rect codeLine="35" fill="#FEFECE" filter="url(#f1t41gpvt674rg)" height="86.4141" id="handler.UserHandler" style="stroke:#A80036;stroke-width:1.5;" width="220" x="757.1135" y="176"/><ellipse cx="825.8635" cy="192" fill="#B4A7E5" rx="11" ry="11" style="stroke:#A80036;stroke-width:1.0;"/><path d="M826.8166,188.7813 L828.5354,188.7813 C828.926,188.7813 829.1135,188.75 829.2385,188.6719 C829.5041,188.5156 829.6447,188.2344 829.6447,187.9375 C829.6447,187.6719 829.5354,187.4063 829.301,187.2344 C829.1291,187.125 828.9885,187.0938 828.5354,187.0938 L823.3947,187.0938 C822.9572,187.0938 822.8322,187.1094 822.676,187.2031 C822.426,187.3594 822.2697,187.6563 822.2697,187.9375 C822.2697,188.2188 822.4104,188.4688 822.6291,188.6406 C822.7854,188.75 822.9729,188.7813 823.3947,188.7813 L825.1135,188.7813 L825.1135,195.2969 L823.3947,195.2969 C822.9572,195.2969 822.8322,195.3125 822.676,195.4219 C822.426,195.5781 822.2697,195.8594 822.2697,196.1563 C822.2697,196.4063 822.4104,196.6719 822.6291,196.8281 C822.7854,196.9531 822.9885,197 823.3947,197 L828.5354,197 C829.2854,197 829.6447,196.7188 829.6447,196.1563 C829.6447,195.875 829.5354,195.625 829.301,195.4531 C829.1291,195.3281 828.9885,195.2969 828.5354,195.2969 L826.8166,195.2969 L826.8166,188.7813 Z " fill="#000000"/><text fill="#000000" font-family="sans-serif" font-size="12" font-style="italic" lengthAdjust="spacing" textLength="74" x="846.3635" y="196.1543">UserHandler</text><line style="stroke:#A80036;stroke-width:1.5;" x1="758.1135" x2="976.1135" y1="208" y2="208"/><line style="stroke:#A80036;stroke-width:1.5;" x1="758.1135" x2="976.1135" y1="216" y2="216"/><ellipse cx="768.1135" cy="227" fill="#84BE84" rx="3" ry="3" style="stroke:#038048;stroke-width:1.0;"/><text fill="#000000" font-family="sans-serif" font-size="11" lengthAdjust="spacing" textLength="181" x="777.1135" y="230.2104">GetAll(c: handler.Context): error</text><ellipse cx="768.1135" cy="239.8047" fill="#84BE84" rx="3" ry="3" style="stroke:#038048;stroke-width:1.0;"/><text fill="#000000" font-family="sans-serif" font-size="11" lengthAdjust="spacing" textLength="194" x="777.1135" y="243.0151">GetByID(c: handler.Context): error</text><ellipse cx="768.1135" cy="252.6094" fill="#84BE84" rx="3" ry="3" style="stroke:#038048;stroke-width:1.0;"/><text fill="#000000" font-family="sans-serif" font-size="11" lengthAdjust="spacing" textLength="193" x="777.1135" y="255.8198">Register(c: handler.Context): error</text><!--MD5=[5eabc64ff6a24f1a354a5c6f7bab965e]
class handler.Context--><rect codeLine="13" fill="#FEFECE" filter="url(#f1t41gpvt674rg)" height="124.8281" id="handler.Context" style="stroke:#A80036;stroke-width:1.5;" width="227" x="753.6135" y="499"/><ellipse cx="839.3635" cy="515" fill="#B4A7E5" rx="11" ry="11" style="stroke:#A80036;stroke-width:1.0;"/><path d="M840.3166,511.7813 L842.0354,511.7813 C842.426,511.7813 842.6135,511.75 842.7385,511.6719 C843.0041,511.5156 843.1447,511.2344 843.1447,510.9375 C843.1447,510.6719 843.0354,510.4063 842.801,510.2344 C842.6291,510.125 842.4885,510.0938 842.0354,510.0938 L836.8947,510.0938 C836.4572,510.0938 836.3322,510.1094 836.176,510.2031 C835.926,510.3594 835.7697,510.6563 835.7697,510.9375 C835.7697,511.2188 835.9104,511.4688 836.1291,511.6406 C836.2854,511.75 836.4729,511.7813 836.8947,511.7813 L838.6135,511.7813 L838.6135,518.2969 L836.8947,518.2969 C836.4572,518.2969 836.3322,518.3125 836.176,518.4219 C835.926,518.5781 835.7697,518.8594 835.7697,519.1563 C835.7697,519.4063 835.9104,519.6719 836.1291,519.8281 C836.2854,519.9531 836.4885,520 836.8947,520 L842.0354,520 C842.7854,520 843.1447,519.7188 843.1447,519.1563 C843.1447,518.875 843.0354,518.625 842.801,518.4531 C842.6291,518.3281 842.4885,518.2969 842.0354,518.2969 L840.3166,518.2969 L840.3166,511.7813 Z " fill="#000000"/><text fill="#000000" font-family="sans-serif" font-size="12" font-style="italic" lengthAdjust="spacing" textLength="47" x="859.8635" y="519.1543">Context</text><line style="stroke:#A80036;stroke-width:1.5;" x1="754.6135" x2="979.6135" y1="531" y2="531"/><line style="stroke:#A80036;stroke-width:1.5;" x1="754.6135" x2="979.6135" y1="539" y2="539"/><ellipse cx="764.6135" cy="550" fill="#84BE84" rx="3" ry="3" style="stroke:#038048;stroke-width:1.0;"/><text fill="#000000" font-family="sans-serif" font-size="11" lengthAdjust="spacing" textLength="142" x="773.6135" y="553.2104">Bind(i: interface{}): error</text><ellipse cx="764.6135" cy="562.8047" fill="#84BE84" rx="3" ry="3" style="stroke:#038048;stroke-width:1.0;"/><text fill="#000000" font-family="sans-serif" font-size="11" lengthAdjust="spacing" textLength="201" x="773.6135" y="566.0151">JSON(code: int, i: interface{}): error</text><ellipse cx="764.6135" cy="575.6094" fill="#84BE84" rx="3" ry="3" style="stroke:#038048;stroke-width:1.0;"/><text fill="#000000" font-family="sans-serif" font-size="11" lengthAdjust="spacing" textLength="151" x="773.6135" y="578.8198">NoContent(code: int): error</text><ellipse cx="764.6135" cy="588.4141" fill="#84BE84" rx="3" ry="3" style="stroke:#038048;stroke-width:1.0;"/><text fill="#000000" font-family="sans-serif" font-size="11" lengthAdjust="spacing" textLength="152" x="773.6135" y="591.6245">Param(name: string): string</text><ellipse cx="764.6135" cy="601.2188" fill="#84BE84" rx="3" ry="3" style="stroke:#038048;stroke-width:1.0;"/><text fill="#000000" font-family="sans-serif" font-size="11" lengthAdjust="spacing" textLength="175" x="773.6135" y="604.4292">String(code: int, s: string): error</text><ellipse cx="764.6135" cy="614.0234" fill="#84BE84" rx="3" ry="3" style="stroke:#038048;stroke-width:1.0;"/><text fill="#000000" font-family="sans-serif" font-size="11" lengthAdjust="spacing" textLength="164" x="773.6135" y="617.2339">Validate(i: interface{}): error</text><!--MD5=[d540ed31849d2891fb3665d0e9fcdb1e]
class handler.pingHandler--><rect codeLine="48" fill="#FEFECE" filter="url(#f1t41gpvt674rg)" height="60.8047" id="handler.pingHandler" style="stroke:#A80036;stroke-width:1.5;" width="195" x="1054.6105" y="342"/><ellipse cx="1111.3605" cy="358" fill="#FFCC00" rx="11" ry="11" style="stroke:#A80036;stroke-width:1.0;"/><path d="M1110.1574,358.875 L1111.6105,358.875 L1111.6105,358.9844 C1111.6105,359.3906 1111.6418,359.5469 1111.7199,359.7031 C1111.8761,359.9531 1112.1574,360.1094 1112.4543,360.1094 C1112.7043,360.1094 1112.9699,359.9688 1113.1261,359.75 C1113.2511,359.5938 1113.2824,359.4375 1113.2824,358.9844 L1113.2824,357.0625 C1113.2824,356.9063 1113.2824,356.8594 1113.2668,356.7031 C1113.2043,356.2344 1112.8918,355.9219 1112.4386,355.9219 C1112.1886,355.9219 1111.923,356.0625 1111.7511,356.2813 C1111.6418,356.4531 1111.6105,356.6094 1111.6105,357.0625 L1111.6105,357.1875 L1110.1574,357.1875 L1110.1574,354.7813 L1114.1418,354.7813 L1114.1418,355.6406 C1114.1418,356.0469 1114.173,356.2188 1114.2511,356.375 C1114.423,356.625 1114.7043,356.7813 1114.9855,356.7813 C1115.2511,356.7813 1115.5168,356.6406 1115.6886,356.4219 C1115.798,356.25 1115.8293,356.1094 1115.8293,355.6406 L1115.8293,353.0938 L1108.2043,353.0938 C1107.7668,353.0938 1107.6418,353.1094 1107.4855,353.2031 C1107.2355,353.3594 1107.0793,353.6563 1107.0793,353.9375 C1107.0793,354.2188 1107.2199,354.4688 1107.4386,354.6406 C1107.5949,354.75 1107.7824,354.7813 1108.2043,354.7813 L1108.4543,354.7813 L1108.4543,361.2969 L1108.2043,361.2969 C1107.798,361.2969 1107.6418,361.3125 1107.4855,361.4219 C1107.2355,361.5938 1107.0793,361.8594 1107.0793,362.1563 C1107.0793,362.4219 1107.2199,362.6719 1107.4386,362.8281 C1107.5793,362.9531 1107.8136,363 1108.2043,363 L1116.2043,363 L1116.2043,360.4219 C1116.2043,359.9844 1116.173,359.8438 1116.0949,359.6875 C1115.923,359.4375 1115.6418,359.2813 1115.3605,359.2813 C1115.0949,359.2813 1114.8293,359.3906 1114.6574,359.6406 C1114.548,359.7969 1114.5168,359.9375 1114.5168,360.4219 L1114.5168,361.2969 L1110.1574,361.2969 L1110.1574,358.875 Z " fill="#000000"/><text fill="#000000" font-family="sans-serif" font-size="12" lengthAdjust="spacing" textLength="73" x="1131.8605" y="362.1543">pingHandler</text><line style="stroke:#A80036;stroke-width:1.5;" x1="1055.6105" x2="1248.6105" y1="374" y2="374"/><line style="stroke:#A80036;stroke-width:1.5;" x1="1055.6105" x2="1248.6105" y1="382" y2="382"/><ellipse cx="1065.6105" cy="393" fill="#84BE84" rx="3" ry="3" style="stroke:#038048;stroke-width:1.0;"/><text fill="#000000" font-family="sans-serif" font-size="11" lengthAdjust="spacing" textLength="169" x="1074.6105" y="396.2104">Ping(c: handler.Context): error</text><!--MD5=[4bb75c5254c36c2dafac669f42a65a1b]
class handler.registerReq--><rect codeLine="57" fill="#FEFECE" filter="url(#f1t41gpvt674rg)" height="73.6094" id="handler.registerReq" style="stroke:#A80036;stroke-width:1.5;" width="103" x="829.6135" y="41"/><ellipse cx="844.6135" cy="57" fill="#DA70D6" rx="11" ry="11" style="stroke:#A80036;stroke-width:1.0;"/><path d="M844.7697,60.5469 L842.3166,54.7813 L842.6447,54.7813 C843.051,54.7813 843.2072,54.75 843.3479,54.6719 C843.6135,54.5156 843.7541,54.2344 843.7541,53.9375 C843.7541,53.6719 843.6291,53.4063 843.426,53.2344 C843.2541,53.125 843.0822,53.0938 842.6447,53.0938 L840.3791,53.0938 C839.9416,53.0938 839.8166,53.1094 839.6604,53.2031 C839.4104,53.3594 839.2541,53.6563 839.2541,53.9375 C839.2541,54.2813 839.4885,54.625 839.7854,54.7188 C839.9416,54.7656 840.0666,54.7813 840.4104,54.7813 L843.8479,63 L845.5354,63 L849.0197,54.7813 C849.3791,54.7813 849.4885,54.7656 849.6447,54.7188 C849.926,54.625 850.176,54.2813 850.176,53.9375 C850.176,53.6719 850.0354,53.4063 849.8166,53.2344 C849.6604,53.125 849.4885,53.0938 849.051,53.0938 L846.801,53.0938 C846.3635,53.0938 846.2385,53.1094 846.0979,53.2031 C845.8322,53.3594 845.676,53.6563 845.676,53.9375 C845.676,54.2188 845.8166,54.4688 846.0197,54.6406 C846.2072,54.75 846.3479,54.7813 846.801,54.7813 L847.2072,54.7813 L844.7697,60.5469 Z " fill="#000000"/><text fill="#000000" font-family="sans-serif" font-size="12" lengthAdjust="spacing" textLength="71" x="858.6135" y="61.1543">registerReq</text><line style="stroke:#A80036;stroke-width:1.5;" x1="830.6135" x2="931.6135" y1="73" y2="73"/><ellipse cx="840.6135" cy="84" rx="3" ry="3" style="stroke:#038048;stroke-width:1.0;fill:none;"/><text fill="#000000" font-family="sans-serif" font-size="11" lengthAdjust="spacing" textLength="72" x="849.6135" y="87.2104">Name: string</text><ellipse cx="840.6135" cy="96.8047" rx="3" ry="3" style="stroke:#038048;stroke-width:1.0;fill:none;"/><text fill="#000000" font-family="sans-serif" font-size="11" lengthAdjust="spacing" textLength="69" x="849.6135" y="100.0151">Email: string</text><line style="stroke:#A80036;stroke-width:1.5;" x1="830.6135" x2="931.6135" y1="106.6094" y2="106.6094"/><!--MD5=[f2d73783e3bbaf5154af240a8305ffaf]
class handler.userDetailRes--><rect codeLine="66" fill="#FEFECE" filter="url(#f1t41gpvt674rg)" height="73.6094" id="handler.userDetailRes" style="stroke:#A80036;stroke-width:1.5;" width="171" x="526.6135" y="41"/><ellipse cx="566.8135" cy="57" fill="#DA70D6" rx="11" ry="11" style="stroke:#A80036;stroke-width:1.0;"/><path d="M566.9698,60.5469 L564.5166,54.7813 L564.8448,54.7813 C565.251,54.7813 565.4073,54.75 565.5479,54.6719 C565.8135,54.5156 565.9541,54.2344 565.9541,53.9375 C565.9541,53.6719 565.8291,53.4063 565.626,53.2344 C565.4541,53.125 565.2823,53.0938 564.8448,53.0938 L562.5791,53.0938 C562.1416,53.0938 562.0166,53.1094 561.8604,53.2031 C561.6104,53.3594 561.4541,53.6563 561.4541,53.9375 C561.4541,54.2813 561.6885,54.625 561.9854,54.7188 C562.1416,54.7656 562.2666,54.7813 562.6104,54.7813 L566.0479,63 L567.7354,63 L571.2198,54.7813 C571.5791,54.7813 571.6885,54.7656 571.8448,54.7188 C572.126,54.625 572.376,54.2813 572.376,53.9375 C572.376,53.6719 572.2354,53.4063 572.0166,53.2344 C571.8604,53.125 571.6885,53.0938 571.251,53.0938 L569.001,53.0938 C568.5635,53.0938 568.4385,53.1094 568.2979,53.2031 C568.0323,53.3594 567.876,53.6563 567.876,53.9375 C567.876,54.2188 568.0166,54.4688 568.2198,54.6406 C568.4073,54.75 568.5479,54.7813 569.001,54.7813 L569.4073,54.7813 L566.9698,60.5469 Z " fill="#000000"/><text fill="#000000" font-family="sans-serif" font-size="12" lengthAdjust="spacing" textLength="83" x="586.4135" y="61.1543">userDetailRes</text><line style="stroke:#A80036;stroke-width:1.5;" x1="527.6135" x2="696.6135" y1="73" y2="73"/><rect fill="none" height="6" style="stroke:#C82930;stroke-width:1.0;" width="6" x="534.6135" y="81"/><text fill="#000000" font-family="sans-serif" font-size="11" lengthAdjust="spacing" textLength="145" x="546.6135" y="87.2104">userRes: handler.userRes</text><ellipse cx="537.6135" cy="96.8047" rx="3" ry="3" style="stroke:#038048;stroke-width:1.0;fill:none;"/><text fill="#000000" font-family="sans-serif" font-size="11" lengthAdjust="spacing" textLength="69" x="546.6135" y="100.0151">Email: string</text><line style="stroke:#A80036;stroke-width:1.5;" x1="527.6135" x2="696.6135" y1="106.6094" y2="106.6094"/><!--MD5=[dda3090485d68b59681683263910e3b4]
class handler.userRes--><rect codeLine="91" fill="#FEFECE" filter="url(#f1t41gpvt674rg)" height="73.6094" id="handler.userRes" style="stroke:#A80036;stroke-width:1.5;" width="100" x="562.1135" y="182"/><ellipse cx="585.6635" cy="198" fill="#DA70D6" rx="11" ry="11" style="stroke:#A80036;stroke-width:1.0;"/><path d="M585.8197,201.5469 L583.3666,195.7813 L583.6947,195.7813 C584.101,195.7813 584.2572,195.75 584.3979,195.6719 C584.6635,195.5156 584.8041,195.2344 584.8041,194.9375 C584.8041,194.6719 584.6791,194.4063 584.476,194.2344 C584.3041,194.125 584.1322,194.0938 583.6947,194.0938 L581.4291,194.0938 C580.9916,194.0938 580.8666,194.1094 580.7104,194.2031 C580.4604,194.3594 580.3041,194.6563 580.3041,194.9375 C580.3041,195.2813 580.5385,195.625 580.8354,195.7188 C580.9916,195.7656 581.1166,195.7813 581.4604,195.7813 L584.8979,204 L586.5854,204 L590.0697,195.7813 C590.4291,195.7813 590.5385,195.7656 590.6947,195.7188 C590.976,195.625 591.226,195.2813 591.226,194.9375 C591.226,194.6719 591.0854,194.4063 590.8666,194.2344 C590.7104,194.125 590.5385,194.0938 590.101,194.0938 L587.851,194.0938 C587.4135,194.0938 587.2885,194.1094 587.1479,194.2031 C586.8822,194.3594 586.726,194.6563 586.726,194.9375 C586.726,195.2188 586.8666,195.4688 587.0697,195.6406 C587.2572,195.75 587.3979,195.7813 587.851,195.7813 L588.2572,195.7813 L585.8197,201.5469 Z " fill="#000000"/><text fill="#000000" font-family="sans-serif" font-size="12" lengthAdjust="spacing" textLength="49" x="601.5635" y="202.1543">userRes</text><line style="stroke:#A80036;stroke-width:1.5;" x1="563.1135" x2="661.1135" y1="214" y2="214"/><ellipse cx="573.1135" cy="225" rx="3" ry="3" style="stroke:#038048;stroke-width:1.0;fill:none;"/><text fill="#000000" font-family="sans-serif" font-size="11" lengthAdjust="spacing" textLength="74" x="582.1135" y="228.2104">ID: uuid.UUID</text><ellipse cx="573.1135" cy="237.8047" rx="3" ry="3" style="stroke:#038048;stroke-width:1.0;fill:none;"/><text fill="#000000" font-family="sans-serif" font-size="11" lengthAdjust="spacing" textLength="72" x="582.1135" y="241.0151">Name: string</text><line style="stroke:#A80036;stroke-width:1.5;" x1="563.1135" x2="661.1135" y1="247.6094" y2="247.6094"/><!--MD5=[3e37550041141040484fbfbbacaa29ac]
class handler.userHandler--><rect codeLine="76" fill="#FEFECE" filter="url(#f1t41gpvt674rg)" height="99.2188" id="handler.userHandler" style="stroke:#A80036;stroke-width:1.5;" width="220" x="577.1135" y="323"/><ellipse cx="645.8635" cy="339" fill="#FFCC00" rx="11" ry="11" style="stroke:#A80036;stroke-width:1.0;"/><path d="M644.6604,339.875 L646.1135,339.875 L646.1135,339.9844 C646.1135,340.3906 646.1447,340.5469 646.2229,340.7031 C646.3791,340.9531 646.6604,341.1094 646.9572,341.1094 C647.2072,341.1094 647.4729,340.9688 647.6291,340.75 C647.7541,340.5938 647.7854,340.4375 647.7854,339.9844 L647.7854,338.0625 C647.7854,337.9063 647.7854,337.8594 647.7697,337.7031 C647.7072,337.2344 647.3947,336.9219 646.9416,336.9219 C646.6916,336.9219 646.426,337.0625 646.2541,337.2813 C646.1447,337.4531 646.1135,337.6094 646.1135,338.0625 L646.1135,338.1875 L644.6604,338.1875 L644.6604,335.7813 L648.6447,335.7813 L648.6447,336.6406 C648.6447,337.0469 648.676,337.2188 648.7541,337.375 C648.926,337.625 649.2072,337.7813 649.4885,337.7813 C649.7541,337.7813 650.0197,337.6406 650.1916,337.4219 C650.301,337.25 650.3322,337.1094 650.3322,336.6406 L650.3322,334.0938 L642.7072,334.0938 C642.2697,334.0938 642.1447,334.1094 641.9885,334.2031 C641.7385,334.3594 641.5822,334.6563 641.5822,334.9375 C641.5822,335.2188 641.7229,335.4688 641.9416,335.6406 C642.0979,335.75 642.2854,335.7813 642.7072,335.7813 L642.9572,335.7813 L642.9572,342.2969 L642.7072,342.2969 C642.301,342.2969 642.1447,342.3125 641.9885,342.4219 C641.7385,342.5938 641.5822,342.8594 641.5822,343.1563 C641.5822,343.4219 641.7229,343.6719 641.9416,343.8281 C642.0822,343.9531 642.3166,344 642.7072,344 L650.7072,344 L650.7072,341.4219 C650.7072,340.9844 650.676,340.8438 650.5979,340.6875 C650.426,340.4375 650.1447,340.2813 649.8635,340.2813 C649.5979,340.2813 649.3322,340.3906 649.1604,340.6406 C649.051,340.7969 649.0197,340.9375 649.0197,341.4219 L649.0197,342.2969 L644.6604,342.2969 L644.6604,339.875 Z " fill="#000000"/><text fill="#000000" font-family="sans-serif" font-size="12" lengthAdjust="spacing" textLength="74" x="666.3635" y="343.1543">userHandler</text><line style="stroke:#A80036;stroke-width:1.5;" x1="578.1135" x2="796.1135" y1="355" y2="355"/><rect fill="none" height="6" style="stroke:#C82930;stroke-width:1.0;" width="6" x="585.1135" y="363"/><text fill="#000000" font-family="sans-serif" font-size="11" lengthAdjust="spacing" textLength="141" x="597.1135" y="369.2104">uc: usecase.UserService</text><line style="stroke:#A80036;stroke-width:1.5;" x1="578.1135" x2="796.1135" y1="375.8047" y2="375.8047"/><ellipse cx="588.1135" cy="386.8047" fill="#84BE84" rx="3" ry="3" style="stroke:#038048;stroke-width:1.0;"/><text fill="#000000" font-family="sans-serif" font-size="11" lengthAdjust="spacing" textLength="181" x="597.1135" y="390.0151">GetAll(c: handler.Context): error</text><ellipse cx="588.1135" cy="399.6094" fill="#84BE84" rx="3" ry="3" style="stroke:#038048;stroke-width:1.0;"/><text fill="#000000" font-family="sans-serif" font-size="11" lengthAdjust="spacing" textLength="194" x="597.1135" y="402.8198">GetByID(c: handler.Context): error</text><ellipse cx="588.1135" cy="412.4141" fill="#84BE84" rx="3" ry="3" style="stroke:#038048;stroke-width:1.0;"/><text fill="#000000" font-family="sans-serif" font-size="11" lengthAdjust="spacing" textLength="193" x="597.1135" y="415.6245">Register(c: handler.Context): error</text><!--MD5=[a299c3fe77932bc438427f0a8c0adcc2]
class usecase.UserService--><rect codeLine="167" fill="#FEFECE" filter="url(#f1t41gpvt674rg)" height="86.4141" id="usecase.UserService" style="stroke:#A80036;stroke-width:1.5;" width="295" x="284.6135" y="721"/><ellipse cx="392.3635" cy="737" fill="#B4A7E5" rx="11" ry="11" style="stroke:#A80036;stroke-width:1.0;"/><path d="M393.3166,733.7813 L395.0354,733.7813 C395.426,733.7813 395.6135,733.75 395.7385,733.6719 C396.0041,733.5156 396.1448,733.2344 396.1448,732.9375 C396.1448,732.6719 396.0354,732.4063 395.801,732.2344 C395.6291,732.125 395.4885,732.0938 395.0354,732.0938 L389.8948,732.0938 C389.4573,732.0938 389.3323,732.1094 389.176,732.2031 C388.926,732.3594 388.7698,732.6563 388.7698,732.9375 C388.7698,733.2188 388.9104,733.4688 389.1291,733.6406 C389.2854,733.75 389.4729,733.7813 389.8948,733.7813 L391.6135,733.7813 L391.6135,740.2969 L389.8948,740.2969 C389.4573,740.2969 389.3323,740.3125 389.176,740.4219 C388.926,740.5781 388.7698,740.8594 388.7698,741.1563 C388.7698,741.4063 388.9104,741.6719 389.1291,741.8281 C389.2854,741.9531 389.4885,742 389.8948,742 L395.0354,742 C395.7854,742 396.1448,741.7188 396.1448,741.1563 C396.1448,740.875 396.0354,740.625 395.801,740.4531 C395.6291,740.3281 395.4885,740.2969 395.0354,740.2969 L393.3166,740.2969 L393.3166,733.7813 Z " fill="#000000"/><text fill="#000000" font-family="sans-serif" font-size="12" font-style="italic" lengthAdjust="spacing" textLength="71" x="412.8635" y="741.1543">UserService</text><line style="stroke:#A80036;stroke-width:1.5;" x1="285.6135" x2="578.6135" y1="753" y2="753"/><line style="stroke:#A80036;stroke-width:1.5;" x1="285.6135" x2="578.6135" y1="761" y2="761"/><ellipse cx="295.6135" cy="772" fill="#84BE84" rx="3" ry="3" style="stroke:#038048;stroke-width:1.0;"/><text fill="#000000" font-family="sans-serif" font-size="11" lengthAdjust="spacing" textLength="157" x="304.6135" y="775.2104">GetAll(): (model.User, error)</text><ellipse cx="295.6135" cy="784.8047" fill="#84BE84" rx="3" ry="3" style="stroke:#038048;stroke-width:1.0;"/><text fill="#000000" font-family="sans-serif" font-size="11" lengthAdjust="spacing" textLength="242" x="304.6135" y="788.0151">GetByID(id: uuid.UUID): (model.User, error)</text><ellipse cx="295.6135" cy="797.6094" fill="#84BE84" rx="3" ry="3" style="stroke:#038048;stroke-width:1.0;"/><text fill="#000000" font-family="sans-serif" font-size="11" lengthAdjust="spacing" textLength="269" x="304.6135" y="800.8198">Register(user: repository.RegisteredUser): error</text><!--MD5=[bb0d30d0621dd66138dbba896dccc537]
class usecase.userService--><rect codeLine="179" fill="#FEFECE" filter="url(#f1t41gpvt674rg)" height="99.2188" id="usecase.userService" style="stroke:#A80036;stroke-width:1.5;" width="295" x="284.6135" y="920"/><ellipse cx="391.3635" cy="936" fill="#FFCC00" rx="11" ry="11" style="stroke:#A80036;stroke-width:1.0;"/><path d="M390.1604,936.875 L391.6135,936.875 L391.6135,936.9844 C391.6135,937.3906 391.6448,937.5469 391.7229,937.7031 C391.8791,937.9531 392.1604,938.1094 392.4573,938.1094 C392.7073,938.1094 392.9729,937.9688 393.1291,937.75 C393.2541,937.5938 393.2854,937.4375 393.2854,936.9844 L393.2854,935.0625 C393.2854,934.9063 393.2854,934.8594 393.2698,934.7031 C393.2073,934.2344 392.8948,933.9219 392.4416,933.9219 C392.1916,933.9219 391.926,934.0625 391.7541,934.2813 C391.6448,934.4531 391.6135,934.6094 391.6135,935.0625 L391.6135,935.1875 L390.1604,935.1875 L390.1604,932.7813 L394.1448,932.7813 L394.1448,933.6406 C394.1448,934.0469 394.176,934.2188 394.2541,934.375 C394.426,934.625 394.7073,934.7813 394.9885,934.7813 C395.2541,934.7813 395.5198,934.6406 395.6916,934.4219 C395.801,934.25 395.8323,934.1094 395.8323,933.6406 L395.8323,931.0938 L388.2073,931.0938 C387.7698,931.0938 387.6448,931.1094 387.4885,931.2031 C387.2385,931.3594 387.0823,931.6563 387.0823,931.9375 C387.0823,932.2188 387.2229,932.4688 387.4416,932.6406 C387.5979,932.75 387.7854,932.7813 388.2073,932.7813 L388.4573,932.7813 L388.4573,939.2969 L388.2073,939.2969 C387.801,939.2969 387.6448,939.3125 387.4885,939.4219 C387.2385,939.5938 387.0823,939.8594 387.0823,940.1563 C387.0823,940.4219 387.2229,940.6719 387.4416,940.8281 C387.5823,940.9531 387.8166,941 388.2073,941 L396.2073,941 L396.2073,938.4219 C396.2073,937.9844 396.176,937.8438 396.0979,937.6875 C395.926,937.4375 395.6448,937.2813 395.3635,937.2813 C395.0979,937.2813 394.8323,937.3906 394.6604,937.6406 C394.551,937.7969 394.5198,937.9375 394.5198,938.4219 L394.5198,939.2969 L390.1604,939.2969 L390.1604,936.875 Z " fill="#000000"/><text fill="#000000" font-family="sans-serif" font-size="12" lengthAdjust="spacing" textLength="73" x="411.8635" y="940.1543">userService</text><line style="stroke:#A80036;stroke-width:1.5;" x1="285.6135" x2="578.6135" y1="952" y2="952"/><rect fill="none" height="6" style="stroke:#C82930;stroke-width:1.0;" width="6" x="292.6135" y="960"/><text fill="#000000" font-family="sans-serif" font-size="11" lengthAdjust="spacing" textLength="179" x="304.6135" y="966.2104">repo: repository.UserRepository</text><line style="stroke:#A80036;stroke-width:1.5;" x1="285.6135" x2="578.6135" y1="972.8047" y2="972.8047"/><ellipse cx="295.6135" cy="983.8047" fill="#84BE84" rx="3" ry="3" style="stroke:#038048;stroke-width:1.0;"/><text fill="#000000" font-family="sans-serif" font-size="11" lengthAdjust="spacing" textLength="157" x="304.6135" y="987.0151">GetAll(): (model.User, error)</text><ellipse cx="295.6135" cy="996.6094" fill="#84BE84" rx="3" ry="3" style="stroke:#038048;stroke-width:1.0;"/><text fill="#000000" font-family="sans-serif" font-size="11" lengthAdjust="spacing" textLength="242" x="304.6135" y="999.8198">GetByID(id: uuid.UUID): (model.User, error)</text><ellipse cx="295.6135" cy="1009.4141" fill="#84BE84" rx="3" ry="3" style="stroke:#038048;stroke-width:1.0;"/><text fill="#000000" font-family="sans-serif" font-size="11" lengthAdjust="spacing" textLength="269" x="304.6135" y="1012.6245">Register(user: repository.RegisteredUser): error</text><!--MD5=[212064a953920e3f00b30ec82d372b5d]
class infrastructure.context--><rect codeLine="100" fill="#FEFECE" filter="url(#f1t41gpvt674rg)" height="60.8047" id="infrastructure.context" style="stroke:#A80036;stroke-width:1.5;" width="140" x="1196.1105" y="733.5"/><ellipse cx="1239.4605" cy="749.5" fill="#DA70D6" rx="11" ry="11" style="stroke:#A80036;stroke-width:1.0;"/><path d="M1239.6168,753.0469 L1237.1636,747.2813 L1237.4918,747.2813 C1237.898,747.2813 1238.0543,747.25 1238.1949,747.1719 C1238.4605,747.0156 1238.6011,746.7344 1238.6011,746.4375 C1238.6011,746.1719 1238.4761,745.9063 1238.273,745.7344 C1238.1011,745.625 1237.9293,745.5938 1237.4918,745.5938 L1235.2261,745.5938 C1234.7886,745.5938 1234.6636,745.6094 1234.5074,745.7031 C1234.2574,745.8594 1234.1011,746.1563 1234.1011,746.4375 C1234.1011,746.7813 1234.3355,747.125 1234.6324,747.2188 C1234.7886,747.2656 1234.9136,747.2813 1235.2574,747.2813 L1238.6949,755.5 L1240.3824,755.5 L1243.8668,747.2813 C1244.2261,747.2813 1244.3355,747.2656 1244.4918,747.2188 C1244.773,747.125 1245.023,746.7813 1245.023,746.4375 C1245.023,746.1719 1244.8824,745.9063 1244.6636,745.7344 C1244.5074,745.625 1244.3355,745.5938 1243.898,745.5938 L1241.648,745.5938 C1241.2105,745.5938 1241.0855,745.6094 1240.9449,745.7031 C1240.6793,745.8594 1240.523,746.1563 1240.523,746.4375 C1240.523,746.7188 1240.6636,746.9688 1240.8668,747.1406 C1241.0543,747.25 1241.1949,747.2813 1241.648,747.2813 L1242.0543,747.2813 L1239.6168,753.0469 Z " fill="#000000"/><text fill="#000000" font-family="sans-serif" font-size="12" lengthAdjust="spacing" textLength="45" x="1259.7605" y="753.6543">context</text><line style="stroke:#A80036;stroke-width:1.5;" x1="1197.1105" x2="1335.1105" y1="765.5" y2="765.5"/><ellipse cx="1207.1105" cy="776.5" rx="3" ry="3" style="stroke:#038048;stroke-width:1.0;fill:none;"/><text fill="#000000" font-family="sans-serif" font-size="11" lengthAdjust="spacing" textLength="114" x="1216.1105" y="779.7104">Context: v4.Context</text><line style="stroke:#A80036;stroke-width:1.5;" x1="1197.1105" x2="1335.1105" y1="786.3047" y2="786.3047"/><!--MD5=[17b9ce48601acaa48748402a31418eab]
class infrastructure.sqlConfig--><rect codeLine="108" fill="#FEFECE" filter="url(#f1t41gpvt674rg)" height="112.0234" id="infrastructure.sqlConfig" style="stroke:#A80036;stroke-width:1.5;" width="90" x="1071.1105" y="708"/><ellipse cx="1087.0105" cy="724" fill="#DA70D6" rx="11" ry="11" style="stroke:#A80036;stroke-width:1.0;"/><path d="M1087.1668,727.5469 L1084.7136,721.7813 L1085.0418,721.7813 C1085.448,721.7813 1085.6043,721.75 1085.7449,721.6719 C1086.0105,721.5156 1086.1511,721.2344 1086.1511,720.9375 C1086.1511,720.6719 1086.0261,720.4063 1085.823,720.2344 C1085.6511,720.125 1085.4793,720.0938 1085.0418,720.0938 L1082.7761,720.0938 C1082.3386,720.0938 1082.2136,720.1094 1082.0574,720.2031 C1081.8074,720.3594 1081.6511,720.6563 1081.6511,720.9375 C1081.6511,721.2813 1081.8855,721.625 1082.1824,721.7188 C1082.3386,721.7656 1082.4636,721.7813 1082.8074,721.7813 L1086.2449,730 L1087.9324,730 L1091.4168,721.7813 C1091.7761,721.7813 1091.8855,721.7656 1092.0418,721.7188 C1092.323,721.625 1092.573,721.2813 1092.573,720.9375 C1092.573,720.6719 1092.4324,720.4063 1092.2136,720.2344 C1092.0574,720.125 1091.8855,720.0938 1091.448,720.0938 L1089.198,720.0938 C1088.7605,720.0938 1088.6355,720.1094 1088.4949,720.2031 C1088.2293,720.3594 1088.073,720.6563 1088.073,720.9375 C1088.073,721.2188 1088.2136,721.4688 1088.4168,721.6406 C1088.6043,721.75 1088.7449,721.7813 1089.198,721.7813 L1089.6043,721.7813 L1087.1668,727.5469 Z " fill="#000000"/><text fill="#000000" font-family="sans-serif" font-size="12" lengthAdjust="spacing" textLength="56" x="1101.2105" y="728.1543">sqlConfig</text><line style="stroke:#A80036;stroke-width:1.5;" x1="1072.1105" x2="1160.1105" y1="740" y2="740"/><rect fill="none" height="6" style="stroke:#C82930;stroke-width:1.0;" width="6" x="1079.1105" y="748"/><text fill="#000000" font-family="sans-serif" font-size="11" lengthAdjust="spacing" textLength="63" x="1091.1105" y="754.2104">user: string</text><rect fill="none" height="6" style="stroke:#C82930;stroke-width:1.0;" width="6" x="1079.1105" y="760.8047"/><text fill="#000000" font-family="sans-serif" font-size="11" lengthAdjust="spacing" textLength="64" x="1091.1105" y="767.0151">pass: string</text><rect fill="none" height="6" style="stroke:#C82930;stroke-width:1.0;" width="6" x="1079.1105" y="773.6094"/><text fill="#000000" font-family="sans-serif" font-size="11" lengthAdjust="spacing" textLength="62" x="1091.1105" y="779.8198">host: string</text><rect fill="none" height="6" style="stroke:#C82930;stroke-width:1.0;" width="6" x="1079.1105" y="786.4141"/><text fill="#000000" font-family="sans-serif" font-size="11" lengthAdjust="spacing" textLength="60" x="1091.1105" y="792.6245">port: string</text><rect fill="none" height="6" style="stroke:#C82930;stroke-width:1.0;" width="6" x="1079.1105" y="799.2188"/><text fill="#000000" font-family="sans-serif" font-size="11" lengthAdjust="spacing" textLength="52" x="1091.1105" y="805.4292">db: string</text><line style="stroke:#A80036;stroke-width:1.5;" x1="1072.1105" x2="1160.1105" y1="812.0234" y2="812.0234"/><!--MD5=[8bd818e0363dd0882fc70dc714174910]
class infrastructure.sqlHandler--><rect codeLine="120" fill="#FEFECE" filter="url(#f1t41gpvt674rg)" height="112.0234" id="infrastructure.sqlHandler" style="stroke:#A80036;stroke-width:1.5;" width="400" x="636.1135" y="708"/><ellipse cx="799.3635" cy="724" fill="#FFCC00" rx="11" ry="11" style="stroke:#A80036;stroke-width:1.0;"/><path d="M798.1604,724.875 L799.6135,724.875 L799.6135,724.9844 C799.6135,725.3906 799.6447,725.5469 799.7229,725.7031 C799.8791,725.9531 800.1604,726.1094 800.4572,726.1094 C800.7072,726.1094 800.9729,725.9688 801.1291,725.75 C801.2541,725.5938 801.2854,725.4375 801.2854,724.9844 L801.2854,723.0625 C801.2854,722.9063 801.2854,722.8594 801.2697,722.7031 C801.2072,722.2344 800.8947,721.9219 800.4416,721.9219 C800.1916,721.9219 799.926,722.0625 799.7541,722.2813 C799.6447,722.4531 799.6135,722.6094 799.6135,723.0625 L799.6135,723.1875 L798.1604,723.1875 L798.1604,720.7813 L802.1447,720.7813 L802.1447,721.6406 C802.1447,722.0469 802.176,722.2188 802.2541,722.375 C802.426,722.625 802.7072,722.7813 802.9885,722.7813 C803.2541,722.7813 803.5197,722.6406 803.6916,722.4219 C803.801,722.25 803.8322,722.1094 803.8322,721.6406 L803.8322,719.0938 L796.2072,719.0938 C795.7697,719.0938 795.6447,719.1094 795.4885,719.2031 C795.2385,719.3594 795.0822,719.6563 795.0822,719.9375 C795.0822,720.2188 795.2229,720.4688 795.4416,720.6406 C795.5979,720.75 795.7854,720.7813 796.2072,720.7813 L796.4572,720.7813 L796.4572,727.2969 L796.2072,727.2969 C795.801,727.2969 795.6447,727.3125 795.4885,727.4219 C795.2385,727.5938 795.0822,727.8594 795.0822,728.1563 C795.0822,728.4219 795.2229,728.6719 795.4416,728.8281 C795.5822,728.9531 795.8166,729 796.2072,729 L804.2072,729 L804.2072,726.4219 C804.2072,725.9844 804.176,725.8438 804.0979,725.6875 C803.926,725.4375 803.6447,725.2813 803.3635,725.2813 C803.0979,725.2813 802.8322,725.3906 802.6604,725.6406 C802.551,725.7969 802.5197,725.9375 802.5197,726.4219 L802.5197,727.2969 L798.1604,727.2969 L798.1604,724.875 Z " fill="#000000"/><text fill="#000000" font-family="sans-serif" font-size="12" lengthAdjust="spacing" textLength="65" x="819.8635" y="728.1543">sqlHandler</text><line style="stroke:#A80036;stroke-width:1.5;" x1="637.1135" x2="1035.1135" y1="740" y2="740"/><rect fill="none" height="6" style="stroke:#C82930;stroke-width:1.0;" width="6" x="644.1135" y="748"/><text fill="#000000" font-family="sans-serif" font-size="11" lengthAdjust="spacing" textLength="83" x="656.1135" y="754.2104">conn: gorm.DB</text><line style="stroke:#A80036;stroke-width:1.5;" x1="637.1135" x2="1035.1135" y1="760.8047" y2="760.8047"/><ellipse cx="647.1135" cy="771.8047" fill="#84BE84" rx="3" ry="3" style="stroke:#038048;stroke-width:1.0;"/><text fill="#000000" font-family="sans-serif" font-size="11" lengthAdjust="spacing" textLength="281" x="656.1135" y="775.0151">Create(value: interface{}): database.SQLHandler</text><ellipse cx="647.1135" cy="784.6094" fill="#84BE84" rx="3" ry="3" style="stroke:#038048;stroke-width:1.0;"/><text fill="#000000" font-family="sans-serif" font-size="11" lengthAdjust="spacing" textLength="68" x="656.1135" y="787.8198">Error(): error</text><ellipse cx="647.1135" cy="797.4141" fill="#84BE84" rx="3" ry="3" style="stroke:#038048;stroke-width:1.0;"/><text fill="#000000" font-family="sans-serif" font-size="11" lengthAdjust="spacing" textLength="374" x="656.1135" y="800.6245">Find(out: interface{}, where: []interface{}): database.SQLHandler</text><ellipse cx="647.1135" cy="810.2188" fill="#84BE84" rx="3" ry="3" style="stroke:#038048;stroke-width:1.0;"/><text fill="#000000" font-family="sans-serif" font-size="11" lengthAdjust="spacing" textLength="374" x="656.1135" y="813.4292">First(out: interface{}, where: []interface{}): database.SQLHandler</text><!--MD5=[e783793d60f9c18cc4d7a214f220ca53]
class database.SQLHandler--><rect codeLine="193" fill="#FEFECE" filter="url(#f1t41gpvt674rg)" height="99.2188" id="database.SQLHandler" style="stroke:#A80036;stroke-width:1.5;" width="400" x="727.1135" y="920"/><ellipse cx="887.3635" cy="936" fill="#B4A7E5" rx="11" ry="11" style="stroke:#A80036;stroke-width:1.0;"/><path d="M888.3166,932.7813 L890.0354,932.7813 C890.426,932.7813 890.6135,932.75 890.7385,932.6719 C891.0041,932.5156 891.1447,932.2344 891.1447,931.9375 C891.1447,931.6719 891.0354,931.4063 890.801,931.2344 C890.6291,931.125 890.4885,931.0938 890.0354,931.0938 L884.8947,931.0938 C884.4572,931.0938 884.3322,931.1094 884.176,931.2031 C883.926,931.3594 883.7697,931.6563 883.7697,931.9375 C883.7697,932.2188 883.9104,932.4688 884.1291,932.6406 C884.2854,932.75 884.4729,932.7813 884.8947,932.7813 L886.6135,932.7813 L886.6135,939.2969 L884.8947,939.2969 C884.4572,939.2969 884.3322,939.3125 884.176,939.4219 C883.926,939.5781 883.7697,939.8594 883.7697,940.1563 C883.7697,940.4063 883.9104,940.6719 884.1291,940.8281 C884.2854,940.9531 884.4885,941 884.8947,941 L890.0354,941 C890.7854,941 891.1447,940.7188 891.1447,940.1563 C891.1447,939.875 891.0354,939.625 890.801,939.4531 C890.6291,939.3281 890.4885,939.2969 890.0354,939.2969 L888.3166,939.2969 L888.3166,932.7813 Z " fill="#000000"/><text fill="#000000" font-family="sans-serif" font-size="12" font-style="italic" lengthAdjust="spacing" textLength="71" x="907.8635" y="940.1543">SQLHandler</text><line style="stroke:#A80036;stroke-width:1.5;" x1="728.1135" x2="1126.1135" y1="952" y2="952"/><line style="stroke:#A80036;stroke-width:1.5;" x1="728.1135" x2="1126.1135" y1="960" y2="960"/><ellipse cx="738.1135" cy="971" fill="#84BE84" rx="3" ry="3" style="stroke:#038048;stroke-width:1.0;"/><text fill="#000000" font-family="sans-serif" font-size="11" lengthAdjust="spacing" textLength="281" x="747.1135" y="974.2104">Create(value: interface{}): database.SQLHandler</text><ellipse cx="738.1135" cy="983.8047" fill="#84BE84" rx="3" ry="3" style="stroke:#038048;stroke-width:1.0;"/><text fill="#000000" font-family="sans-serif" font-size="11" lengthAdjust="spacing" textLength="68" x="747.1135" y="987.0151">Error(): error</text><ellipse cx="738.1135" cy="996.6094" fill="#84BE84" rx="3" ry="3" style="stroke:#038048;stroke-width:1.0;"/><text fill="#000000" font-family="sans-serif" font-size="11" lengthAdjust="spacing" textLength="374" x="747.1135" y="999.8198">Find(out: interface{}, where: []interface{}): database.SQLHandler</text><ellipse cx="738.1135" cy="1009.4141" fill="#84BE84" rx="3" ry="3" style="stroke:#038048;stroke-width:1.0;"/><text fill="#000000" font-family="sans-serif" font-size="11" lengthAdjust="spacing" textLength="374" x="747.1135" y="1012.6245">First(out: interface{}, where: []interface{}): database.SQLHandler</text><!--MD5=[fff34d92f1ae31513979b1040e78522a]
class database.userRepository--><rect codeLine="207" fill="#FEFECE" filter="url(#f1t41gpvt674rg)" height="99.2188" id="database.userRepository" style="stroke:#A80036;stroke-width:1.5;" width="295" x="727.6135" y="1112.5"/><ellipse cx="824.8635" cy="1128.5" fill="#FFCC00" rx="11" ry="11" style="stroke:#A80036;stroke-width:1.0;"/><path d="M823.6604,1129.375 L825.1135,1129.375 L825.1135,1129.4844 C825.1135,1129.8906 825.1447,1130.0469 825.2229,1130.2031 C825.3791,1130.4531 825.6604,1130.6094 825.9572,1130.6094 C826.2072,1130.6094 826.4729,1130.4688 826.6291,1130.25 C826.7541,1130.0938 826.7854,1129.9375 826.7854,1129.4844 L826.7854,1127.5625 C826.7854,1127.4063 826.7854,1127.3594 826.7697,1127.2031 C826.7072,1126.7344 826.3947,1126.4219 825.9416,1126.4219 C825.6916,1126.4219 825.426,1126.5625 825.2541,1126.7813 C825.1447,1126.9531 825.1135,1127.1094 825.1135,1127.5625 L825.1135,1127.6875 L823.6604,1127.6875 L823.6604,1125.2813 L827.6447,1125.2813 L827.6447,1126.1406 C827.6447,1126.5469 827.676,1126.7188 827.7541,1126.875 C827.926,1127.125 828.2072,1127.2813 828.4885,1127.2813 C828.7541,1127.2813 829.0197,1127.1406 829.1916,1126.9219 C829.301,1126.75 829.3322,1126.6094 829.3322,1126.1406 L829.3322,1123.5938 L821.7072,1123.5938 C821.2697,1123.5938 821.1447,1123.6094 820.9885,1123.7031 C820.7385,1123.8594 820.5822,1124.1563 820.5822,1124.4375 C820.5822,1124.7188 820.7229,1124.9688 820.9416,1125.1406 C821.0979,1125.25 821.2854,1125.2813 821.7072,1125.2813 L821.9572,1125.2813 L821.9572,1131.7969 L821.7072,1131.7969 C821.301,1131.7969 821.1447,1131.8125 820.9885,1131.9219 C820.7385,1132.0938 820.5822,1132.3594 820.5822,1132.6563 C820.5822,1132.9219 820.7229,1133.1719 820.9416,1133.3281 C821.0822,1133.4531 821.3166,1133.5 821.7072,1133.5 L829.7072,1133.5 L829.7072,1130.9219 C829.7072,1130.4844 829.676,1130.3438 829.5979,1130.1875 C829.426,1129.9375 829.1447,1129.7813 828.8635,1129.7813 C828.5979,1129.7813 828.3322,1129.8906 828.1604,1130.1406 C828.051,1130.2969 828.0197,1130.4375 828.0197,1130.9219 L828.0197,1131.7969 L823.6604,1131.7969 L823.6604,1129.375 Z " fill="#000000"/><text fill="#000000" font-family="sans-serif" font-size="12" lengthAdjust="spacing" textLength="92" x="845.3635" y="1132.6543">userRepository</text><line style="stroke:#A80036;stroke-width:1.5;" x1="728.6135" x2="1021.6135" y1="1144.5" y2="1144.5"/><ellipse cx="738.6135" cy="1155.5" rx="3" ry="3" style="stroke:#038048;stroke-width:1.0;fill:none;"/><text fill="#000000" font-family="sans-serif" font-size="11" lengthAdjust="spacing" textLength="197" x="747.6135" y="1158.7104">SQLHandler: database.SQLHandler</text><line style="stroke:#A80036;stroke-width:1.5;" x1="728.6135" x2="1021.6135" y1="1165.3047" y2="1165.3047"/><ellipse cx="738.6135" cy="1176.3047" fill="#84BE84" rx="3" ry="3" style="stroke:#038048;stroke-width:1.0;"/><text fill="#000000" font-family="sans-serif" font-size="11" lengthAdjust="spacing" textLength="159" x="747.6135" y="1179.5151">FindAll(): (model.User, error)</text><ellipse cx="738.6135" cy="1189.1094" fill="#84BE84" rx="3" ry="3" style="stroke:#038048;stroke-width:1.0;"/><text fill="#000000" font-family="sans-serif" font-size="11" lengthAdjust="spacing" textLength="244" x="747.6135" y="1192.3198">FindByID(id: uuid.UUID): (model.User, error)</text><ellipse cx="738.6135" cy="1201.9141" fill="#84BE84" rx="3" ry="3" style="stroke:#038048;stroke-width:1.0;"/><text fill="#000000" font-family="sans-serif" font-size="11" lengthAdjust="spacing" textLength="269" x="747.6135" y="1205.1245">Register(user: repository.RegisteredUser): error</text><!--MD5=[fc55364a84fecadf47c4ce9e34d5af7c]
class model.User--><rect codeLine="135" fill="#FEFECE" filter="url(#f1t41gpvt674rg)" height="86.4141" id="model.User" style="stroke:#A80036;stroke-width:1.5;" width="100" x="554.1135" y="1311.5"/><ellipse cx="586.6635" cy="1327.5" fill="#DA70D6" rx="11" ry="11" style="stroke:#A80036;stroke-width:1.0;"/><path d="M586.8197,1331.0469 L584.3666,1325.2813 L584.6947,1325.2813 C585.101,1325.2813 585.2572,1325.25 585.3979,1325.1719 C585.6635,1325.0156 585.8041,1324.7344 585.8041,1324.4375 C585.8041,1324.1719 585.6791,1323.9063 585.476,1323.7344 C585.3041,1323.625 585.1322,1323.5938 584.6947,1323.5938 L582.4291,1323.5938 C581.9916,1323.5938 581.8666,1323.6094 581.7104,1323.7031 C581.4604,1323.8594 581.3041,1324.1563 581.3041,1324.4375 C581.3041,1324.7813 581.5385,1325.125 581.8354,1325.2188 C581.9916,1325.2656 582.1166,1325.2813 582.4604,1325.2813 L585.8979,1333.5 L587.5854,1333.5 L591.0697,1325.2813 C591.4291,1325.2813 591.5385,1325.2656 591.6947,1325.2188 C591.976,1325.125 592.226,1324.7813 592.226,1324.4375 C592.226,1324.1719 592.0854,1323.9063 591.8666,1323.7344 C591.7104,1323.625 591.5385,1323.5938 591.101,1323.5938 L588.851,1323.5938 C588.4135,1323.5938 588.2885,1323.6094 588.1479,1323.7031 C587.8822,1323.8594 587.726,1324.1563 587.726,1324.4375 C587.726,1324.7188 587.8666,1324.9688 588.0697,1325.1406 C588.2572,1325.25 588.3979,1325.2813 588.851,1325.2813 L589.2572,1325.2813 L586.8197,1331.0469 Z " fill="#000000"/><text fill="#000000" font-family="sans-serif" font-size="12" lengthAdjust="spacing" textLength="29" x="604.5635" y="1331.6543">User</text><line style="stroke:#A80036;stroke-width:1.5;" x1="555.1135" x2="653.1135" y1="1343.5" y2="1343.5"/><ellipse cx="565.1135" cy="1354.5" rx="3" ry="3" style="stroke:#038048;stroke-width:1.0;fill:none;"/><text fill="#000000" font-family="sans-serif" font-size="11" lengthAdjust="spacing" textLength="74" x="574.1135" y="1357.7104">ID: uuid.UUID</text><ellipse cx="565.1135" cy="1367.3047" rx="3" ry="3" style="stroke:#038048;stroke-width:1.0;fill:none;"/><text fill="#000000" font-family="sans-serif" font-size="11" lengthAdjust="spacing" textLength="72" x="574.1135" y="1370.5151">Name: string</text><ellipse cx="565.1135" cy="1380.1094" rx="3" ry="3" style="stroke:#038048;stroke-width:1.0;fill:none;"/><text fill="#000000" font-family="sans-serif" font-size="11" lengthAdjust="spacing" textLength="69" x="574.1135" y="1383.3198">Email: string</text><line style="stroke:#A80036;stroke-width:1.5;" x1="555.1135" x2="653.1135" y1="1389.9141" y2="1389.9141"/><!--MD5=[f245b1f699e023235faedeb612af804d]
class repository.RegisteredUser--><rect codeLine="145" fill="#FEFECE" filter="url(#f1t41gpvt674rg)" height="86.4141" id="repository.RegisteredUser" style="stroke:#A80036;stroke-width:1.5;" width="127" x="212.6135" y="1311.5"/><ellipse cx="227.6135" cy="1327.5" fill="#DA70D6" rx="11" ry="11" style="stroke:#A80036;stroke-width:1.0;"/><path d="M227.7698,1331.0469 L225.3166,1325.2813 L225.6448,1325.2813 C226.051,1325.2813 226.2073,1325.25 226.3479,1325.1719 C226.6135,1325.0156 226.7541,1324.7344 226.7541,1324.4375 C226.7541,1324.1719 226.6291,1323.9063 226.426,1323.7344 C226.2541,1323.625 226.0823,1323.5938 225.6448,1323.5938 L223.3791,1323.5938 C222.9416,1323.5938 222.8166,1323.6094 222.6604,1323.7031 C222.4104,1323.8594 222.2541,1324.1563 222.2541,1324.4375 C222.2541,1324.7813 222.4885,1325.125 222.7854,1325.2188 C222.9416,1325.2656 223.0666,1325.2813 223.4104,1325.2813 L226.8479,1333.5 L228.5354,1333.5 L232.0198,1325.2813 C232.3791,1325.2813 232.4885,1325.2656 232.6448,1325.2188 C232.926,1325.125 233.176,1324.7813 233.176,1324.4375 C233.176,1324.1719 233.0354,1323.9063 232.8166,1323.7344 C232.6604,1323.625 232.4885,1323.5938 232.051,1323.5938 L229.801,1323.5938 C229.3635,1323.5938 229.2385,1323.6094 229.0979,1323.7031 C228.8323,1323.8594 228.676,1324.1563 228.676,1324.4375 C228.676,1324.7188 228.8166,1324.9688 229.0198,1325.1406 C229.2073,1325.25 229.3479,1325.2813 229.801,1325.2813 L230.2073,1325.2813 L227.7698,1331.0469 Z " fill="#000000"/><text fill="#000000" font-family="sans-serif" font-size="12" lengthAdjust="spacing" textLength="95" x="241.6135" y="1331.6543">RegisteredUser</text><line style="stroke:#A80036;stroke-width:1.5;" x1="213.6135" x2="338.6135" y1="1343.5" y2="1343.5"/><ellipse cx="223.6135" cy="1354.5" rx="3" ry="3" style="stroke:#038048;stroke-width:1.0;fill:none;"/><text fill="#000000" font-family="sans-serif" font-size="11" lengthAdjust="spacing" textLength="74" x="232.6135" y="1357.7104">ID: uuid.UUID</text><ellipse cx="223.6135" cy="1367.3047" rx="3" ry="3" style="stroke:#038048;stroke-width:1.0;fill:none;"/><text fill="#000000" font-family="sans-serif" font-size="11" lengthAdjust="spacing" textLength="72" x="232.6135" y="1370.5151">Name: string</text><ellipse cx="223.6135" cy="1380.1094" rx="3" ry="3" style="stroke:#038048;stroke-width:1.0;fill:none;"/><text fill="#000000" font-family="sans-serif" font-size="11" lengthAdjust="spacing" textLength="69" x="232.6135" y="1383.3198">Email: string</text><line style="stroke:#A80036;stroke-width:1.5;" x1="213.6135" x2="338.6135" y1="1389.9141" y2="1389.9141"/><!--MD5=[39e2d153c90946d3169456c2f2c5a808]
class repository.UserRepository--><rect codeLine="155" fill="#FEFECE" filter="url(#f1t41gpvt674rg)" height="86.4141" id="repository.UserRepository" style="stroke:#A80036;stroke-width:1.5;" width="301" x="60.6135" y="1119"/><ellipse cx="161.8635" cy="1135" fill="#B4A7E5" rx="11" ry="11" style="stroke:#A80036;stroke-width:1.0;"/><path d="M162.8166,1131.7813 L164.5354,1131.7813 C164.926,1131.7813 165.1135,1131.75 165.2385,1131.6719 C165.5041,1131.5156 165.6448,1131.2344 165.6448,1130.9375 C165.6448,1130.6719 165.5354,1130.4063 165.301,1130.2344 C165.1291,1130.125 164.9885,1130.0938 164.5354,1130.0938 L159.3948,1130.0938 C158.9573,1130.0938 158.8323,1130.1094 158.676,1130.2031 C158.426,1130.3594 158.2698,1130.6563 158.2698,1130.9375 C158.2698,1131.2188 158.4104,1131.4688 158.6291,1131.6406 C158.7854,1131.75 158.9729,1131.7813 159.3948,1131.7813 L161.1135,1131.7813 L161.1135,1138.2969 L159.3948,1138.2969 C158.9573,1138.2969 158.8323,1138.3125 158.676,1138.4219 C158.426,1138.5781 158.2698,1138.8594 158.2698,1139.1563 C158.2698,1139.4063 158.4104,1139.6719 158.6291,1139.8281 C158.7854,1139.9531 158.9885,1140 159.3948,1140 L164.5354,1140 C165.2854,1140 165.6448,1139.7188 165.6448,1139.1563 C165.6448,1138.875 165.5354,1138.625 165.301,1138.4531 C165.1291,1138.3281 164.9885,1138.2969 164.5354,1138.2969 L162.8166,1138.2969 L162.8166,1131.7813 Z " fill="#000000"/><text fill="#000000" font-family="sans-serif" font-size="12" font-style="italic" lengthAdjust="spacing" textLength="90" x="182.3635" y="1139.1543">UserRepository</text><line style="stroke:#A80036;stroke-width:1.5;" x1="61.6135" x2="360.6135" y1="1151" y2="1151"/><line style="stroke:#A80036;stroke-width:1.5;" x1="61.6135" x2="360.6135" y1="1159" y2="1159"/><ellipse cx="71.6135" cy="1170" fill="#84BE84" rx="3" ry="3" style="stroke:#038048;stroke-width:1.0;"/><text fill="#000000" font-family="sans-serif" font-size="11" lengthAdjust="spacing" textLength="159" x="80.6135" y="1173.2104">FindAll(): (model.User, error)</text><ellipse cx="71.6135" cy="1182.8047" fill="#84BE84" rx="3" ry="3" style="stroke:#038048;stroke-width:1.0;"/><text fill="#000000" font-family="sans-serif" font-size="11" lengthAdjust="spacing" textLength="244" x="80.6135" y="1186.0151">FindByID(id: uuid.UUID): (model.User, error)</text><ellipse cx="71.6135" cy="1195.6094" fill="#84BE84" rx="3" ry="3" style="stroke:#038048;stroke-width:1.0;"/><text fill="#000000" font-family="sans-serif" font-size="11" lengthAdjust="spacing" textLength="275" x="80.6135" y="1198.8198">Register(user: *repository.RegisteredUser): error</text><!--MD5=[2de5fb1df29feec12da7bc14b3950b89]
link handler.API to handler.PingHandler--><path codeLine="8" d="M1115.8605,115.16 C1123.2605,136.16 1132.5405,162.48 1139.8605,183.24 " fill="none" id="handler.API-to-handler.PingHandler" style="stroke:#A80036;stroke-width:1.0;"/><polygon fill="#A80036" points="1141.5805,188.12,1142.3695,178.3028,1139.9224,183.4029,1134.8222,180.9558,1141.5805,188.12" style="stroke:#A80036;stroke-width:1.0;"/><!--MD5=[17265d0630d89584ed9ef6005af90399]
link handler.API to handler.UserHandler--><path codeLine="9" d="M1041.7205,115.16 C1011.6535,132.87 975.1565,154.36 943.3205,173.12 " fill="none" id="handler.API-to-handler.UserHandler" style="stroke:#A80036;stroke-width:1.0;"/><polygon fill="#A80036" points="938.6585,175.86,948.4425,174.7315,942.9648,173.3191,944.3771,167.8414,938.6585,175.86" style="stroke:#A80036;stroke-width:1.0;"/><!--MD5=[1c7038ef386663519b0f2532133e0624]
link handler.PingHandler to handler.Context--><path codeLine="32" d="M1201.4905,249.71 C1226.1505,267.54 1253.5605,292.66 1267.1105,323 C1285.0605,363.17 1292.6305,386.16 1267.1105,422 C1203.7805,510.955 1079.2005,543.306 985.8205,554.794 " fill="none" id="handler.PingHandler-to-handler.Context" style="stroke:#A80036;stroke-width:1.0;stroke-dasharray:7.0,7.0;"/><polygon fill="#A80036" points="980.8385,555.391,990.2501,558.2929,985.8031,554.7967,989.2992,550.3496,980.8385,555.391" style="stroke:#A80036;stroke-width:1.0;"/><text fill="#000000" font-family="sans-serif" font-size="13" lengthAdjust="spacing" textLength="39" x="1284.1105" y="377.0669">use</text><!--MD5=[84d9d49d48f5dddf5d6d1c14fdb7384a]
link handler.UserHandler to handler.Context--><path codeLine="43" d="M867.1135,262.09 C867.1135,320.01 867.1135,424.91 867.1135,493.63 " fill="none" id="handler.UserHandler-to-handler.Context" style="stroke:#A80036;stroke-width:1.0;stroke-dasharray:7.0,7.0;"/><polygon fill="#A80036" points="867.1135,498.926,871.1135,489.926,867.1135,493.926,863.1135,489.926,867.1135,498.926" style="stroke:#A80036;stroke-width:1.0;"/><text fill="#000000" font-family="sans-serif" font-size="13" lengthAdjust="spacing" textLength="39" x="868.1135" y="377.0669">use</text><!--MD5=[84d9d49d48f5dddf5d6d1c14fdb7384a]
link handler.UserHandler to handler.Context--><path codeLine="44" d="M892.3265,262.06 C901.7715,280.15 911.3605,301.95 916.1135,323 C925.8025,365.92 923.5585,378.63 916.1135,422 C911.9635,446.173 904.0175,471.727 895.7125,494.215 " fill="none" id="handler.UserHandler-to-handler.Context-1" style="stroke:#A80036;stroke-width:1.0;stroke-dasharray:7.0,7.0;"/><polygon fill="#A80036" points="893.9365,498.965,900.8358,491.9365,895.688,494.2818,893.3427,489.1341,893.9365,498.965" style="stroke:#A80036;stroke-width:1.0;"/><text fill="#000000" font-family="sans-serif" font-size="13" lengthAdjust="spacing" textLength="39" x="923.1135" y="377.0669">use</text><!--MD5=[84d9d49d48f5dddf5d6d1c14fdb7384a]
link handler.UserHandler to handler.Context--><path codeLine="45" d="M757.0995,245.5 C660.4525,269.01 532.9355,303.17 518.1135,323 C491.7695,358.24 493.3965,385.6 518.1135,422 C569.2645,497.33 668.4995,531.689 748.1175,547.36 " fill="none" id="handler.UserHandler-to-handler.Context-2" style="stroke:#A80036;stroke-width:1.0;stroke-dasharray:7.0,7.0;"/><polygon fill="#A80036" points="753.3325,548.365,745.2531,542.7327,748.423,547.418,743.7378,550.5879,753.3325,548.365" style="stroke:#A80036;stroke-width:1.0;"/><text fill="#000000" font-family="sans-serif" font-size="13" lengthAdjust="spacing" textLength="39" x="519.1135" y="377.0669">use</text><!--MD5=[f97c2d0f37251d600b61d8db781d056f]
link handler.pingHandler to handler.Context--><path codeLine="54" d="M1106.9505,403.13 C1069.0205,428.02 1013.4475,464.484 965.3485,496.044 " fill="none" id="handler.pingHandler-to-handler.Context" style="stroke:#A80036;stroke-width:1.0;stroke-dasharray:7.0,7.0;"/><polygon fill="#A80036" points="961.0145,498.888,970.7332,497.2924,965.1942,496.1439,966.3427,490.6049,961.0145,498.888" style="stroke:#A80036;stroke-width:1.0;"/><text fill="#000000" font-family="sans-serif" font-size="13" lengthAdjust="spacing" textLength="39" x="1027.1105" y="465.0669">use</text><!--MD5=[a3c796edb7b266c69225fbb9a0c23b10]
link handler.userDetailRes to handler.userRes--><path codeLine="72" d="M612.1135,115.16 C612.1135,133.83 612.1135,156.72 612.1135,176.16 " fill="none" id="handler.userDetailRes-to-handler.userRes" style="stroke:#A80036;stroke-width:1.0;"/><polygon fill="#A80036" points="612.1135,181.54,616.1135,172.54,612.1135,176.54,608.1135,172.54,612.1135,181.54" style="stroke:#A80036;stroke-width:1.0;"/><!--MD5=[f98df389b85c8c4cb39bd9a618797b94]
link handler.userHandler to usecase.UserService--><path codeLine="84" d="M655.3335,422.04 C605.9175,497.523 511.2945,642.054 462.6505,716.357 " fill="none" id="handler.userHandler-to-usecase.UserService" style="stroke:#A80036;stroke-width:1.0;"/><polygon fill="#A80036" points="459.7985,720.712,468.0749,715.3733,462.5373,716.5288,461.3818,710.9912,459.7985,720.712" style="stroke:#A80036;stroke-width:1.0;"/><!--MD5=[dcf3d06068564bd8e97dcef02e197796]
link handler.userHandler to handler.Context--><path codeLine="86" d="M748.9085,422 C759.9925,431.561 771.1705,441.799 781.1135,452 C793.9955,465.216 806.8865,480.264 818.6225,494.857 " fill="none" id="handler.userHandler-to-handler.Context" style="stroke:#A80036;stroke-width:1.0;stroke-dasharray:7.0,7.0;"/><polygon fill="#A80036" points="821.9005,498.959,819.4081,489.4307,818.7796,495.0526,813.1578,494.4241,821.9005,498.959" style="stroke:#A80036;stroke-width:1.0;"/><text fill="#000000" font-family="sans-serif" font-size="13" lengthAdjust="spacing" textLength="39" x="797.1135" y="465.0669">use</text><!--MD5=[dcf3d06068564bd8e97dcef02e197796]
link handler.userHandler to handler.Context--><path codeLine="87" d="M654.4305,422.35 C648.0845,438.038 645.8905,454.974 655.1135,469 C676.5605,501.617 712.3665,522.659 748.5035,536.213 " fill="none" id="handler.userHandler-to-handler.Context-1" style="stroke:#A80036;stroke-width:1.0;stroke-dasharray:7.0,7.0;"/><polygon fill="#A80036" points="753.3715,537.993,746.2945,531.1434,748.6761,536.2745,743.545,538.6561,753.3715,537.993" style="stroke:#A80036;stroke-width:1.0;"/><text fill="#000000" font-family="sans-serif" font-size="13" lengthAdjust="spacing" textLength="39" x="656.1135" y="465.0669">use</text><!--MD5=[dcf3d06068564bd8e97dcef02e197796]
link handler.userHandler to handler.Context--><path codeLine="88" d="M704.0345,422.13 C711.1045,438.158 720.4365,455.352 732.1135,469 C740.1575,478.401 749.3885,487.259 759.1675,495.485 " fill="none" id="handler.userHandler-to-handler.Context-2" style="stroke:#A80036;stroke-width:1.0;stroke-dasharray:7.0,7.0;"/><polygon fill="#A80036" points="763.0895,498.727,758.7043,489.9083,759.2368,495.54,753.6051,496.0726,763.0895,498.727" style="stroke:#A80036;stroke-width:1.0;"/><text fill="#000000" font-family="sans-serif" font-size="13" lengthAdjust="spacing" textLength="39" x="733.1135" y="465.0669">use</text><!--MD5=[1ec5260e72a10575599f6b6838456fd2]
link infrastructure.sqlHandler to database.SQLHandler--><path codeLine="130" d="M742.2255,820.004 C728.6755,834.782 722.4485,851.544 733.1135,869 C744.9475,888.369 761.8815,904.123 780.8775,916.894 " fill="none" id="infrastructure.sqlHandler-to-database.SQLHandler" style="stroke:#A80036;stroke-width:1.0;stroke-dasharray:7.0,7.0;"/><polygon fill="#A80036" points="785.2215,919.74,779.8848,911.4624,781.039,917.0002,775.5011,918.1544,785.2215,919.74" style="stroke:#A80036;stroke-width:1.0;"/><text fill="#000000" font-family="sans-serif" font-size="13" lengthAdjust="spacing" textLength="55" x="734.1135" y="865.0669">return</text><!--MD5=[1ec5260e72a10575599f6b6838456fd2]
link infrastructure.sqlHandler to database.SQLHandler--><path codeLine="131" d="M824.1005,820.188 C822.8895,836.4 823.9465,853.839 830.1135,869 C837.1345,886.26 848.7485,902.162 861.5455,915.955 " fill="none" id="infrastructure.sqlHandler-to-database.SQLHandler-1" style="stroke:#A80036;stroke-width:1.0;stroke-dasharray:7.0,7.0;"/><polygon fill="#A80036" points="865.1835,919.789,861.8887,910.5076,861.7413,916.1625,856.0864,916.0151,865.1835,919.789" style="stroke:#A80036;stroke-width:1.0;"/><text fill="#000000" font-family="sans-serif" font-size="13" lengthAdjust="spacing" textLength="55" x="831.1135" y="865.0669">return</text><!--MD5=[1ec5260e72a10575599f6b6838456fd2]
link infrastructure.sqlHandler to database.SQLHandler--><path codeLine="132" d="M874.1605,820.405 C880.3155,830.65 886.2535,841.451 891.1135,852 C900.2595,871.852 907.8835,894.641 913.7265,914.769 " fill="none" id="infrastructure.sqlHandler-to-database.SQLHandler-2" style="stroke:#A80036;stroke-width:1.0;stroke-dasharray:7.0,7.0;"/><polygon fill="#A80036" points="915.1735,919.826,916.5429,910.0728,913.7978,915.019,908.8517,912.2739,915.1735,919.826" style="stroke:#A80036;stroke-width:1.0;"/><text fill="#000000" font-family="sans-serif" font-size="13" lengthAdjust="spacing" textLength="55" x="898.1135" y="865.0669">return</text><!--MD5=[68404ce4489012388299ea753e432e16]
reverse link database.SQLHandler to infrastructure.sqlHandler--><path codeLine="227" d="M964.9255,900.977 C969.4735,884.466 970.0835,867.188 962.1135,852 C955.8755,840.113 947.1955,829.53 937.2805,820.2 " fill="none" id="database.SQLHandler-backto-infrastructure.sqlHandler" style="stroke:#A80036;stroke-width:1.0;"/><polygon fill="none" points="971.4775,903.442,958.0555,919.838,958.3235,898.65,971.4775,903.442" style="stroke:#A80036;stroke-width:1.0;"/><!--MD5=[0b74687a7ff082dcb030b6545c563bec]
link repository.UserRepository to model.User--><path codeLine="163" d="M297.8455,1205.042 C374.5545,1242.225 484.1235,1295.337 549.2945,1326.927 " fill="none" id="repository.UserRepository-to-model.User" style="stroke:#A80036;stroke-width:1.0;stroke-dasharray:7.0,7.0;"/><polygon fill="#A80036" points="553.9085,1329.164,547.5528,1321.6404,549.4087,1326.9841,544.065,1328.84,553.9085,1329.164" style="stroke:#A80036;stroke-width:1.0;"/><text fill="#000000" font-family="sans-serif" font-size="13" lengthAdjust="spacing" textLength="55" x="409.1135" y="1256.5669">return</text><!--MD5=[cccd9b13c27979a5a19c6d5fd5897786]
link repository.UserRepository to repository.RegisteredUser--><path codeLine="164" d="M225.5395,1205.278 C235.7635,1235.244 249.4875,1275.466 260.0595,1306.45 " fill="none" id="repository.UserRepository-to-repository.RegisteredUser" style="stroke:#A80036;stroke-width:1.0;stroke-dasharray:7.0,7.0;"/><polygon fill="#A80036" points="261.7285,1311.34,262.6081,1301.5305,260.114,1306.6078,255.0366,1304.1137,261.7285,1311.34" style="stroke:#A80036;stroke-width:1.0;"/><text fill="#000000" font-family="sans-serif" font-size="13" lengthAdjust="spacing" textLength="39" x="245.1135" y="1256.5669">use</text><!--MD5=[52f02d346c6b09d4c5c6c21da57432cb]
link usecase.UserService to model.User--><path codeLine="175" d="M522.8315,807.265 C551.0545,824.874 579.3895,848.068 597.1135,877 C682.8725,1016.986 632.8715,1079.653 643.1135,1243.5 C643.5845,1251.041 644.6035,1253.093 643.1135,1260.5 C640.0105,1275.921 634.2825,1291.972 628.1535,1306.312 " fill="none" id="usecase.UserService-to-model.User" style="stroke:#A80036;stroke-width:1.0;stroke-dasharray:7.0,7.0;"/><polygon fill="#A80036" points="626.0625,1311.107,633.3267,1304.4563,628.0612,1306.5239,625.9936,1301.2584,626.0625,1311.107" style="stroke:#A80036;stroke-width:1.0;"/><text fill="#000000" font-family="sans-serif" font-size="13" lengthAdjust="spacing" textLength="55" x="650.1135" y="1064.0669">return</text><!--MD5=[bc8e95455000533ef697b31ec9738a6a]
link usecase.UserService to repository.RegisteredUser--><path codeLine="176" d="M338.7055,807.185 C243.2155,856.231 100.9559,947.242 43.1135,1076 C14.0644,1140.664 6,1175.103 43.1135,1235.5 C78.7159,1293.438 152.5705,1323.99 207.6385,1339.3584 " fill="none" id="usecase.UserService-to-repository.RegisteredUser" style="stroke:#A80036;stroke-width:1.0;stroke-dasharray:7.0,7.0;"/><polygon fill="#A80036" points="212.5725,1340.7088,204.9478,1334.4747,207.7499,1339.3888,202.8358,1342.1909,212.5725,1340.7088" style="stroke:#A80036;stroke-width:1.0;"/><text fill="#000000" font-family="sans-serif" font-size="13" lengthAdjust="spacing" textLength="39" x="56.1135" y="1064.0669">use</text><!--MD5=[28651a37f7271240892e7cc859b883a0]
link usecase.userService to repository.UserRepository--><path codeLine="187" d="M375.7745,1019.064 C341.3655,1048.724 297.6475,1086.408 263.9075,1115.492 " fill="none" id="usecase.userService-to-repository.UserRepository" style="stroke:#A80036;stroke-width:1.0;"/><polygon fill="#A80036" points="259.8435,1118.995,269.2722,1116.1489,263.6308,1115.7306,264.0491,1110.0892,259.8435,1118.995" style="stroke:#A80036;stroke-width:1.0;"/><!--MD5=[27c7ffea6672060aab43c565de4e03af]
link usecase.userService to model.User--><path codeLine="189" d="M453.8975,1019.007 C487.1565,1093.066 550.1845,1233.414 583.0235,1306.538 " fill="none" id="usecase.userService-to-model.User" style="stroke:#A80036;stroke-width:1.0;stroke-dasharray:7.0,7.0;"/><polygon fill="#A80036" points="585.1425,1311.256,585.1042,1301.4072,583.0941,1306.6949,577.8064,1304.6847,585.1425,1311.256" style="stroke:#A80036;stroke-width:1.0;"/><text fill="#000000" font-family="sans-serif" font-size="13" lengthAdjust="spacing" textLength="55" x="550.1135" y="1166.5669">return</text><!--MD5=[13de35523f73bcab3d66c4bd5900eb3c]
link usecase.userService to repository.RegisteredUser--><path codeLine="190" d="M429.8615,1019.324 C425.6605,1074.399 413.6195,1165.416 379.1135,1235.5 C366.0535,1262.026 345.5055,1287.307 326.1875,1307.614 " fill="none" id="usecase.userService-to-repository.RegisteredUser" style="stroke:#A80036;stroke-width:1.0;stroke-dasharray:7.0,7.0;"/><polygon fill="#A80036" points="322.5975,1311.347,331.7196,1307.6339,326.0638,1307.7436,325.9541,1302.0878,322.5975,1311.347" style="stroke:#A80036;stroke-width:1.0;"/><text fill="#000000" font-family="sans-serif" font-size="13" lengthAdjust="spacing" textLength="39" x="425.1135" y="1166.5669">use</text><!--MD5=[bd7b98cca169a938dc80f901419524e9]
link database.SQLHandler to database.SQLHandler--><path codeLine="202" d="M1127.2605,964.821 C1148.4905,965.729 1162.1105,967.288 1162.1105,969.5 C1162.1105,971.522 1150.7305,972.999 1132.5605,973.93 " fill="none" id="database.SQLHandler-to-database.SQLHandler" style="stroke:#A80036;stroke-width:1.0;stroke-dasharray:7.0,7.0;"/><polygon fill="#A80036" points="1127.2605,974.179,1136.4442,977.7372,1132.2546,973.9362,1136.0556,969.7466,1127.2605,974.179" style="stroke:#A80036;stroke-width:1.0;"/><text fill="#000000" font-family="sans-serif" font-size="13" lengthAdjust="spacing" textLength="55" x="1168.1105" y="974.0669">return</text><!--MD5=[bd7b98cca169a938dc80f901419524e9]
link database.SQLHandler to database.SQLHandler--><path codeLine="203" d="M1127.4205,958.326 C1184.4505,958.89 1229.1105,962.615 1229.1105,969.5 C1229.1105,976.17 1187.2005,979.874 1132.7305,980.612 " fill="none" id="database.SQLHandler-to-database.SQLHandler-1" style="stroke:#A80036;stroke-width:1.0;stroke-dasharray:7.0,7.0;"/><polygon fill="#A80036" points="1127.4205,980.674,1136.4656,984.5709,1132.4202,980.6169,1136.3742,976.5714,1127.4205,980.674" style="stroke:#A80036;stroke-width:1.0;"/><text fill="#000000" font-family="sans-serif" font-size="13" lengthAdjust="spacing" textLength="55" x="1235.1105" y="974.0669">return</text><!--MD5=[bd7b98cca169a938dc80f901419524e9]
link database.SQLHandler to database.SQLHandler--><path codeLine="204" d="M1127.5505,952.767 C1216.4505,951.64 1296.1105,957.217 1296.1105,969.5 C1296.1105,981.543 1219.5305,987.14 1132.7505,986.291 " fill="none" id="database.SQLHandler-to-database.SQLHandler-2" style="stroke:#A80036;stroke-width:1.0;stroke-dasharray:7.0,7.0;"/><polygon fill="#A80036" points="1127.5505,986.233,1136.5042,990.3356,1132.5502,986.2901,1136.5956,982.3361,1127.5505,986.233" style="stroke:#A80036;stroke-width:1.0;"/><text fill="#000000" font-family="sans-serif" font-size="13" lengthAdjust="spacing" textLength="55" x="1302.1105" y="974.0669">return</text><!--MD5=[1c5e5b1accb49fc36eea0ae143b08eeb]
link database.userRepository to database.SQLHandler--><path codeLine="215" d="M900.3945,1112.194 C909.6825,1085.276 918.9265,1051.807 924.7515,1024.156 " fill="none" id="database.userRepository-to-database.SQLHandler" style="stroke:#A80036;stroke-width:1.0;"/><polygon fill="#A80036" points="925.7975,1019.064,920.067,1027.0741,924.7906,1023.9616,927.9031,1028.6852,925.7975,1019.064" style="stroke:#A80036;stroke-width:1.0;"/><!--MD5=[b55dc9ce97a17b000110d1d01827557c]
reverse link database.SQLHandler to database.userRepository--><path codeLine="224" d="M896.3245,1038.349 C888.7885,1062.736 881.7415,1089.744 877.1415,1112.194 " fill="none" id="database.SQLHandler-backto-database.userRepository" style="stroke:#A80036;stroke-width:1.0;"/><polygon fill="none" points="889.7505,1035.928,902.5795,1019.064,903.0665,1040.248,889.7505,1035.928" style="stroke:#A80036;stroke-width:1.0;"/><!--MD5=[b2161dd8f5806dd8dc7e8cbfc3d12e5e]
link database.userRepository to model.User--><path codeLine="217" d="M806.0275,1211.564 C760.2415,1243.75 701.0135,1285.384 658.5635,1315.224 " fill="none" id="database.userRepository-to-model.User" style="stroke:#A80036;stroke-width:1.0;stroke-dasharray:7.0,7.0;"/><polygon fill="#A80036" points="654.2505,1318.256,663.9139,1316.3539,658.3413,1315.3811,659.3141,1309.8085,654.2505,1318.256" style="stroke:#A80036;stroke-width:1.0;"/><text fill="#000000" font-family="sans-serif" font-size="13" lengthAdjust="spacing" textLength="55" x="756.1135" y="1256.5669">return</text><!--MD5=[c4bc91618b84204addbeadf627b4e993]
link database.userRepository to repository.RegisteredUser--><path codeLine="218" d="M727.3715,1208.89 C668.4495,1227.286 600.0295,1248.765 538.1135,1268.5 C472.4585,1289.426 397.7015,1313.726 344.8935,1330.9716 " fill="none" id="database.userRepository-to-repository.RegisteredUser" style="stroke:#A80036;stroke-width:1.0;stroke-dasharray:7.0,7.0;"/><polygon fill="#A80036" points="339.8525,1332.6181,349.6497,1333.6253,344.6053,1331.0653,347.1653,1326.0209,339.8525,1332.6181" style="stroke:#A80036;stroke-width:1.0;"/><text fill="#000000" font-family="sans-serif" font-size="13" lengthAdjust="spacing" textLength="39" x="613.1135" y="1256.5669">use</text><!--MD5=[914852c46cec5fe8d6a1f9b84e645168]
reverse link handler.PingHandler to handler.pingHandler--><path codeLine="220" d="M1152.1105,269.63 C1152.1105,293.46 1152.1105,321.23 1152.1105,341.75 " fill="none" id="handler.PingHandler-backto-handler.pingHandler" style="stroke:#A80036;stroke-width:1.0;"/><polygon fill="none" points="1145.1105,269.57,1152.1105,249.57,1159.1105,269.57,1145.1105,269.57" style="stroke:#A80036;stroke-width:1.0;"/><!--MD5=[378345d9e56b6ca2224ba5e82cae7c9f]
reverse link handler.UserHandler to handler.userHandler--><path codeLine="221" d="M801.5035,275.22 C782.9785,290.81 762.9625,307.66 744.9315,322.84 " fill="none" id="handler.UserHandler-backto-handler.userHandler" style="stroke:#A80036;stroke-width:1.0;"/><polygon fill="none" points="797.1645,269.72,816.9735,262.2,806.1795,280.44,797.1645,269.72" style="stroke:#A80036;stroke-width:1.0;"/><!--MD5=[d29dd70b63f7eba859cf4de3573bedc4]
reverse link handler.Context to infrastructure.context--><path codeLine="222" d="M1000.0335,589.62 C1058.1905,605.527 1125.2705,629.64 1179.1105,665 C1206.5005,682.984 1230.6005,711.744 1246.4505,733.467 " fill="none" id="handler.Context-backto-infrastructure.context" style="stroke:#A80036;stroke-width:1.0;"/><polygon fill="none" points="998.2505,596.39,980.6865,584.536,1001.8085,582.849,998.2505,596.39" style="stroke:#A80036;stroke-width:1.0;"/><!--MD5=[74a081f0e6547e4a733c83b84e2d7399]
reverse link usecase.UserService to usecase.userService--><path codeLine="223" d="M432.1135,827.253 C432.1135,857.042 432.1135,892.179 432.1135,919.955 " fill="none" id="usecase.UserService-backto-usecase.userService" style="stroke:#A80036;stroke-width:1.0;"/><polygon fill="none" points="425.1135,827.165,432.1135,807.165,439.1135,827.165,425.1135,827.165" style="stroke:#A80036;stroke-width:1.0;"/><!--MD5=[43885fac6a99a4710388b0e0689dbd88]
reverse link repository.UserRepository to database.userRepository--><path codeLine="226" d="M292.0215,1108.34 C325.9375,1088.903 366.7125,1069.326 406.6135,1059.5 C531.9245,1028.642 677.2395,1072.727 772.3975,1112.316 " fill="none" id="repository.UserRepository-backto-database.userRepository" style="stroke:#A80036;stroke-width:1.0;"/><polygon fill="none" points="295.2205,1114.58,274.4455,1118.748,288.0875,1102.534,295.2205,1114.58" style="stroke:#A80036;stroke-width:1.0;"/><!--MD5=[3d4ada646f43f4015bdac129a61232b6]
@startuml
package "handler" {
	class "API" as handler.API <<V,Orchid>> {
		+Ping: handler.PingHandler
		+User: handler.UserHandler
	}
}

	handler.API - -> handler.PingHandler
	handler.API - -> handler.UserHandler


package "handler" {
	interface "Context" as handler.Context {
		+Bind(i: interface{}): error
		+JSON(code: int, i: interface{}): error
		+NoContent(code: int): error
		+Param(name: string): string
		+String(code: int, s: string): error
		+Validate(i: interface{}): error
	}
}



package "handler" {
	interface "PingHandler" as handler.PingHandler {
		+Ping(c: handler.Context): error
	}
}


	handler.PingHandler ..> handler.Context : <<use>>

package "handler" {
	interface "UserHandler" as handler.UserHandler {
		+GetAll(c: handler.Context): error
		+GetByID(c: handler.Context): error
		+Register(c: handler.Context): error
	}
}


	handler.UserHandler ..> handler.Context : <<use>>
	handler.UserHandler ..> handler.Context : <<use>>
	handler.UserHandler ..> handler.Context : <<use>>

package "handler" {
	class "pingHandler" as handler.pingHandler <<E,#FFCC00>> {
		+Ping(c: handler.Context): error
	}
}


	handler.pingHandler ..> handler.Context : <<use>>

package "handler" {
	class "registerReq" as handler.registerReq <<V,Orchid>> {
		+Name: string
		+Email: string
	}
}



package "handler" {
	class "userDetailRes" as handler.userDetailRes <<V,Orchid>> {
		-userRes: handler.userRes
		+Email: string
	}
}

	handler.userDetailRes - -> handler.userRes


package "handler" {
	class "userHandler" as handler.userHandler <<E,#FFCC00>> {
		-uc: usecase.UserService
		+GetAll(c: handler.Context): error
		+GetByID(c: handler.Context): error
		+Register(c: handler.Context): error
	}
}

	handler.userHandler - -> usecase.UserService

	handler.userHandler ..> handler.Context : <<use>>
	handler.userHandler ..> handler.Context : <<use>>
	handler.userHandler ..> handler.Context : <<use>>

package "handler" {
	class "userRes" as handler.userRes <<V,Orchid>> {
		+ID: uuid.UUID
		+Name: string
	}
}



package "infrastructure" {
	class "context" as infrastructure.context <<V,Orchid>> {
		+Context: v4.Context
	}
}



package "infrastructure" {
	class "sqlConfig" as infrastructure.sqlConfig <<V,Orchid>> {
		-user: string
		-pass: string
		-host: string
		-port: string
		-db: string
	}
}



package "infrastructure" {
	class "sqlHandler" as infrastructure.sqlHandler <<E,#FFCC00>> {
		-conn: gorm.DB
		+Create(value: interface{}): database.SQLHandler
		+Error(): error
		+Find(out: interface{}, where: []interface{}): database.SQLHandler
		+First(out: interface{}, where: []interface{}): database.SQLHandler
	}
}


	infrastructure.sqlHandler ..> database.SQLHandler : <<return>>
	infrastructure.sqlHandler ..> database.SQLHandler : <<return>>
	infrastructure.sqlHandler ..> database.SQLHandler : <<return>>

package "model" {
	class "User" as model.User <<V,Orchid>> {
		+ID: uuid.UUID
		+Name: string
		+Email: string
	}
}



package "repository" {
	class "RegisteredUser" as repository.RegisteredUser <<V,Orchid>> {
		+ID: uuid.UUID
		+Name: string
		+Email: string
	}
}



package "repository" {
	interface "UserRepository" as repository.UserRepository {
		+FindAll(): (model.User, error)
		+FindByID(id: uuid.UUID): (model.User, error)
		+Register(user: *repository.RegisteredUser): error
	}
}


	repository.UserRepository ..> model.User : <<return>>
	repository.UserRepository ..> repository.RegisteredUser : <<use>>

package "usecase" {
	interface "UserService" as usecase.UserService {
		+GetAll(): (model.User, error)
		+GetByID(id: uuid.UUID): (model.User, error)
		+Register(user: repository.RegisteredUser): error
	}
}


	usecase.UserService ..> model.User : <<return>>
	usecase.UserService ..> repository.RegisteredUser : <<use>>

package "usecase" {
	class "userService" as usecase.userService <<E,#FFCC00>> {
		-repo: repository.UserRepository
		+GetAll(): (model.User, error)
		+GetByID(id: uuid.UUID): (model.User, error)
		+Register(user: repository.RegisteredUser): error
	}
}

	usecase.userService - -> repository.UserRepository

	usecase.userService ..> model.User : <<return>>
	usecase.userService ..> repository.RegisteredUser : <<use>>

package "database" {
	interface "SQLHandler" as database.SQLHandler {
		+Create(value: interface{}): database.SQLHandler
		+Error(): error
		+Find(out: interface{}, where: []interface{}): database.SQLHandler
		+First(out: interface{}, where: []interface{}): database.SQLHandler
	}
}


	database.SQLHandler ..> database.SQLHandler : <<return>>
	database.SQLHandler ..> database.SQLHandler : <<return>>
	database.SQLHandler ..> database.SQLHandler : <<return>>

package "database" {
	class "userRepository" as database.userRepository <<E,#FFCC00>> {
		+SQLHandler: database.SQLHandler
		+FindAll(): (model.User, error)
		+FindByID(id: uuid.UUID): (model.User, error)
		+Register(user: repository.RegisteredUser): error
	}
}

	database.userRepository - -> database.SQLHandler

	database.userRepository ..> model.User : <<return>>
	database.userRepository ..> repository.RegisteredUser : <<use>>

	handler.pingHandler -up-|> handler.PingHandler
	handler.userHandler -up-|> handler.UserHandler
	infrastructure.context -up-|> handler.Context
	usecase.userService -up-|> usecase.UserService
	database.userRepository -up-|> database.SQLHandler

	database.userRepository -up-|> repository.UserRepository
	infrastructure.sqlHandler -up-|> database.SQLHandler
@enduml

PlantUML version 1.2021.10(Mon Aug 30 13:43:48 UTC 2021)
(GPL source distribution)
Java Runtime: Java(TM) SE Runtime Environment
JVM: Java HotSpot(TM) 64-Bit Server VM
Default Encoding: UTF-8
Language: en
Country: US
--></g></svg>