<?xml version="1.0" encoding="UTF-8" standalone="no"?><svg xmlns="http://www.w3.org/2000/svg" xmlns:xlink="http://www.w3.org/1999/xlink" contentScriptType="application/ecmascript" contentStyleType="text/css" height="1116px" preserveAspectRatio="none" style="width:1429px;height:1116px;background:#FFFFFF;" version="1.1" viewBox="0 0 1429 1116" width="1429px" zoomAndPan="magnify"><defs><filter height="300%" id="f3wtellbsw959" width="300%" x="-1" y="-1"><feGaussianBlur result="blurOut" stdDeviation="2.0"/><feColorMatrix in="blurOut" result="blurOut2" type="matrix" values="0 0 0 0 0 0 0 0 0 0 0 0 0 0 0 0 0 0 .4 0"/><feOffset dx="4.0" dy="4.0" in="blurOut2" result="blurOut3"/><feBlend in="SourceGraphic" in2="blurOut3" mode="normal"/></filter></defs><g><!--MD5=[bd0bd4c41e0e5269e37474fd45a6abb7]
cluster repository--><polygon fill="#FFFFFF" filter="url(#f3wtellbsw959)" points="74,747,164,747,171,769.2969,376,769.2969,376,923,74,923,74,747" style="stroke:#000000;stroke-width:1.5;"/><line style="stroke:#000000;stroke-width:1.5;" x1="74" x2="171" y1="769.2969" y2="769.2969"/><text fill="#000000" font-family="sans-serif" font-size="14" font-weight="bold" lengthAdjust="spacing" textLength="84" x="78" y="761.9951">repository</text><!--MD5=[5d4cd377749310b66bf14896f5cd8d9b]
cluster model--><polygon fill="#FFFFFF" filter="url(#f3wtellbsw959)" points="332,972,387,972,394,994.2969,464,994.2969,464,1109,332,1109,332,972" style="stroke:#000000;stroke-width:1.5;"/><line style="stroke:#000000;stroke-width:1.5;" x1="332" x2="394" y1="994.2969" y2="994.2969"/><text fill="#000000" font-family="sans-serif" font-size="14" font-weight="bold" lengthAdjust="spacing" textLength="49" x="336" y="986.9951">model</text><!--MD5=[7579d5565d2521d5936cec86ed3dadee]
cluster service--><polygon fill="#FFFFFF" filter="url(#f3wtellbsw959)" points="314,401,377,401,384,423.2969,614,423.2969,614,698,314,698,314,401" style="stroke:#000000;stroke-width:1.5;"/><line style="stroke:#000000;stroke-width:1.5;" x1="314" x2="384" y1="423.2969" y2="423.2969"/><text fill="#000000" font-family="sans-serif" font-size="14" font-weight="bold" lengthAdjust="spacing" textLength="57" x="318" y="415.9951">service</text><!--MD5=[db65ce44d5e360fb4ec835f941dc7573]
cluster database--><polygon fill="#FFFFFF" filter="url(#f3wtellbsw959)" points="725,218,807,218,814,240.2969,1412,240.2969,1412,368,725,368,725,218" style="stroke:#000000;stroke-width:1.5;"/><line style="stroke:#000000;stroke-width:1.5;" x1="725" x2="814" y1="240.2969" y2="240.2969"/><text fill="#000000" font-family="sans-serif" font-size="14" font-weight="bold" lengthAdjust="spacing" textLength="76" x="729" y="232.9951">database</text><!--MD5=[5336d0432c5753478f8bb0248199b33b]
cluster handler--><polygon fill="#FFFFFF" filter="url(#f3wtellbsw959)" points="16,25,83,25,90,47.2969,576,47.2969,576,368,16,368,16,25" style="stroke:#000000;stroke-width:1.5;"/><line style="stroke:#000000;stroke-width:1.5;" x1="16" x2="90" y1="47.2969" y2="47.2969"/><text fill="#000000" font-family="sans-serif" font-size="14" font-weight="bold" lengthAdjust="spacing" textLength="61" x="20" y="39.9951">handler</text><!--MD5=[77349be1bd27b81b697a0f9b3aded3c8]
cluster infrastructure--><polygon fill="#FFFFFF" filter="url(#f3wtellbsw959)" points="600,6,722,6,729,28.2969,1157,28.2969,1157,169,600,169,600,6" style="stroke:#000000;stroke-width:1.5;"/><line style="stroke:#000000;stroke-width:1.5;" x1="600" x2="729" y1="28.2969" y2="28.2969"/><text fill="#000000" font-family="sans-serif" font-size="14" font-weight="bold" lengthAdjust="spacing" textLength="116" x="604" y="20.9951">infrastructure</text><!--MD5=[39e2d153c90946d3169456c2f2c5a808]
class repository.UserRepository--><rect codeLine="2" fill="#FEFECE" filter="url(#f3wtellbsw959)" height="124.8281" id="repository.UserRepository" style="stroke:#A80036;stroke-width:1.5;" width="270" x="90" y="782"/><ellipse cx="175.75" cy="798" fill="#B4A7E5" rx="11" ry="11" style="stroke:#A80036;stroke-width:1.0;"/><path d="M176.7031,794.7813 L178.4219,794.7813 C178.8125,794.7813 179,794.75 179.125,794.6719 C179.3906,794.5156 179.5313,794.2344 179.5313,793.9375 C179.5313,793.6719 179.4219,793.4063 179.1875,793.2344 C179.0156,793.125 178.875,793.0938 178.4219,793.0938 L173.2813,793.0938 C172.8438,793.0938 172.7188,793.1094 172.5625,793.2031 C172.3125,793.3594 172.1563,793.6563 172.1563,793.9375 C172.1563,794.2188 172.2969,794.4688 172.5156,794.6406 C172.6719,794.75 172.8594,794.7813 173.2813,794.7813 L175,794.7813 L175,801.2969 L173.2813,801.2969 C172.8438,801.2969 172.7188,801.3125 172.5625,801.4219 C172.3125,801.5781 172.1563,801.8594 172.1563,802.1563 C172.1563,802.4063 172.2969,802.6719 172.5156,802.8281 C172.6719,802.9531 172.875,803 173.2813,803 L178.4219,803 C179.1719,803 179.5313,802.7188 179.5313,802.1563 C179.5313,801.875 179.4219,801.625 179.1875,801.4531 C179.0156,801.3281 178.875,801.2969 178.4219,801.2969 L176.7031,801.2969 L176.7031,794.7813 Z " fill="#000000"/><text fill="#000000" font-family="sans-serif" font-size="12" font-style="italic" lengthAdjust="spacing" textLength="90" x="196.25" y="802.1543">UserRepository</text><line style="stroke:#A80036;stroke-width:1.5;" x1="91" x2="359" y1="814" y2="814"/><line style="stroke:#A80036;stroke-width:1.5;" x1="91" x2="359" y1="822" y2="822"/><ellipse cx="101" cy="833" fill="#84BE84" rx="3" ry="3" style="stroke:#038048;stroke-width:1.0;"/><text fill="#000000" font-family="sans-serif" font-size="11" lengthAdjust="spacing" textLength="159" x="110" y="836.2104">FindAll(): (model.User, error)</text><ellipse cx="101" cy="845.8047" fill="#84BE84" rx="3" ry="3" style="stroke:#038048;stroke-width:1.0;"/><text fill="#000000" font-family="sans-serif" font-size="11" lengthAdjust="spacing" textLength="244" x="110" y="849.0151">FindByID(id: uuid.UUID): (model.User, error)</text><ellipse cx="101" cy="858.6094" fill="#84BE84" rx="3" ry="3" style="stroke:#038048;stroke-width:1.0;"/><text fill="#000000" font-family="sans-serif" font-size="11" lengthAdjust="spacing" textLength="186" x="110" y="861.8198">Register(user: model.User): error</text><ellipse cx="101" cy="871.4141" fill="#84BE84" rx="3" ry="3" style="stroke:#038048;stroke-width:1.0;"/><text fill="#000000" font-family="sans-serif" font-size="11" lengthAdjust="spacing" textLength="159" x="110" y="874.6245">FindAll(): (model.User, error)</text><ellipse cx="101" cy="884.2188" fill="#84BE84" rx="3" ry="3" style="stroke:#038048;stroke-width:1.0;"/><text fill="#000000" font-family="sans-serif" font-size="11" lengthAdjust="spacing" textLength="244" x="110" y="887.4292">FindByID(id: uuid.UUID): (model.User, error)</text><ellipse cx="101" cy="897.0234" fill="#84BE84" rx="3" ry="3" style="stroke:#038048;stroke-width:1.0;"/><text fill="#000000" font-family="sans-serif" font-size="11" lengthAdjust="spacing" textLength="186" x="110" y="900.2339">Register(user: model.User): error</text><!--MD5=[fc55364a84fecadf47c4ce9e34d5af7c]
class model.User--><rect codeLine="145" fill="#FEFECE" filter="url(#f3wtellbsw959)" height="86.4141" id="model.User" style="stroke:#A80036;stroke-width:1.5;" width="100" x="348" y="1007"/><ellipse cx="380.55" cy="1023" fill="#DA70D6" rx="11" ry="11" style="stroke:#A80036;stroke-width:1.0;"/><path d="M380.7063,1026.5469 L378.2531,1020.7813 L378.5813,1020.7813 C378.9875,1020.7813 379.1438,1020.75 379.2844,1020.6719 C379.55,1020.5156 379.6906,1020.2344 379.6906,1019.9375 C379.6906,1019.6719 379.5656,1019.4063 379.3625,1019.2344 C379.1906,1019.125 379.0188,1019.0938 378.5813,1019.0938 L376.3156,1019.0938 C375.8781,1019.0938 375.7531,1019.1094 375.5969,1019.2031 C375.3469,1019.3594 375.1906,1019.6563 375.1906,1019.9375 C375.1906,1020.2813 375.425,1020.625 375.7219,1020.7188 C375.8781,1020.7656 376.0031,1020.7813 376.3469,1020.7813 L379.7844,1029 L381.4719,1029 L384.9563,1020.7813 C385.3156,1020.7813 385.425,1020.7656 385.5813,1020.7188 C385.8625,1020.625 386.1125,1020.2813 386.1125,1019.9375 C386.1125,1019.6719 385.9719,1019.4063 385.7531,1019.2344 C385.5969,1019.125 385.425,1019.0938 384.9875,1019.0938 L382.7375,1019.0938 C382.3,1019.0938 382.175,1019.1094 382.0344,1019.2031 C381.7688,1019.3594 381.6125,1019.6563 381.6125,1019.9375 C381.6125,1020.2188 381.7531,1020.4688 381.9563,1020.6406 C382.1438,1020.75 382.2844,1020.7813 382.7375,1020.7813 L383.1438,1020.7813 L380.7063,1026.5469 Z " fill="#000000"/><text fill="#000000" font-family="sans-serif" font-size="12" lengthAdjust="spacing" textLength="29" x="398.45" y="1027.1543">User</text><line style="stroke:#A80036;stroke-width:1.5;" x1="349" x2="447" y1="1039" y2="1039"/><ellipse cx="359" cy="1050" rx="3" ry="3" style="stroke:#038048;stroke-width:1.0;fill:none;"/><text fill="#000000" font-family="sans-serif" font-size="11" lengthAdjust="spacing" textLength="74" x="368" y="1053.2104">ID: uuid.UUID</text><ellipse cx="359" cy="1062.8047" rx="3" ry="3" style="stroke:#038048;stroke-width:1.0;fill:none;"/><text fill="#000000" font-family="sans-serif" font-size="11" lengthAdjust="spacing" textLength="72" x="368" y="1066.0151">Name: string</text><ellipse cx="359" cy="1075.6094" rx="3" ry="3" style="stroke:#038048;stroke-width:1.0;fill:none;"/><text fill="#000000" font-family="sans-serif" font-size="11" lengthAdjust="spacing" textLength="69" x="368" y="1078.8198">Email: string</text><line style="stroke:#A80036;stroke-width:1.5;" x1="349" x2="447" y1="1085.4141" y2="1085.4141"/><!--MD5=[4c63da387092d3de4e4c1437a3844d2a]
class service.UserService--><rect codeLine="19" fill="#FEFECE" filter="url(#f3wtellbsw959)" height="86.4141" id="service.UserService" style="stroke:#A80036;stroke-width:1.5;" width="268" x="330" y="436"/><ellipse cx="424.25" cy="452" fill="#B4A7E5" rx="11" ry="11" style="stroke:#A80036;stroke-width:1.0;"/><path d="M425.2031,448.7813 L426.9219,448.7813 C427.3125,448.7813 427.5,448.75 427.625,448.6719 C427.8906,448.5156 428.0313,448.2344 428.0313,447.9375 C428.0313,447.6719 427.9219,447.4063 427.6875,447.2344 C427.5156,447.125 427.375,447.0938 426.9219,447.0938 L421.7813,447.0938 C421.3438,447.0938 421.2188,447.1094 421.0625,447.2031 C420.8125,447.3594 420.6563,447.6563 420.6563,447.9375 C420.6563,448.2188 420.7969,448.4688 421.0156,448.6406 C421.1719,448.75 421.3594,448.7813 421.7813,448.7813 L423.5,448.7813 L423.5,455.2969 L421.7813,455.2969 C421.3438,455.2969 421.2188,455.3125 421.0625,455.4219 C420.8125,455.5781 420.6563,455.8594 420.6563,456.1563 C420.6563,456.4063 420.7969,456.6719 421.0156,456.8281 C421.1719,456.9531 421.375,457 421.7813,457 L426.9219,457 C427.6719,457 428.0313,456.7188 428.0313,456.1563 C428.0313,455.875 427.9219,455.625 427.6875,455.4531 C427.5156,455.3281 427.375,455.2969 426.9219,455.2969 L425.2031,455.2969 L425.2031,448.7813 Z " fill="#000000"/><text fill="#000000" font-family="sans-serif" font-size="12" font-style="italic" lengthAdjust="spacing" textLength="71" x="444.75" y="456.1543">UserService</text><line style="stroke:#A80036;stroke-width:1.5;" x1="331" x2="597" y1="468" y2="468"/><line style="stroke:#A80036;stroke-width:1.5;" x1="331" x2="597" y1="476" y2="476"/><ellipse cx="341" cy="487" fill="#84BE84" rx="3" ry="3" style="stroke:#038048;stroke-width:1.0;"/><text fill="#000000" font-family="sans-serif" font-size="11" lengthAdjust="spacing" textLength="157" x="350" y="490.2104">GetAll(): (model.User, error)</text><ellipse cx="341" cy="499.8047" fill="#84BE84" rx="3" ry="3" style="stroke:#038048;stroke-width:1.0;"/><text fill="#000000" font-family="sans-serif" font-size="11" lengthAdjust="spacing" textLength="242" x="350" y="503.0151">GetByID(id: uuid.UUID): (model.User, error)</text><ellipse cx="341" cy="512.6094" fill="#84BE84" rx="3" ry="3" style="stroke:#038048;stroke-width:1.0;"/><text fill="#000000" font-family="sans-serif" font-size="11" lengthAdjust="spacing" textLength="186" x="350" y="515.8198">Register(user: model.User): error</text><!--MD5=[46a06a302e9baaaadd3fa737e5f02df3]
class service.userSerUserService--><rect codeLine="31" fill="#FEFECE" filter="url(#f3wtellbsw959)" height="99.2188" id="service.userSerUserService" style="stroke:#A80036;stroke-width:1.5;" width="268" x="330" y="583"/><ellipse cx="398.25" cy="599" fill="#FFCC00" rx="11" ry="11" style="stroke:#A80036;stroke-width:1.0;"/><path d="M397.0469,599.875 L398.5,599.875 L398.5,599.9844 C398.5,600.3906 398.5313,600.5469 398.6094,600.7031 C398.7656,600.9531 399.0469,601.1094 399.3438,601.1094 C399.5938,601.1094 399.8594,600.9688 400.0156,600.75 C400.1406,600.5938 400.1719,600.4375 400.1719,599.9844 L400.1719,598.0625 C400.1719,597.9063 400.1719,597.8594 400.1563,597.7031 C400.0938,597.2344 399.7813,596.9219 399.3281,596.9219 C399.0781,596.9219 398.8125,597.0625 398.6406,597.2813 C398.5313,597.4531 398.5,597.6094 398.5,598.0625 L398.5,598.1875 L397.0469,598.1875 L397.0469,595.7813 L401.0313,595.7813 L401.0313,596.6406 C401.0313,597.0469 401.0625,597.2188 401.1406,597.375 C401.3125,597.625 401.5938,597.7813 401.875,597.7813 C402.1406,597.7813 402.4063,597.6406 402.5781,597.4219 C402.6875,597.25 402.7188,597.1094 402.7188,596.6406 L402.7188,594.0938 L395.0938,594.0938 C394.6563,594.0938 394.5313,594.1094 394.375,594.2031 C394.125,594.3594 393.9688,594.6563 393.9688,594.9375 C393.9688,595.2188 394.1094,595.4688 394.3281,595.6406 C394.4844,595.75 394.6719,595.7813 395.0938,595.7813 L395.3438,595.7813 L395.3438,602.2969 L395.0938,602.2969 C394.6875,602.2969 394.5313,602.3125 394.375,602.4219 C394.125,602.5938 393.9688,602.8594 393.9688,603.1563 C393.9688,603.4219 394.1094,603.6719 394.3281,603.8281 C394.4688,603.9531 394.7031,604 395.0938,604 L403.0938,604 L403.0938,601.4219 C403.0938,600.9844 403.0625,600.8438 402.9844,600.6875 C402.8125,600.4375 402.5313,600.2813 402.25,600.2813 C401.9844,600.2813 401.7188,600.3906 401.5469,600.6406 C401.4375,600.7969 401.4063,600.9375 401.4063,601.4219 L401.4063,602.2969 L397.0469,602.2969 L397.0469,599.875 Z " fill="#000000"/><text fill="#000000" font-family="sans-serif" font-size="12" lengthAdjust="spacing" textLength="123" x="418.75" y="603.1543">userSerUserService</text><line style="stroke:#A80036;stroke-width:1.5;" x1="331" x2="597" y1="615" y2="615"/><rect fill="none" height="6" style="stroke:#C82930;stroke-width:1.0;" width="6" x="338" y="623"/><text fill="#000000" font-family="sans-serif" font-size="11" lengthAdjust="spacing" textLength="179" x="350" y="629.2104">repo: repository.UserRepository</text><line style="stroke:#A80036;stroke-width:1.5;" x1="331" x2="597" y1="635.8047" y2="635.8047"/><ellipse cx="341" cy="646.8047" fill="#84BE84" rx="3" ry="3" style="stroke:#038048;stroke-width:1.0;"/><text fill="#000000" font-family="sans-serif" font-size="11" lengthAdjust="spacing" textLength="157" x="350" y="650.0151">GetAll(): (model.User, error)</text><ellipse cx="341" cy="659.6094" fill="#84BE84" rx="3" ry="3" style="stroke:#038048;stroke-width:1.0;"/><text fill="#000000" font-family="sans-serif" font-size="11" lengthAdjust="spacing" textLength="242" x="350" y="662.8198">GetByID(id: uuid.UUID): (model.User, error)</text><ellipse cx="341" cy="672.4141" fill="#84BE84" rx="3" ry="3" style="stroke:#038048;stroke-width:1.0;"/><text fill="#000000" font-family="sans-serif" font-size="11" lengthAdjust="spacing" textLength="186" x="350" y="675.6245">Register(user: model.User): error</text><!--MD5=[e783793d60f9c18cc4d7a214f220ca53]
class database.SQLHandler--><rect codeLine="45" fill="#FEFECE" filter="url(#f3wtellbsw959)" height="99.2188" id="database.SQLHandler" style="stroke:#A80036;stroke-width:1.5;" width="400" x="741" y="253"/><ellipse cx="901.25" cy="269" fill="#B4A7E5" rx="11" ry="11" style="stroke:#A80036;stroke-width:1.0;"/><path d="M902.2031,265.7813 L903.9219,265.7813 C904.3125,265.7813 904.5,265.75 904.625,265.6719 C904.8906,265.5156 905.0313,265.2344 905.0313,264.9375 C905.0313,264.6719 904.9219,264.4063 904.6875,264.2344 C904.5156,264.125 904.375,264.0938 903.9219,264.0938 L898.7813,264.0938 C898.3438,264.0938 898.2188,264.1094 898.0625,264.2031 C897.8125,264.3594 897.6563,264.6563 897.6563,264.9375 C897.6563,265.2188 897.7969,265.4688 898.0156,265.6406 C898.1719,265.75 898.3594,265.7813 898.7813,265.7813 L900.5,265.7813 L900.5,272.2969 L898.7813,272.2969 C898.3438,272.2969 898.2188,272.3125 898.0625,272.4219 C897.8125,272.5781 897.6563,272.8594 897.6563,273.1563 C897.6563,273.4063 897.7969,273.6719 898.0156,273.8281 C898.1719,273.9531 898.375,274 898.7813,274 L903.9219,274 C904.6719,274 905.0313,273.7188 905.0313,273.1563 C905.0313,272.875 904.9219,272.625 904.6875,272.4531 C904.5156,272.3281 904.375,272.2969 903.9219,272.2969 L902.2031,272.2969 L902.2031,265.7813 Z " fill="#000000"/><text fill="#000000" font-family="sans-serif" font-size="12" font-style="italic" lengthAdjust="spacing" textLength="71" x="921.75" y="273.1543">SQLHandler</text><line style="stroke:#A80036;stroke-width:1.5;" x1="742" x2="1140" y1="285" y2="285"/><line style="stroke:#A80036;stroke-width:1.5;" x1="742" x2="1140" y1="293" y2="293"/><ellipse cx="752" cy="304" fill="#84BE84" rx="3" ry="3" style="stroke:#038048;stroke-width:1.0;"/><text fill="#000000" font-family="sans-serif" font-size="11" lengthAdjust="spacing" textLength="281" x="761" y="307.2104">Create(value: interface{}): database.SQLHandler</text><ellipse cx="752" cy="316.8047" fill="#84BE84" rx="3" ry="3" style="stroke:#038048;stroke-width:1.0;"/><text fill="#000000" font-family="sans-serif" font-size="11" lengthAdjust="spacing" textLength="68" x="761" y="320.0151">Error(): error</text><ellipse cx="752" cy="329.6094" fill="#84BE84" rx="3" ry="3" style="stroke:#038048;stroke-width:1.0;"/><text fill="#000000" font-family="sans-serif" font-size="11" lengthAdjust="spacing" textLength="374" x="761" y="332.8198">Find(out: interface{}, where: []interface{}): database.SQLHandler</text><ellipse cx="752" cy="342.4141" fill="#84BE84" rx="3" ry="3" style="stroke:#038048;stroke-width:1.0;"/><text fill="#000000" font-family="sans-serif" font-size="11" lengthAdjust="spacing" textLength="374" x="761" y="345.6245">First(out: interface{}, where: []interface{}): database.SQLHandler</text><!--MD5=[bcf52e06ae4da7928ae16e06f32df4d8]
class handler.API--><rect codeLine="59" fill="#FEFECE" filter="url(#f3wtellbsw959)" height="73.6094" id="handler.API" style="stroke:#A80036;stroke-width:1.5;" width="181" x="364.5" y="60"/><ellipse cx="442.25" cy="76" fill="#DA70D6" rx="11" ry="11" style="stroke:#A80036;stroke-width:1.0;"/><path d="M442.4063,79.5469 L439.9531,73.7813 L440.2813,73.7813 C440.6875,73.7813 440.8438,73.75 440.9844,73.6719 C441.25,73.5156 441.3906,73.2344 441.3906,72.9375 C441.3906,72.6719 441.2656,72.4063 441.0625,72.2344 C440.8906,72.125 440.7188,72.0938 440.2813,72.0938 L438.0156,72.0938 C437.5781,72.0938 437.4531,72.1094 437.2969,72.2031 C437.0469,72.3594 436.8906,72.6563 436.8906,72.9375 C436.8906,73.2813 437.125,73.625 437.4219,73.7188 C437.5781,73.7656 437.7031,73.7813 438.0469,73.7813 L441.4844,82 L443.1719,82 L446.6563,73.7813 C447.0156,73.7813 447.125,73.7656 447.2813,73.7188 C447.5625,73.625 447.8125,73.2813 447.8125,72.9375 C447.8125,72.6719 447.6719,72.4063 447.4531,72.2344 C447.2969,72.125 447.125,72.0938 446.6875,72.0938 L444.4375,72.0938 C444,72.0938 443.875,72.1094 443.7344,72.2031 C443.4688,72.3594 443.3125,72.6563 443.3125,72.9375 C443.3125,73.2188 443.4531,73.4688 443.6563,73.6406 C443.8438,73.75 443.9844,73.7813 444.4375,73.7813 L444.8438,73.7813 L442.4063,79.5469 Z " fill="#000000"/><text fill="#000000" font-family="sans-serif" font-size="12" lengthAdjust="spacing" textLength="17" x="462.75" y="80.1543">API</text><line style="stroke:#A80036;stroke-width:1.5;" x1="365.5" x2="544.5" y1="92" y2="92"/><ellipse cx="375.5" cy="103" rx="3" ry="3" style="stroke:#038048;stroke-width:1.0;fill:none;"/><text fill="#000000" font-family="sans-serif" font-size="11" lengthAdjust="spacing" textLength="149" x="384.5" y="106.2104">Ping: *handler.PingHandler</text><ellipse cx="375.5" cy="115.8047" rx="3" ry="3" style="stroke:#038048;stroke-width:1.0;fill:none;"/><text fill="#000000" font-family="sans-serif" font-size="11" lengthAdjust="spacing" textLength="155" x="384.5" y="119.0151">User: *handler.UserHandler</text><line style="stroke:#A80036;stroke-width:1.5;" x1="365.5" x2="544.5" y1="125.6094" y2="125.6094"/><!--MD5=[ec71536b7e37de4b5a6393cb3d214453]
class handler.PingHandler--><rect codeLine="70" fill="#FEFECE" filter="url(#f3wtellbsw959)" height="60.8047" id="handler.PingHandler" style="stroke:#A80036;stroke-width:1.5;" width="166" x="167" y="272"/><ellipse cx="210.35" cy="288" fill="#FFCC00" rx="11" ry="11" style="stroke:#A80036;stroke-width:1.0;"/><path d="M209.1469,288.875 L210.6,288.875 L210.6,288.9844 C210.6,289.3906 210.6313,289.5469 210.7094,289.7031 C210.8656,289.9531 211.1469,290.1094 211.4438,290.1094 C211.6938,290.1094 211.9594,289.9688 212.1156,289.75 C212.2406,289.5938 212.2719,289.4375 212.2719,288.9844 L212.2719,287.0625 C212.2719,286.9063 212.2719,286.8594 212.2563,286.7031 C212.1938,286.2344 211.8813,285.9219 211.4281,285.9219 C211.1781,285.9219 210.9125,286.0625 210.7406,286.2813 C210.6313,286.4531 210.6,286.6094 210.6,287.0625 L210.6,287.1875 L209.1469,287.1875 L209.1469,284.7813 L213.1313,284.7813 L213.1313,285.6406 C213.1313,286.0469 213.1625,286.2188 213.2406,286.375 C213.4125,286.625 213.6938,286.7813 213.975,286.7813 C214.2406,286.7813 214.5063,286.6406 214.6781,286.4219 C214.7875,286.25 214.8188,286.1094 214.8188,285.6406 L214.8188,283.0938 L207.1938,283.0938 C206.7563,283.0938 206.6313,283.1094 206.475,283.2031 C206.225,283.3594 206.0688,283.6563 206.0688,283.9375 C206.0688,284.2188 206.2094,284.4688 206.4281,284.6406 C206.5844,284.75 206.7719,284.7813 207.1938,284.7813 L207.4438,284.7813 L207.4438,291.2969 L207.1938,291.2969 C206.7875,291.2969 206.6313,291.3125 206.475,291.4219 C206.225,291.5938 206.0688,291.8594 206.0688,292.1563 C206.0688,292.4219 206.2094,292.6719 206.4281,292.8281 C206.5688,292.9531 206.8031,293 207.1938,293 L215.1938,293 L215.1938,290.4219 C215.1938,289.9844 215.1625,289.8438 215.0844,289.6875 C214.9125,289.4375 214.6313,289.2813 214.35,289.2813 C214.0844,289.2813 213.8188,289.3906 213.6469,289.6406 C213.5375,289.7969 213.5063,289.9375 213.5063,290.4219 L213.5063,291.2969 L209.1469,291.2969 L209.1469,288.875 Z " fill="#000000"/><text fill="#000000" font-family="sans-serif" font-size="12" lengthAdjust="spacing" textLength="71" x="230.65" y="292.1543">PingHandler</text><line style="stroke:#A80036;stroke-width:1.5;" x1="168" x2="332" y1="304" y2="304"/><line style="stroke:#A80036;stroke-width:1.5;" x1="168" x2="332" y1="312" y2="312"/><ellipse cx="178" cy="323" fill="#84BE84" rx="3" ry="3" style="stroke:#038048;stroke-width:1.0;"/><text fill="#000000" font-family="sans-serif" font-size="11" lengthAdjust="spacing" textLength="140" x="187" y="326.2104">Ping(c: v4.Context): error</text><!--MD5=[fe1cea9b5321ddcb3945da9c63130e75]
class handler.UserHandler--><rect codeLine="106" fill="#FEFECE" filter="url(#f3wtellbsw959)" height="99.2188" id="handler.UserHandler" style="stroke:#A80036;stroke-width:1.5;" width="191" x="368.5" y="253"/><ellipse cx="421.75" cy="269" fill="#FFCC00" rx="11" ry="11" style="stroke:#A80036;stroke-width:1.0;"/><path d="M420.5469,269.875 L422,269.875 L422,269.9844 C422,270.3906 422.0313,270.5469 422.1094,270.7031 C422.2656,270.9531 422.5469,271.1094 422.8438,271.1094 C423.0938,271.1094 423.3594,270.9688 423.5156,270.75 C423.6406,270.5938 423.6719,270.4375 423.6719,269.9844 L423.6719,268.0625 C423.6719,267.9063 423.6719,267.8594 423.6563,267.7031 C423.5938,267.2344 423.2813,266.9219 422.8281,266.9219 C422.5781,266.9219 422.3125,267.0625 422.1406,267.2813 C422.0313,267.4531 422,267.6094 422,268.0625 L422,268.1875 L420.5469,268.1875 L420.5469,265.7813 L424.5313,265.7813 L424.5313,266.6406 C424.5313,267.0469 424.5625,267.2188 424.6406,267.375 C424.8125,267.625 425.0938,267.7813 425.375,267.7813 C425.6406,267.7813 425.9063,267.6406 426.0781,267.4219 C426.1875,267.25 426.2188,267.1094 426.2188,266.6406 L426.2188,264.0938 L418.5938,264.0938 C418.1563,264.0938 418.0313,264.1094 417.875,264.2031 C417.625,264.3594 417.4688,264.6563 417.4688,264.9375 C417.4688,265.2188 417.6094,265.4688 417.8281,265.6406 C417.9844,265.75 418.1719,265.7813 418.5938,265.7813 L418.8438,265.7813 L418.8438,272.2969 L418.5938,272.2969 C418.1875,272.2969 418.0313,272.3125 417.875,272.4219 C417.625,272.5938 417.4688,272.8594 417.4688,273.1563 C417.4688,273.4219 417.6094,273.6719 417.8281,273.8281 C417.9688,273.9531 418.2031,274 418.5938,274 L426.5938,274 L426.5938,271.4219 C426.5938,270.9844 426.5625,270.8438 426.4844,270.6875 C426.3125,270.4375 426.0313,270.2813 425.75,270.2813 C425.4844,270.2813 425.2188,270.3906 425.0469,270.6406 C424.9375,270.7969 424.9063,270.9375 424.9063,271.4219 L424.9063,272.2969 L420.5469,272.2969 L420.5469,269.875 Z " fill="#000000"/><text fill="#000000" font-family="sans-serif" font-size="12" lengthAdjust="spacing" textLength="76" x="442.25" y="273.1543">UserHandler</text><line style="stroke:#A80036;stroke-width:1.5;" x1="369.5" x2="558.5" y1="285" y2="285"/><rect fill="none" height="6" style="stroke:#C82930;stroke-width:1.0;" width="6" x="376.5" y="293"/><text fill="#000000" font-family="sans-serif" font-size="11" lengthAdjust="spacing" textLength="135" x="388.5" y="299.2104">uc: service.UserService</text><line style="stroke:#A80036;stroke-width:1.5;" x1="369.5" x2="558.5" y1="305.8047" y2="305.8047"/><ellipse cx="379.5" cy="316.8047" fill="#84BE84" rx="3" ry="3" style="stroke:#038048;stroke-width:1.0;"/><text fill="#000000" font-family="sans-serif" font-size="11" lengthAdjust="spacing" textLength="152" x="388.5" y="320.0151">GetAll(c: v4.Context): error</text><ellipse cx="379.5" cy="329.6094" fill="#84BE84" rx="3" ry="3" style="stroke:#038048;stroke-width:1.0;"/><text fill="#000000" font-family="sans-serif" font-size="11" lengthAdjust="spacing" textLength="165" x="388.5" y="332.8198">GetByID(c: v4.Context): error</text><ellipse cx="379.5" cy="342.4141" fill="#84BE84" rx="3" ry="3" style="stroke:#038048;stroke-width:1.0;"/><text fill="#000000" font-family="sans-serif" font-size="11" lengthAdjust="spacing" textLength="164" x="388.5" y="345.6245">Register(c: v4.Context): error</text><!--MD5=[69748041814cf6dc7942c9ca3d91ce99]
class handler.RegisterReq--><rect codeLine="78" fill="#FEFECE" filter="url(#f3wtellbsw959)" height="73.6094" id="handler.RegisterReq" style="stroke:#A80036;stroke-width:1.5;" width="105" x="215.5" y="60"/><ellipse cx="230.5" cy="76" fill="#DA70D6" rx="11" ry="11" style="stroke:#A80036;stroke-width:1.0;"/><path d="M230.6563,79.5469 L228.2031,73.7813 L228.5313,73.7813 C228.9375,73.7813 229.0938,73.75 229.2344,73.6719 C229.5,73.5156 229.6406,73.2344 229.6406,72.9375 C229.6406,72.6719 229.5156,72.4063 229.3125,72.2344 C229.1406,72.125 228.9688,72.0938 228.5313,72.0938 L226.2656,72.0938 C225.8281,72.0938 225.7031,72.1094 225.5469,72.2031 C225.2969,72.3594 225.1406,72.6563 225.1406,72.9375 C225.1406,73.2813 225.375,73.625 225.6719,73.7188 C225.8281,73.7656 225.9531,73.7813 226.2969,73.7813 L229.7344,82 L231.4219,82 L234.9063,73.7813 C235.2656,73.7813 235.375,73.7656 235.5313,73.7188 C235.8125,73.625 236.0625,73.2813 236.0625,72.9375 C236.0625,72.6719 235.9219,72.4063 235.7031,72.2344 C235.5469,72.125 235.375,72.0938 234.9375,72.0938 L232.6875,72.0938 C232.25,72.0938 232.125,72.1094 231.9844,72.2031 C231.7188,72.3594 231.5625,72.6563 231.5625,72.9375 C231.5625,73.2188 231.7031,73.4688 231.9063,73.6406 C232.0938,73.75 232.2344,73.7813 232.6875,73.7813 L233.0938,73.7813 L230.6563,79.5469 Z " fill="#000000"/><text fill="#000000" font-family="sans-serif" font-size="12" lengthAdjust="spacing" textLength="73" x="244.5" y="80.1543">RegisterReq</text><line style="stroke:#A80036;stroke-width:1.5;" x1="216.5" x2="319.5" y1="92" y2="92"/><ellipse cx="226.5" cy="103" rx="3" ry="3" style="stroke:#038048;stroke-width:1.0;fill:none;"/><text fill="#000000" font-family="sans-serif" font-size="11" lengthAdjust="spacing" textLength="72" x="235.5" y="106.2104">Name: string</text><ellipse cx="226.5" cy="115.8047" rx="3" ry="3" style="stroke:#038048;stroke-width:1.0;fill:none;"/><text fill="#000000" font-family="sans-serif" font-size="11" lengthAdjust="spacing" textLength="69" x="235.5" y="119.0151">Email: string</text><line style="stroke:#A80036;stroke-width:1.5;" x1="216.5" x2="319.5" y1="125.6094" y2="125.6094"/><!--MD5=[46e8d83dcf6d043a13ba28150ebc956e]
class handler.User--><rect codeLine="87" fill="#FEFECE" filter="url(#f3wtellbsw959)" height="73.6094" id="handler.User" style="stroke:#A80036;stroke-width:1.5;" width="100" x="32" y="265.5"/><ellipse cx="64.55" cy="281.5" fill="#DA70D6" rx="11" ry="11" style="stroke:#A80036;stroke-width:1.0;"/><path d="M64.7063,285.0469 L62.2531,279.2813 L62.5813,279.2813 C62.9875,279.2813 63.1438,279.25 63.2844,279.1719 C63.55,279.0156 63.6906,278.7344 63.6906,278.4375 C63.6906,278.1719 63.5656,277.9063 63.3625,277.7344 C63.1906,277.625 63.0188,277.5938 62.5813,277.5938 L60.3156,277.5938 C59.8781,277.5938 59.7531,277.6094 59.5969,277.7031 C59.3469,277.8594 59.1906,278.1563 59.1906,278.4375 C59.1906,278.7813 59.425,279.125 59.7219,279.2188 C59.8781,279.2656 60.0031,279.2813 60.3469,279.2813 L63.7844,287.5 L65.4719,287.5 L68.9563,279.2813 C69.3156,279.2813 69.425,279.2656 69.5813,279.2188 C69.8625,279.125 70.1125,278.7813 70.1125,278.4375 C70.1125,278.1719 69.9719,277.9063 69.7531,277.7344 C69.5969,277.625 69.425,277.5938 68.9875,277.5938 L66.7375,277.5938 C66.3,277.5938 66.175,277.6094 66.0344,277.7031 C65.7688,277.8594 65.6125,278.1563 65.6125,278.4375 C65.6125,278.7188 65.7531,278.9688 65.9563,279.1406 C66.1438,279.25 66.2844,279.2813 66.7375,279.2813 L67.1438,279.2813 L64.7063,285.0469 Z " fill="#000000"/><text fill="#000000" font-family="sans-serif" font-size="12" lengthAdjust="spacing" textLength="29" x="82.45" y="285.6543">User</text><line style="stroke:#A80036;stroke-width:1.5;" x1="33" x2="131" y1="297.5" y2="297.5"/><ellipse cx="43" cy="308.5" rx="3" ry="3" style="stroke:#038048;stroke-width:1.0;fill:none;"/><text fill="#000000" font-family="sans-serif" font-size="11" lengthAdjust="spacing" textLength="74" x="52" y="311.7104">ID: uuid.UUID</text><ellipse cx="43" cy="321.3047" rx="3" ry="3" style="stroke:#038048;stroke-width:1.0;fill:none;"/><text fill="#000000" font-family="sans-serif" font-size="11" lengthAdjust="spacing" textLength="72" x="52" y="324.5151">Name: string</text><line style="stroke:#A80036;stroke-width:1.5;" x1="33" x2="131" y1="331.1094" y2="331.1094"/><!--MD5=[56c5a7d3320a76ff05592e37dbc7ae89]
class handler.UserDetail--><rect codeLine="96" fill="#FEFECE" filter="url(#f3wtellbsw959)" height="73.6094" id="handler.UserDetail" style="stroke:#A80036;stroke-width:1.5;" width="131" x="32.5" y="60"/><ellipse cx="63.7" cy="76" fill="#DA70D6" rx="11" ry="11" style="stroke:#A80036;stroke-width:1.0;"/><path d="M63.8563,79.5469 L61.4031,73.7813 L61.7313,73.7813 C62.1375,73.7813 62.2938,73.75 62.4344,73.6719 C62.7,73.5156 62.8406,73.2344 62.8406,72.9375 C62.8406,72.6719 62.7156,72.4063 62.5125,72.2344 C62.3406,72.125 62.1688,72.0938 61.7313,72.0938 L59.4656,72.0938 C59.0281,72.0938 58.9031,72.1094 58.7469,72.2031 C58.4969,72.3594 58.3406,72.6563 58.3406,72.9375 C58.3406,73.2813 58.575,73.625 58.8719,73.7188 C59.0281,73.7656 59.1531,73.7813 59.4969,73.7813 L62.9344,82 L64.6219,82 L68.1063,73.7813 C68.4656,73.7813 68.575,73.7656 68.7313,73.7188 C69.0125,73.625 69.2625,73.2813 69.2625,72.9375 C69.2625,72.6719 69.1219,72.4063 68.9031,72.2344 C68.7469,72.125 68.575,72.0938 68.1375,72.0938 L65.8875,72.0938 C65.45,72.0938 65.325,72.1094 65.1844,72.2031 C64.9188,72.3594 64.7625,72.6563 64.7625,72.9375 C64.7625,73.2188 64.9031,73.4688 65.1063,73.6406 C65.2938,73.75 65.4344,73.7813 65.8875,73.7813 L66.2938,73.7813 L63.8563,79.5469 Z " fill="#000000"/><text fill="#000000" font-family="sans-serif" font-size="12" lengthAdjust="spacing" textLength="63" x="81.3" y="80.1543">UserDetail</text><line style="stroke:#A80036;stroke-width:1.5;" x1="33.5" x2="162.5" y1="92" y2="92"/><ellipse cx="43.5" cy="103" rx="3" ry="3" style="stroke:#038048;stroke-width:1.0;fill:none;"/><text fill="#000000" font-family="sans-serif" font-size="11" lengthAdjust="spacing" textLength="105" x="52.5" y="106.2104">User: handler.User</text><ellipse cx="43.5" cy="115.8047" rx="3" ry="3" style="stroke:#038048;stroke-width:1.0;fill:none;"/><text fill="#000000" font-family="sans-serif" font-size="11" lengthAdjust="spacing" textLength="69" x="52.5" y="119.0151">Email: string</text><line style="stroke:#A80036;stroke-width:1.5;" x1="33.5" x2="162.5" y1="125.6094" y2="125.6094"/><!--MD5=[fc453b763f9afe366c9b2873af50dbfd]
class infrastructure.SQLHandler--><rect codeLine="118" fill="#FEFECE" filter="url(#f3wtellbsw959)" height="112.0234" id="infrastructure.SQLHandler" style="stroke:#A80036;stroke-width:1.5;" width="400" x="741" y="41"/><ellipse cx="901.25" cy="57" fill="#FFCC00" rx="11" ry="11" style="stroke:#A80036;stroke-width:1.0;"/><path d="M900.0469,57.875 L901.5,57.875 L901.5,57.9844 C901.5,58.3906 901.5313,58.5469 901.6094,58.7031 C901.7656,58.9531 902.0469,59.1094 902.3438,59.1094 C902.5938,59.1094 902.8594,58.9688 903.0156,58.75 C903.1406,58.5938 903.1719,58.4375 903.1719,57.9844 L903.1719,56.0625 C903.1719,55.9063 903.1719,55.8594 903.1563,55.7031 C903.0938,55.2344 902.7813,54.9219 902.3281,54.9219 C902.0781,54.9219 901.8125,55.0625 901.6406,55.2813 C901.5313,55.4531 901.5,55.6094 901.5,56.0625 L901.5,56.1875 L900.0469,56.1875 L900.0469,53.7813 L904.0313,53.7813 L904.0313,54.6406 C904.0313,55.0469 904.0625,55.2188 904.1406,55.375 C904.3125,55.625 904.5938,55.7813 904.875,55.7813 C905.1406,55.7813 905.4063,55.6406 905.5781,55.4219 C905.6875,55.25 905.7188,55.1094 905.7188,54.6406 L905.7188,52.0938 L898.0938,52.0938 C897.6563,52.0938 897.5313,52.1094 897.375,52.2031 C897.125,52.3594 896.9688,52.6563 896.9688,52.9375 C896.9688,53.2188 897.1094,53.4688 897.3281,53.6406 C897.4844,53.75 897.6719,53.7813 898.0938,53.7813 L898.3438,53.7813 L898.3438,60.2969 L898.0938,60.2969 C897.6875,60.2969 897.5313,60.3125 897.375,60.4219 C897.125,60.5938 896.9688,60.8594 896.9688,61.1563 C896.9688,61.4219 897.1094,61.6719 897.3281,61.8281 C897.4688,61.9531 897.7031,62 898.0938,62 L906.0938,62 L906.0938,59.4219 C906.0938,58.9844 906.0625,58.8438 905.9844,58.6875 C905.8125,58.4375 905.5313,58.2813 905.25,58.2813 C904.9844,58.2813 904.7188,58.3906 904.5469,58.6406 C904.4375,58.7969 904.4063,58.9375 904.4063,59.4219 L904.4063,60.2969 L900.0469,60.2969 L900.0469,57.875 Z " fill="#000000"/><text fill="#000000" font-family="sans-serif" font-size="12" lengthAdjust="spacing" textLength="71" x="921.75" y="61.1543">SQLHandler</text><line style="stroke:#A80036;stroke-width:1.5;" x1="742" x2="1140" y1="73" y2="73"/><rect fill="none" height="6" style="stroke:#C82930;stroke-width:1.0;" width="6" x="749" y="81"/><text fill="#000000" font-family="sans-serif" font-size="11" lengthAdjust="spacing" textLength="83" x="761" y="87.2104">conn: gorm.DB</text><line style="stroke:#A80036;stroke-width:1.5;" x1="742" x2="1140" y1="93.8047" y2="93.8047"/><ellipse cx="752" cy="104.8047" fill="#84BE84" rx="3" ry="3" style="stroke:#038048;stroke-width:1.0;"/><text fill="#000000" font-family="sans-serif" font-size="11" lengthAdjust="spacing" textLength="374" x="761" y="108.0151">Find(out: interface{}, where: []interface{}): database.SQLHandler</text><ellipse cx="752" cy="117.6094" fill="#84BE84" rx="3" ry="3" style="stroke:#038048;stroke-width:1.0;"/><text fill="#000000" font-family="sans-serif" font-size="11" lengthAdjust="spacing" textLength="374" x="761" y="120.8198">First(out: interface{}, where: []interface{}): database.SQLHandler</text><ellipse cx="752" cy="130.4141" fill="#84BE84" rx="3" ry="3" style="stroke:#038048;stroke-width:1.0;"/><text fill="#000000" font-family="sans-serif" font-size="11" lengthAdjust="spacing" textLength="281" x="761" y="133.6245">Create(value: interface{}): database.SQLHandler</text><ellipse cx="752" cy="143.2188" fill="#84BE84" rx="3" ry="3" style="stroke:#038048;stroke-width:1.0;"/><text fill="#000000" font-family="sans-serif" font-size="11" lengthAdjust="spacing" textLength="68" x="761" y="146.4292">Error(): error</text><!--MD5=[17b9ce48601acaa48748402a31418eab]
class infrastructure.sqlConfig--><rect codeLine="133" fill="#FEFECE" filter="url(#f3wtellbsw959)" height="112.0234" id="infrastructure.sqlConfig" style="stroke:#A80036;stroke-width:1.5;" width="90" x="616" y="41"/><ellipse cx="631.9" cy="57" fill="#DA70D6" rx="11" ry="11" style="stroke:#A80036;stroke-width:1.0;"/><path d="M632.0563,60.5469 L629.6031,54.7813 L629.9313,54.7813 C630.3375,54.7813 630.4938,54.75 630.6344,54.6719 C630.9,54.5156 631.0406,54.2344 631.0406,53.9375 C631.0406,53.6719 630.9156,53.4063 630.7125,53.2344 C630.5406,53.125 630.3688,53.0938 629.9313,53.0938 L627.6656,53.0938 C627.2281,53.0938 627.1031,53.1094 626.9469,53.2031 C626.6969,53.3594 626.5406,53.6563 626.5406,53.9375 C626.5406,54.2813 626.775,54.625 627.0719,54.7188 C627.2281,54.7656 627.3531,54.7813 627.6969,54.7813 L631.1344,63 L632.8219,63 L636.3063,54.7813 C636.6656,54.7813 636.775,54.7656 636.9313,54.7188 C637.2125,54.625 637.4625,54.2813 637.4625,53.9375 C637.4625,53.6719 637.3219,53.4063 637.1031,53.2344 C636.9469,53.125 636.775,53.0938 636.3375,53.0938 L634.0875,53.0938 C633.65,53.0938 633.525,53.1094 633.3844,53.2031 C633.1188,53.3594 632.9625,53.6563 632.9625,53.9375 C632.9625,54.2188 633.1031,54.4688 633.3063,54.6406 C633.4938,54.75 633.6344,54.7813 634.0875,54.7813 L634.4938,54.7813 L632.0563,60.5469 Z " fill="#000000"/><text fill="#000000" font-family="sans-serif" font-size="12" lengthAdjust="spacing" textLength="56" x="646.1" y="61.1543">sqlConfig</text><line style="stroke:#A80036;stroke-width:1.5;" x1="617" x2="705" y1="73" y2="73"/><rect fill="none" height="6" style="stroke:#C82930;stroke-width:1.0;" width="6" x="624" y="81"/><text fill="#000000" font-family="sans-serif" font-size="11" lengthAdjust="spacing" textLength="63" x="636" y="87.2104">user: string</text><rect fill="none" height="6" style="stroke:#C82930;stroke-width:1.0;" width="6" x="624" y="93.8047"/><text fill="#000000" font-family="sans-serif" font-size="11" lengthAdjust="spacing" textLength="64" x="636" y="100.0151">pass: string</text><rect fill="none" height="6" style="stroke:#C82930;stroke-width:1.0;" width="6" x="624" y="106.6094"/><text fill="#000000" font-family="sans-serif" font-size="11" lengthAdjust="spacing" textLength="62" x="636" y="112.8198">host: string</text><rect fill="none" height="6" style="stroke:#C82930;stroke-width:1.0;" width="6" x="624" y="119.4141"/><text fill="#000000" font-family="sans-serif" font-size="11" lengthAdjust="spacing" textLength="60" x="636" y="125.6245">port: string</text><rect fill="none" height="6" style="stroke:#C82930;stroke-width:1.0;" width="6" x="624" y="132.2188"/><text fill="#000000" font-family="sans-serif" font-size="11" lengthAdjust="spacing" textLength="52" x="636" y="138.4292">db: string</text><line style="stroke:#A80036;stroke-width:1.5;" x1="617" x2="705" y1="145.0234" y2="145.0234"/><!--MD5=[0b74687a7ff082dcb030b6545c563bec]
link repository.UserRepository to model.User--><path codeLine="13" d="M94.3563,907.036 C80.0296,921.657 74.7756,938.226 88,956 C118.482,996.969 261.949,1026.643 342.598,1040.4087 " fill="none" id="repository.UserRepository-to-model.User" style="stroke:#A80036;stroke-width:1.0;stroke-dasharray:7.0,7.0;"/><polygon fill="#A80036" points="347.817,1041.2924,339.6121,1035.8444,342.8873,1040.4567,338.2751,1043.7319,347.817,1041.2924" style="stroke:#A80036;stroke-width:1.0;"/><text fill="#000000" font-family="sans-serif" font-size="13" lengthAdjust="spacing" textLength="55" x="89" y="952.0669">«return»</text><!--MD5=[0b74687a7ff082dcb030b6545c563bec]
link repository.UserRepository to model.User--><path codeLine="14" d="M182.903,907.258 C176.768,923.831 175.335,941.234 185,956 C219.717,1009.04 292.042,1032.0053 342.741,1041.8329 " fill="none" id="repository.UserRepository-to-model.User-1" style="stroke:#A80036;stroke-width:1.0;stroke-dasharray:7.0,7.0;"/><polygon fill="#A80036" points="347.886,1042.7997,339.7805,1037.205,342.9722,1041.8754,338.3017,1045.0671,347.886,1042.7997" style="stroke:#A80036;stroke-width:1.0;"/><text fill="#000000" font-family="sans-serif" font-size="13" lengthAdjust="spacing" textLength="39" x="186" y="952.0669">«use»</text><!--MD5=[0b74687a7ff082dcb030b6545c563bec]
link repository.UserRepository to model.User--><path codeLine="15" d="M240.499,907.085 C246.643,924.018 254.952,941.652 266,956 C286.532,982.666 316.837,1004.775 343.233,1020.736 " fill="none" id="repository.UserRepository-to-model.User-2" style="stroke:#A80036;stroke-width:1.0;stroke-dasharray:7.0,7.0;"/><polygon fill="#A80036" points="347.772,1023.444,342.0916,1015.3983,343.4779,1020.8827,337.9935,1022.2689,347.772,1023.444" style="stroke:#A80036;stroke-width:1.0;"/><text fill="#000000" font-family="sans-serif" font-size="13" lengthAdjust="spacing" textLength="55" x="267" y="952.0669">«return»</text><!--MD5=[0b74687a7ff082dcb030b6545c563bec]
link repository.UserRepository to model.User--><path codeLine="16" d="M297.003,907.148 C307.513,917.364 317.858,928.169 327,939 C343.493,958.541 359.201,982.15 371.63,1002.478 " fill="none" id="repository.UserRepository-to-model.User-3" style="stroke:#A80036;stroke-width:1.0;stroke-dasharray:7.0,7.0;"/><polygon fill="#A80036" points="374.231,1006.763,372.9807,996.9938,371.6367,1002.4887,366.1418,1001.1447,374.231,1006.763" style="stroke:#A80036;stroke-width:1.0;"/><text fill="#000000" font-family="sans-serif" font-size="13" lengthAdjust="spacing" textLength="39" x="342" y="952.0669">«use»</text><!--MD5=[0e56630234f0110db2467573597075eb]
link service.UserService to model.User--><path codeLine="27" d="M555.699,522.167 C579.285,537.746 601.732,557.888 615,583 C640.539,631.335 619.096,651.487 615,706 C607.423,806.851 635.918,846.075 581,931 C550.857,977.613 495.084,1009.576 453.002,1028.3581 " fill="none" id="service.UserService-to-model.User" style="stroke:#A80036;stroke-width:1.0;stroke-dasharray:7.0,7.0;"/><polygon fill="#A80036" points="448.199,1030.4711,458.0478,1030.5066,452.7754,1028.4569,454.8251,1023.1845,448.199,1030.4711" style="stroke:#A80036;stroke-width:1.0;"/><text fill="#000000" font-family="sans-serif" font-size="13" lengthAdjust="spacing" textLength="55" x="616" y="727.0669">«return»</text><!--MD5=[0e56630234f0110db2467573597075eb]
link service.UserService to model.User--><path codeLine="28" d="M569.236,522.161 C586.514,530.95 603.74,540.949 619,552 C687.072,601.298 691.244,647.707 680,731 C667.667,822.36 674.92,853.496 625,931 C586.439,990.868 507.142,1022.031 453.259,1036.9611 " fill="none" id="service.UserService-to-model.User-1" style="stroke:#A80036;stroke-width:1.0;stroke-dasharray:7.0,7.0;"/><polygon fill="#A80036" points="448.126,1038.3557,457.8596,1039.8579,452.9513,1037.0457,455.7635,1032.1373,448.126,1038.3557" style="stroke:#A80036;stroke-width:1.0;"/><text fill="#000000" font-family="sans-serif" font-size="13" lengthAdjust="spacing" textLength="39" x="684" y="727.0669">«use»</text><!--MD5=[945ff1696ba95aaf1435c9424ba0a0f5]
link service.userSerUserService to repository.UserRepository--><path codeLine="39" d="M408.568,682.206 C375.971,710.848 334.344,747.424 298.974,778.502 " fill="none" id="service.userSerUserService-to-repository.UserRepository" style="stroke:#A80036;stroke-width:1.0;"/><polygon fill="#A80036" points="295.133,781.877,304.5342,778.9413,298.8891,778.5767,299.2537,772.9316,295.133,781.877" style="stroke:#A80036;stroke-width:1.0;"/><!--MD5=[88b55d0000b8be07b97d3ba3e878b783]
link service.userSerUserService to model.User--><path codeLine="41" d="M456.235,682.385 C443.448,762.886 418.122,922.325 405.506,1001.745 " fill="none" id="service.userSerUserService-to-model.User" style="stroke:#A80036;stroke-width:1.0;stroke-dasharray:7.0,7.0;"/><polygon fill="#A80036" points="404.694,1006.859,410.0584,998.5993,405.4796,1001.9211,402.1578,997.3423,404.694,1006.859" style="stroke:#A80036;stroke-width:1.0;"/><text fill="#000000" font-family="sans-serif" font-size="13" lengthAdjust="spacing" textLength="55" x="448" y="849.0669">«return»</text><!--MD5=[88b55d0000b8be07b97d3ba3e878b783]
link service.userSerUserService to model.User--><path codeLine="42" d="M491.381,682.167 C499.726,699.546 507.8,719.629 512,739 C530.08,822.396 543.975,851.884 512,931 C499.64,961.583 475.136,988.642 452.003,1009.108 " fill="none" id="service.userSerUserService-to-model.User-1" style="stroke:#A80036;stroke-width:1.0;stroke-dasharray:7.0,7.0;"/><polygon fill="#A80036" points="448.004,1012.593,457.4164,1009.6935,451.7727,1009.3072,452.159,1003.6635,448.004,1012.593" style="stroke:#A80036;stroke-width:1.0;"/><text fill="#000000" font-family="sans-serif" font-size="13" lengthAdjust="spacing" textLength="39" x="533" y="849.0669">«use»</text><!--MD5=[bd7b98cca169a938dc80f901419524e9]
link database.SQLHandler to database.SQLHandler--><path codeLine="54" d="M1141.15,298.237 C1162.37,299.064 1176,300.485 1176,302.5 C1176,304.342 1164.61,305.688 1146.45,306.537 " fill="none" id="database.SQLHandler-to-database.SQLHandler" style="stroke:#A80036;stroke-width:1.0;stroke-dasharray:7.0,7.0;"/><polygon fill="#A80036" points="1141.15,306.763,1150.3131,310.3736,1146.1454,306.5487,1149.9703,302.381,1141.15,306.763" style="stroke:#A80036;stroke-width:1.0;"/><text fill="#000000" font-family="sans-serif" font-size="13" lengthAdjust="spacing" textLength="55" x="1182" y="307.0669">«return»</text><!--MD5=[bd7b98cca169a938dc80f901419524e9]
link database.SQLHandler to database.SQLHandler--><path codeLine="55" d="M1141.31,292.319 C1198.34,292.834 1243,296.227 1243,302.5 C1243,308.577 1201.09,311.952 1146.62,312.624 " fill="none" id="database.SQLHandler-to-database.SQLHandler-1" style="stroke:#A80036;stroke-width:1.0;stroke-dasharray:7.0,7.0;"/><polygon fill="#A80036" points="1141.31,312.681,1150.3551,316.5779,1146.3097,312.6238,1150.2637,308.5784,1141.31,312.681" style="stroke:#A80036;stroke-width:1.0;"/><text fill="#000000" font-family="sans-serif" font-size="13" lengthAdjust="spacing" textLength="55" x="1249" y="307.0669">«return»</text><!--MD5=[bd7b98cca169a938dc80f901419524e9]
link database.SQLHandler to database.SQLHandler--><path codeLine="56" d="M1141.44,287.255 C1230.33,286.227 1310,291.309 1310,302.5 C1310,313.472 1233.41,318.572 1146.64,317.799 " fill="none" id="database.SQLHandler-to-database.SQLHandler-2" style="stroke:#A80036;stroke-width:1.0;stroke-dasharray:7.0,7.0;"/><polygon fill="#A80036" points="1141.44,317.745,1150.3937,321.8476,1146.4397,317.8021,1150.4851,313.8481,1141.44,317.745" style="stroke:#A80036;stroke-width:1.0;"/><text fill="#000000" font-family="sans-serif" font-size="13" lengthAdjust="spacing" textLength="55" x="1316" y="307.0669">«return»</text><!--MD5=[2de5fb1df29feec12da7bc14b3950b89]
link handler.API to handler.PingHandler--><path codeLine="65" d="M418.35,134.382 C380.237,172.216 321.058,230.962 283.97,267.778 " fill="none" id="handler.API-to-handler.PingHandler" style="stroke:#A80036;stroke-width:1.0;"/><polygon fill="#A80036" points="280.006,271.714,289.2119,268.2138,283.5551,268.1921,283.5768,262.5353,280.006,271.714" style="stroke:#A80036;stroke-width:1.0;"/><!--MD5=[17265d0630d89584ed9ef6005af90399]
link handler.API to handler.UserHandler--><path codeLine="66" d="M456.609,134.382 C458.002,165.873 460.035,211.85 461.617,247.612 " fill="none" id="handler.API-to-handler.UserHandler" style="stroke:#A80036;stroke-width:1.0;"/><polygon fill="#A80036" points="461.847,252.811,465.4472,243.6437,461.627,247.8158,457.4549,243.9957,461.847,252.811" style="stroke:#A80036;stroke-width:1.0;"/><!--MD5=[1774cb7fd2d825d075b855e4eb2dc6f7]
link handler.UserDetail to handler.User--><path codeLine="102" d="M95.1395,134.382 C92.3637,169.686 88.1564,223.199 85.2541,260.112 " fill="none" id="handler.UserDetail-to-handler.User" style="stroke:#A80036;stroke-width:1.0;"/><polygon fill="#A80036" points="84.8357,265.433,89.5305,256.7751,85.2286,260.4485,81.5552,256.1465,84.8357,265.433" style="stroke:#A80036;stroke-width:1.0;"/><!--MD5=[ff737fb2ba59b0f848564a1a47a675cd]
link handler.UserHandler to service.UserService--><path codeLine="114" d="M464,352.108 C464,376.681 464,406.378 464,430.757 " fill="none" id="handler.UserHandler-to-service.UserService" style="stroke:#A80036;stroke-width:1.0;"/><polygon fill="#A80036" points="464,435.875,468,426.875,464,430.875,460,426.875,464,435.875" style="stroke:#A80036;stroke-width:1.0;"/><!--MD5=[6ef36fddf894346a5b1be8ef24c2cda4]
link infrastructure.SQLHandler to database.SQLHandler--><path codeLine="128" d="M852.077,153.032 C839.774,167.471 833.549,184.075 841,202 C848.218,219.364 860.102,235.263 873.203,249.013 " fill="none" id="infrastructure.SQLHandler-to-database.SQLHandler" style="stroke:#A80036;stroke-width:1.0;stroke-dasharray:7.0,7.0;"/><polygon fill="#A80036" points="876.928,252.834,873.5098,243.5974,873.4378,249.2537,867.7814,249.1817,876.928,252.834" style="stroke:#A80036;stroke-width:1.0;"/><text fill="#000000" font-family="sans-serif" font-size="13" lengthAdjust="spacing" textLength="55" x="842" y="198.0669">«return»</text><!--MD5=[6ef36fddf894346a5b1be8ef24c2cda4]
link infrastructure.SQLHandler to database.SQLHandler--><path codeLine="129" d="M938.809,153.221 C938.472,163.77 938.177,174.725 938,185 C937.648,205.427 938.04,227.865 938.645,247.549 " fill="none" id="infrastructure.SQLHandler-to-database.SQLHandler-1" style="stroke:#A80036;stroke-width:1.0;stroke-dasharray:7.0,7.0;"/><polygon fill="#A80036" points="938.811,252.757,942.5209,243.6336,938.651,247.7596,934.525,243.8896,938.811,252.757" style="stroke:#A80036;stroke-width:1.0;"/><text fill="#000000" font-family="sans-serif" font-size="13" lengthAdjust="spacing" textLength="55" x="939" y="198.0669">«return»</text><!--MD5=[6ef36fddf894346a5b1be8ef24c2cda4]
link infrastructure.SQLHandler to database.SQLHandler--><path codeLine="130" d="M984.54,153.123 C990.49,163.227 995.686,174.054 999,185 C1005.54,206.612 998.138,229.105 986.678,248.497 " fill="none" id="infrastructure.SQLHandler-to-database.SQLHandler-2" style="stroke:#A80036;stroke-width:1.0;stroke-dasharray:7.0,7.0;"/><polygon fill="#A80036" points="984.012,252.842,992.127,247.261,986.6259,248.5797,985.3073,243.0787,984.012,252.842" style="stroke:#A80036;stroke-width:1.0;"/><text fill="#000000" font-family="sans-serif" font-size="13" lengthAdjust="spacing" textLength="55" x="1002" y="198.0669">«return»</text><!--MD5=[be7ca45811ccae8cc77da6a4295de9eb]
reverse link service.UserService to service.userSerUserService--><path codeLine="154" d="M464,542.588 C464,556.022 464,570.024 464,582.837 " fill="none" id="service.UserService-backto-service.userSerUserService" style="stroke:#A80036;stroke-width:1.0;"/><polygon fill="none" points="457,542.201,464,522.201,471,542.201,457,542.201" style="stroke:#A80036;stroke-width:1.0;"/><!--MD5=[442d3ff4b64ad10c84c2a3721d31b407]
@startuml
package "repository" {
	interface "UserRepository" as repository.UserRepository {
		+FindAll(): (model.User, error)
		+FindByID(id: uuid.UUID): (model.User, error)
		+Register(user: model.User): error
		+FindAll(): (model.User, error)
		+FindByID(id: uuid.UUID): (model.User, error)
		+Register(user: model.User): error
	}
}


	repository.UserRepository ..> model.User : <<return>> 
	repository.UserRepository ..> model.User : <<use>> 
	repository.UserRepository ..> model.User : <<return>> 
	repository.UserRepository ..> model.User : <<use>> 

package "service" {
	interface "UserService" as service.UserService {
		+GetAll(): (model.User, error)
		+GetByID(id: uuid.UUID): (model.User, error)
		+Register(user: model.User): error
	}
}


	service.UserService ..> model.User : <<return>> 
	service.UserService ..> model.User : <<use>> 

package "service" {
	class "userSerUserService" as service.userSerUserService <<E,#FFCC00>> {
		-repo: repository.UserRepository
		+GetAll(): (model.User, error)
		+GetByID(id: uuid.UUID): (model.User, error)
		+Register(user: model.User): error
	}
}

	service.userSerUserService - -> repository.UserRepository

	service.userSerUserService ..> model.User : <<return>> 
	service.userSerUserService ..> model.User : <<use>> 

package "database" {
	interface "SQLHandler" as database.SQLHandler {
		+Create(value: interface{}): database.SQLHandler
		+Error(): error
		+Find(out: interface{}, where: []interface{}): database.SQLHandler
		+First(out: interface{}, where: []interface{}): database.SQLHandler
	}
}


	database.SQLHandler ..> database.SQLHandler : <<return>> 
	database.SQLHandler ..> database.SQLHandler : <<return>> 
	database.SQLHandler ..> database.SQLHandler : <<return>> 

package "handler" {
	class "API" as handler.API <<V,Orchid>> {
		+Ping: *handler.PingHandler
		+User: *handler.UserHandler
	}
}

	handler.API - -> handler.PingHandler
	handler.API - -> handler.UserHandler


package "handler" {
	class "PingHandler" as handler.PingHandler <<E,#FFCC00>> {
		+Ping(c: v4.Context): error
	}
}



package "handler" {
	class "RegisterReq" as handler.RegisterReq <<V,Orchid>> {
		+Name: string
		+Email: string
	}
}



package "handler" {
	class "User" as handler.User <<V,Orchid>> {
		+ID: uuid.UUID
		+Name: string
	}
}



package "handler" {
	class "UserDetail" as handler.UserDetail <<V,Orchid>> {
		+User: handler.User
		+Email: string
	}
}

	handler.UserDetail - -> handler.User


package "handler" {
	class "UserHandler" as handler.UserHandler <<E,#FFCC00>> {
		-uc: service.UserService
		+GetAll(c: v4.Context): error
		+GetByID(c: v4.Context): error
		+Register(c: v4.Context): error
	}
}

	handler.UserHandler - -> service.UserService


package "infrastructure" {
	class "SQLHandler" as infrastructure.SQLHandler <<E,#FFCC00>> {
		-conn: gorm.DB
		+Find(out: interface{}, where: []interface{}): database.SQLHandler
		+First(out: interface{}, where: []interface{}): database.SQLHandler
		+Create(value: interface{}): database.SQLHandler
		+Error(): error
	}
}


	infrastructure.SQLHandler ..> database.SQLHandler : <<return>> 
	infrastructure.SQLHandler ..> database.SQLHandler : <<return>> 
	infrastructure.SQLHandler ..> database.SQLHandler : <<return>> 

package "infrastructure" {
	class "sqlConfig" as infrastructure.sqlConfig <<V,Orchid>> {
		-user: string
		-pass: string
		-host: string
		-port: string
		-db: string
	}
}



package "model" {
	class "User" as model.User <<V,Orchid>> {
		+ID: uuid.UUID
		+Name: string
		+Email: string
	}
}



	service.userSerUserService -up-|> service.UserService
@enduml

PlantUML version 1.2021.10(Mon Aug 30 13:43:48 UTC 2021)
(GPL source distribution)
Java Runtime: Java(TM) SE Runtime Environment
JVM: Java HotSpot(TM) 64-Bit Server VM
Default Encoding: UTF-8
Language: en
Country: US
--></g></svg>